<?xml version="1.0" encoding="utf-8"?>
<!-- Generator: Adobe Illustrator 18.1.1, SVG Export Plug-In . SVG Version: 6.00 Build 0)  -->
<svg version="1.1" id="Layer_1" xmlns="http://www.w3.org/2000/svg" xmlns:xlink="http://www.w3.org/1999/xlink" x="0px" y="0px"
	 viewBox="0 0 240.1 280.2" enable-background="new 0 0 240.1 280.2" xml:space="preserve">
<g>
	<path fill="#9ED191" stroke="#5BBA47" stroke-miterlimit="10" d="M184.5,190.6c-5.1-11.3-2.8-23.7,4.7-30.9
		c0.5-0.5-0.1-1.4-0.7-1.2c-5,1.6-9.7,5-13.4,10.7c-1.8,2.7-2.8,6-2.9,9.5c-0.3,6.5,1.1,12.2,3.6,17.1c3.9-0.2,7.7-0.3,11.5-0.2
		C186.3,194,185.3,192.4,184.5,190.6z"/>
	<path fill="#9ED191" stroke="#5BBA47" stroke-miterlimit="10" d="M153.5,187.1c5.1-11.3,2.8-23.7-4.7-30.9
		c-0.5-0.5,0.1-1.4,0.7-1.2c5,1.6,9.7,5,13.4,10.7c1.8,2.7,2.8,6,2.9,9.5c0.3,6.5-1.1,12.2-3.6,17.1c-3.9-0.2-7.7-0.3-11.5-0.2
		C151.7,190.5,152.7,188.8,153.5,187.1z"/>
	<path fill="#9ED191" stroke="#5BBA47" stroke-miterlimit="10" d="M172.6,155.7c0.2-0.6-0.5-1.1-0.9-0.7c-1.3,1.5-2.5,3.1-3.5,5
		c-4.1,7.8-3.6,17.8,0.6,26.1c3.5-0.6,7.2-1,10.9-1.3C172.3,176.8,169.6,165.3,172.6,155.7z"/>
	<path fill="#9ED191" stroke="#5BBA47" stroke-miterlimit="10" d="M149.3,169.9c-0.2-0.5-0.9-0.4-0.9,0.1c0.2,3.8,1.2,7.8,3,11.9
		c1.2,2.7,2.9,5.1,4.8,7.3c3.5-1.1,7.2-2,11.1-2.7C159.5,183.9,152.8,177.8,149.3,169.9z"/>
	<path fill="#9ED191" stroke="#5BBA47" stroke-miterlimit="10" d="M190.2,177.8c0.5-4.2,0.2-8.3-0.8-12c-0.1-0.5-0.8-0.5-0.9,0
		c-0.9,8.4-5.7,15.4-12.6,18.9c4.1,0.2,8,0.6,11.8,1.3C189,183.5,189.9,180.8,190.2,177.8z"/>
	<circle fill="#354A9F" cx="175.5" cy="208.9" r="29.6"/>
	<g>
		<circle fill="#354A9F" cx="175.5" cy="207.6" r="11.4"/>
	</g>
	<g>
		<circle fill="#5B6CB3" cx="140.8" cy="210.3" r="11.4"/>
		<g>
			<path fill="#5367B0" d="M142.5,221.6c0,0-0.3,0.1-0.9,0.3c-0.6,0.1-1.5,0.3-2.6,0.2c-0.5,0-1.1-0.1-1.7-0.2
				c-0.6-0.1-1.2-0.3-1.9-0.6c-0.6-0.3-1.3-0.6-1.9-1.1c-0.6-0.4-1.2-1.1-1.7-1.7c-0.4-0.5-0.8-1.1-1.2-1.7
				c-0.3-0.6-0.7-1.2-0.9-1.9c-0.5-1.3-0.7-2.6-0.7-3.7c0.1-1.1,0.2-1.9,0.4-2.5c0.1-0.6,0.2-0.9,0.2-0.9s0.2,0.3,0.4,0.9
				c0.2,0.6,0.4,1.4,0.7,2.3c0.3,0.9,0.7,1.8,1.3,2.8c0.3,0.5,0.6,1,1,1.5c0.4,0.5,0.7,1,1.1,1.5c0.4,0.5,0.7,0.8,1.1,1.2
				c0.4,0.3,0.9,0.7,1.3,1c0.5,0.3,0.9,0.6,1.4,0.8c0.5,0.2,0.9,0.5,1.4,0.7c0.9,0.4,1.7,0.7,2.2,0.9
				C142.2,221.4,142.5,221.6,142.5,221.6L142.5,221.6z"/>
		</g>
		<g>
			<path fill="#4858A0" d="M144,221.2c0,0-0.1,0-0.2,0.1c-0.2,0.1-0.4,0.2-0.7,0.2c-0.3,0.1-0.7,0.2-1.1,0.2c-0.4,0-1,0.1-1.5,0
				c-2.2-0.2-5-1.2-7.3-3.2c-0.6-0.5-1.1-1.1-1.5-1.7c-0.4-0.6-0.8-1.2-1.1-1.8c-0.6-1.2-1-2.5-1.1-3.6c-0.1-0.5-0.1-1-0.1-1.5
				c0-0.4,0-0.8,0.1-1.2c0-0.3,0.1-0.6,0.2-0.7c0.1-0.2,0.1-0.2,0.1-0.2s0,0.1,0.1,0.2c0,0.2,0.1,0.4,0.2,0.7c0.1,0.3,0.3,0.6,0.4,1
				c0.2,0.4,0.4,0.8,0.6,1.2c0.5,0.8,1.1,1.8,1.8,2.7c0.3,0.5,0.7,1,1.1,1.4c0.4,0.4,0.8,0.9,1.2,1.3c0.9,0.8,1.9,1.5,2.9,2.2
				c0.5,0.3,1,0.6,1.5,0.9c0.5,0.3,0.9,0.5,1.4,0.7c0.4,0.2,0.8,0.4,1.2,0.5c0.4,0.1,0.7,0.3,1,0.3c0.3,0.1,0.5,0.1,0.7,0.2
				C143.9,221.2,144,221.2,144,221.2L144,221.2z"/>
		</g>
	</g>
	<g>
		<circle fill="#5B6CB3" cx="164.2" cy="208.9" r="17.7"/>
	</g>
	<g>
		<circle fill="#5B6CB3" cx="147.3" cy="189.4" r="11.5"/>
		<g>
			<path fill="#5367B0" d="M149.1,200.7c0,0-0.1,0-0.2,0.1c-0.2,0-0.4,0.1-0.7,0.2c-0.6,0.1-1.5,0.3-2.6,0.2c-0.5,0-1.1-0.1-1.7-0.2
				c-0.6-0.1-1.3-0.3-1.9-0.6c-0.7-0.3-1.3-0.6-1.9-1.1c-0.6-0.4-1.2-1.1-1.7-1.7c-0.4-0.5-0.8-1.1-1.2-1.7
				c-0.4-0.6-0.7-1.2-0.9-1.9c-0.5-1.3-0.7-2.6-0.7-3.7c0.1-1.1,0.2-1.9,0.4-2.5c0.1-0.6,0.2-0.9,0.2-0.9s0.2,0.3,0.4,0.9
				c0.2,0.6,0.4,1.4,0.7,2.3c0.3,0.9,0.7,1.8,1.4,2.8c0.3,0.5,0.6,1,1,1.5c0.4,0.5,0.7,1,1.1,1.5c0.4,0.5,0.7,0.8,1.1,1.2
				c0.4,0.3,0.9,0.7,1.3,1c0.5,0.3,1,0.6,1.4,0.8c0.5,0.2,0.9,0.5,1.4,0.7c0.9,0.4,1.7,0.7,2.2,0.9
				C148.7,200.6,149.1,200.7,149.1,200.7L149.1,200.7z"/>
		</g>
		<g>
			<path fill="#4858A0" d="M150.5,200.4c0,0-0.1,0-0.2,0.1c-0.2,0.1-0.4,0.2-0.7,0.2c-0.3,0.1-0.7,0.2-1.2,0.2c-0.4,0-1,0.1-1.5,0
				c-2.2-0.2-5.1-1.2-7.4-3.3c-0.6-0.5-1.1-1.1-1.5-1.7c-0.4-0.6-0.8-1.2-1.1-1.9c-0.6-1.2-1-2.5-1.1-3.6c-0.1-0.5-0.1-1.1-0.1-1.5
				c0-0.4,0-0.8,0.1-1.2c0-0.3,0.1-0.6,0.2-0.7c0.1-0.2,0.1-0.2,0.1-0.2s0,0.1,0.1,0.2c0,0.2,0.1,0.4,0.2,0.7c0.1,0.3,0.3,0.6,0.4,1
				c0.2,0.4,0.4,0.8,0.6,1.2c0.5,0.9,1.1,1.8,1.8,2.8c0.3,0.5,0.7,1,1.1,1.4c0.4,0.4,0.8,0.9,1.2,1.3c0.9,0.8,1.9,1.6,2.9,2.2
				c0.5,0.3,1,0.6,1.5,0.9c0.5,0.3,0.9,0.5,1.4,0.7c0.4,0.2,0.9,0.4,1.2,0.5c0.4,0.1,0.7,0.3,1,0.3c0.3,0.1,0.5,0.1,0.7,0.2
				C150.5,200.4,150.5,200.4,150.5,200.4L150.5,200.4z"/>
		</g>
	</g>
	<g>
		<circle fill="#5B6CB3" cx="186.5" cy="205" r="16.9"/>
	</g>
	<g>
		<circle fill="#5B6CB3" cx="167.3" cy="221.3" r="11.4"/>
	</g>
	<path fill="none" stroke="#354A9F" stroke-width="2" stroke-linecap="round" stroke-linejoin="round" stroke-miterlimit="10" d="
		M70.6,48.8L54.9,64.5c-1.8,1.8-4.7,1.8-6.4,0L32.8,48.8v-32h37.9V48.8z"/>
	<path fill="none" stroke="#354A9F" stroke-width="2" stroke-linecap="round" stroke-linejoin="round" stroke-miterlimit="10" d="
		M51.7,70.9L40.3,82.3c-2.9,2.9,0.5,7.7,4.2,5.8l95.1-47.4c3.3-1.6,6.7,2.1,4.7,5.2l-32.4,38.6"/>
	
		<line fill="#F7941E" stroke="#354A9F" stroke-linecap="round" stroke-linejoin="round" stroke-miterlimit="10" x1="34.9" y1="25" x2="67.5" y2="25"/>
	<g>
		<path fill="#3F4B9F" d="M57.1,248.2c-3.2,0-5.8-2.6-5.8-5.8v-34.1c34.1-18.8,81.1,30.2,123.1,20.7v13.4c0,3.2-2.6,5.8-5.8,5.8
			H57.1z"/>
	</g>
	<path fill="none" stroke="#354A9F" stroke-width="2" stroke-linecap="round" stroke-linejoin="round" stroke-miterlimit="10" d="
		M121.7,183.7c-2.1,1.8-4.7,2.8-7.7,2.8c-3.1,0-5.9-1.2-8-3.1"/>
	
		<line fill="none" stroke="#354A9F" stroke-miterlimit="10" stroke-dasharray="12,1.5" x1="59.5" y1="118.6" x2="166.3" y2="118.6"/>
	<path fill="none" stroke="#354A9F" stroke-width="2" stroke-miterlimit="10" d="M57.1,248.2c-3.2,0-5.8-2.6-5.8-5.8V119.9
		c0-1.5,0.6-3,1.7-4.1l16.4-18.4c1.1-1.1,2.5-1.7,4.1-1.7h78.8c1.5,0,3,0.6,4.1,1.7l16.3,18.3c1.1,1.1,1.7,2.5,1.7,4.1v122.7
		c0,3.2-2.6,5.8-5.8,5.8L57.1,248.2z"/>
	<circle fill="#FFFFFF" cx="93.7" cy="154.4" r="2.2"/>
	<g>
		<path fill="#354A9F" stroke="#354A9F" stroke-width="2" stroke-miterlimit="10" d="M89.2,150.3c-5,0-9,4-9,9c0,0.2,0,0.5,0,0.7
			c5,0,9.2,3.5,10.3,8.2c4.3-0.7,7.6-4.4,7.6-8.9C98.1,154.3,94.1,150.3,89.2,150.3z"/>
		<path fill="#354A9F" stroke="#354A9F" stroke-width="2" stroke-miterlimit="10" d="M144.3,159.7c0-0.1,0-0.3,0-0.4c0-5-4-9-9-9
			c-5,0-9,4-9,9s4,9,9,9c0.8,0,1.6-0.1,2.4-0.3C138.3,164.2,140.8,161.1,144.3,159.7z"/>
	</g>
	<circle fill="#FFFFFF" cx="137.7" cy="154.4" r="2.2"/>
	<circle fill="#FFFFFF" cx="91.7" cy="154.4" r="2.2"/>
	<path fill="none" stroke="#354A9F" stroke-linecap="round" stroke-linejoin="round" stroke-miterlimit="10" d="M78,165.3
		c2,0.1,5.9,2.8,6.7,5.9"/>
	<g>
		<circle fill="#5B6CB3" cx="170.7" cy="185.2" r="13.1"/>
		<g>
			<path fill="#5367B0" d="M172.7,198.1c0,0-0.1,0-0.3,0.1c-0.2,0-0.4,0.1-0.8,0.2c-0.7,0.1-1.7,0.3-2.9,0.2c-0.6,0-1.3-0.1-2-0.3
				c-0.7-0.1-1.4-0.4-2.1-0.7c-0.7-0.3-1.5-0.7-2.2-1.2c-0.7-0.5-1.4-1.2-1.9-1.9c-0.4-0.6-0.9-1.3-1.3-2c-0.4-0.7-0.8-1.4-1.1-2.1
				c-0.6-1.4-0.8-3-0.8-4.2c0-1.2,0.2-2.2,0.3-2.9c0.1-0.7,0.2-1.1,0.2-1.1s0.2,0.4,0.4,1c0.2,0.7,0.4,1.6,0.8,2.7
				c0.3,1,0.8,2.1,1.5,3.3c0.3,0.6,0.7,1.1,1.1,1.7c0.4,0.6,0.8,1.1,1.3,1.7c0.4,0.5,0.8,0.9,1.3,1.4c0.5,0.4,1,0.8,1.6,1.1
				c0.6,0.3,1.1,0.6,1.7,0.9c0.5,0.3,1.1,0.5,1.6,0.7c1,0.4,1.9,0.7,2.6,0.9C172.3,197.9,172.7,198.1,172.7,198.1L172.7,198.1z"/>
		</g>
		<g>
			<path fill="#4858A0" d="M174.4,197.7c0,0-0.1,0-0.3,0.1c-0.2,0.1-0.4,0.2-0.8,0.2c-0.4,0.1-0.8,0.2-1.3,0.2c-0.5,0-1.1,0-1.7,0
				c-2.5-0.3-5.7-1.5-8.3-3.7c-0.7-0.6-1.2-1.2-1.7-1.9c-0.5-0.7-0.9-1.4-1.2-2.1c-0.7-1.4-1.1-2.8-1.3-4c-0.1-0.6-0.2-1.2-0.2-1.7
				c0-0.5,0-1,0.1-1.3c0-0.4,0.1-0.6,0.2-0.8c0.1-0.2,0.1-0.3,0.1-0.3s0,0.1,0.1,0.3c0,0.2,0.1,0.4,0.2,0.8c0.1,0.3,0.3,0.7,0.5,1.1
				c0.2,0.4,0.4,0.9,0.7,1.4c0.5,1,1.2,2.1,2,3.2c0.4,0.6,0.8,1.1,1.3,1.7c0.4,0.5,0.9,1.1,1.4,1.5c1,0.9,2.2,1.8,3.4,2.5
				c0.6,0.4,1.2,0.7,1.7,1c0.6,0.3,1.1,0.6,1.6,0.8c0.5,0.2,1,0.4,1.4,0.6c0.4,0.1,0.8,0.3,1.1,0.4c0.3,0.1,0.6,0.1,0.8,0.2
				C174.3,197.7,174.4,197.7,174.4,197.7L174.4,197.7z"/>
		</g>
	</g>
	<g>
		<circle fill="#5B6CB3" cx="194.6" cy="183.5" r="12.1"/>
		<g>
			<path fill="#5367B0" d="M196.5,195.4c0,0-0.1,0-0.3,0.1c-0.2,0-0.4,0.1-0.7,0.2c-0.6,0.1-1.6,0.3-2.7,0.2c-0.6,0-1.2-0.1-1.8-0.2
				c-0.6-0.1-1.3-0.3-2-0.6c-0.7-0.3-1.4-0.7-2-1.1c-0.7-0.5-1.3-1.1-1.8-1.8c-0.4-0.5-0.9-1.2-1.2-1.8c-0.4-0.6-0.7-1.3-1-2
				c-0.6-1.3-0.8-2.8-0.7-3.9c0-1.1,0.2-2,0.4-2.6c0.1-0.6,0.2-1,0.2-1s0.2,0.3,0.4,0.9c0.2,0.6,0.4,1.5,0.8,2.4c0.3,1,0.8,2,1.4,3
				c0.3,0.5,0.7,1,1,1.6c0.4,0.5,0.8,1,1.2,1.6c0.4,0.5,0.7,0.9,1.2,1.2c0.4,0.4,0.9,0.7,1.4,1c0.5,0.3,1,0.6,1.5,0.8
				c0.5,0.3,1,0.5,1.5,0.7c0.9,0.4,1.8,0.7,2.4,0.9C196.1,195.3,196.5,195.4,196.5,195.4L196.5,195.4z"/>
		</g>
		<g>
			<path fill="#4858A0" d="M198,195.1c0,0-0.1,0-0.3,0.1c-0.2,0.1-0.4,0.2-0.7,0.2c-0.3,0.1-0.7,0.2-1.2,0.2c-0.5,0-1,0-1.6,0
				c-2.3-0.2-5.3-1.3-7.7-3.4c-0.6-0.6-1.1-1.1-1.6-1.8c-0.5-0.6-0.8-1.3-1.2-1.9c-0.6-1.3-1-2.6-1.2-3.7c-0.1-0.6-0.1-1.1-0.1-1.6
				c0-0.5,0-0.9,0.1-1.2c0-0.3,0.1-0.6,0.2-0.8c0.1-0.2,0.1-0.3,0.1-0.3s0,0.1,0.1,0.3c0,0.2,0.1,0.4,0.2,0.7c0.1,0.3,0.3,0.6,0.4,1
				c0.2,0.4,0.4,0.8,0.7,1.3c0.5,0.9,1.1,1.9,1.9,2.9c0.4,0.5,0.8,1,1.2,1.5c0.4,0.4,0.8,1,1.3,1.4c0.9,0.8,2,1.6,3.1,2.3
				c0.5,0.3,1.1,0.7,1.6,0.9c0.5,0.3,1,0.5,1.5,0.8c0.5,0.2,0.9,0.4,1.3,0.6c0.4,0.1,0.8,0.3,1.1,0.3c0.3,0.1,0.6,0.1,0.7,0.2
				C197.9,195,198,195.1,198,195.1L198,195.1z"/>
		</g>
	</g>
	<g>
		<circle fill="#5B6CB3" cx="194" cy="240.4" r="13.4"/>
		<g>
			<path fill="#5367B0" d="M196.1,253.6c0,0-0.1,0-0.3,0.1c-0.2,0-0.5,0.1-0.8,0.2c-0.4,0.1-0.8,0.1-1.3,0.2c-0.5,0-1.1,0.1-1.7,0
				c-0.6,0-1.3-0.1-2-0.3c-0.7-0.1-1.4-0.4-2.2-0.7c-0.7-0.3-1.5-0.7-2.2-1.2c-0.7-0.5-1.4-1.2-1.9-1.9c-0.5-0.6-0.9-1.3-1.4-2
				c-0.4-0.7-0.8-1.4-1.1-2.2c-0.6-1.5-0.9-3-0.8-4.3c0-1.3,0.2-2.2,0.3-2.9c0.1-0.7,0.2-1.1,0.2-1.1s0.2,0.4,0.4,1.1
				c0.2,0.7,0.4,1.7,0.8,2.7c0.3,1.1,0.8,2.2,1.5,3.3c0.3,0.6,0.7,1.2,1.2,1.7c0.4,0.6,0.8,1.1,1.3,1.8c0.4,0.6,0.8,1,1.3,1.4
				c0.5,0.4,1,0.8,1.6,1.1c0.6,0.3,1.1,0.7,1.7,0.9c0.6,0.3,1.1,0.5,1.6,0.7c1.1,0.4,2,0.7,2.6,0.9
				C195.7,253.5,196.1,253.6,196.1,253.6L196.1,253.6z"/>
		</g>
		<g>
			<path fill="#4858A0" d="M197.8,253.3c0,0-0.1,0-0.3,0.1c-0.2,0.1-0.4,0.2-0.8,0.2c-0.4,0.1-0.8,0.2-1.3,0.2c-0.5,0-1.1,0-1.7-0.1
				c-1.3-0.1-2.7-0.5-4.2-1.1c-0.7-0.3-1.5-0.7-2.2-1.1c-0.7-0.5-1.4-1-2.1-1.6c-0.7-0.6-1.2-1.2-1.8-2c-0.5-0.7-0.9-1.4-1.3-2.1
				c-0.4-0.7-0.6-1.4-0.9-2.1c-0.2-0.7-0.4-1.4-0.5-2c-0.1-0.6-0.2-1.2-0.2-1.7c0-0.5,0-1,0.1-1.3c0-0.4,0.1-0.6,0.2-0.8
				c0.1-0.2,0.1-0.3,0.1-0.3s0,0.1,0.1,0.3c0,0.2,0.1,0.5,0.2,0.8c0.1,0.3,0.3,0.7,0.5,1.1c0.1,0.2,0.2,0.4,0.3,0.7
				c0.1,0.2,0.2,0.5,0.4,0.7c0.6,1,1.2,2.1,2,3.3c0.4,0.6,0.8,1.2,1.3,1.7c0.4,0.5,0.9,1.1,1.4,1.5c1.1,0.9,2.3,1.8,3.5,2.6
				c0.6,0.4,1.2,0.7,1.8,1c0.6,0.3,1.1,0.6,1.6,0.8c0.5,0.2,1,0.4,1.5,0.6c0.5,0.1,0.8,0.3,1.2,0.4c0.3,0.1,0.6,0.1,0.8,0.2
				C197.7,253.2,197.8,253.3,197.8,253.3L197.8,253.3z"/>
		</g>
	</g>
	<g>
		<circle fill="#5B6CB3" cx="152.1" cy="231.7" r="13.2"/>
		<g>
			<path fill="#5367B0" d="M154.2,244.7c0,0-0.1,0-0.3,0.1c-0.2,0-0.4,0.1-0.8,0.2c-0.7,0.1-1.7,0.2-2.9,0.2c-0.6,0-1.3-0.1-2-0.3
				c-0.7-0.1-1.4-0.4-2.2-0.7c-0.7-0.3-1.5-0.7-2.2-1.2c-0.7-0.5-1.4-1.2-1.9-1.9c-0.5-0.6-0.9-1.3-1.4-2c-0.4-0.7-0.8-1.4-1.1-2.2
				c-0.6-1.5-0.9-3-0.8-4.2c0-1.2,0.2-2.2,0.3-2.9c0.1-0.7,0.2-1.1,0.2-1.1s0.2,0.4,0.4,1c0.2,0.7,0.4,1.6,0.8,2.7
				c0.3,1.1,0.8,2.2,1.5,3.3c0.3,0.6,0.7,1.1,1.1,1.7c0.4,0.6,0.8,1.1,1.3,1.8c0.4,0.6,0.8,1,1.3,1.4c0.5,0.4,1,0.8,1.6,1.1
				c0.6,0.3,1.1,0.6,1.7,0.9c0.6,0.3,1.1,0.5,1.6,0.7c1,0.4,2,0.7,2.6,1C153.8,244.6,154.2,244.7,154.2,244.7L154.2,244.7z"/>
		</g>
		<g>
			<path fill="#4858A0" d="M155.9,244.4c0,0-0.1,0-0.3,0.1c-0.2,0.1-0.4,0.2-0.8,0.2c-0.4,0.1-0.8,0.2-1.3,0.2c-0.5,0-1.1,0-1.7-0.1
				c-1.3-0.1-2.7-0.5-4.2-1.1c-0.7-0.3-1.4-0.7-2.2-1.1c-0.7-0.4-1.4-0.9-2.1-1.5c-0.7-0.6-1.2-1.2-1.7-2c-0.5-0.7-0.9-1.4-1.3-2.1
				c-0.4-0.7-0.6-1.4-0.9-2.1c-0.2-0.7-0.4-1.3-0.5-2c-0.1-0.6-0.2-1.2-0.2-1.7c0-0.5,0-1,0.1-1.3c0-0.4,0.1-0.6,0.2-0.8
				c0.1-0.2,0.1-0.3,0.1-0.3s0,0.1,0.1,0.3c0,0.2,0.1,0.4,0.2,0.8c0.1,0.3,0.3,0.7,0.5,1.1c0.1,0.2,0.2,0.4,0.3,0.7
				c0.1,0.2,0.2,0.5,0.4,0.7c0.6,1,1.2,2.1,2,3.3c0.4,0.6,0.8,1.1,1.3,1.7c0.4,0.5,0.9,1.1,1.4,1.5c1,0.9,2.2,1.8,3.4,2.6
				c0.6,0.4,1.2,0.7,1.7,1c0.6,0.3,1.1,0.6,1.6,0.8c0.5,0.2,1,0.4,1.4,0.6c0.4,0.1,0.8,0.3,1.2,0.4c0.3,0.1,0.6,0.1,0.8,0.2
				C155.8,244.3,155.9,244.4,155.9,244.4L155.9,244.4z"/>
		</g>
	</g>
	<g>
		<circle fill="#5B6CB3" cx="175.9" cy="226.8" r="13.2"/>
	</g>
	<g>
		<circle fill="#5B6CB3" cx="181" cy="218.5" r="13.2"/>
	</g>
	<g>
		<circle fill="#5B6CB3" cx="176.9" cy="204.2" r="13.2"/>
	</g>
	<g>
		<circle fill="#5B6CB3" cx="202.9" cy="224.9" r="13.2"/>
		<g>
			<path fill="#5367B0" d="M204.9,238c0,0-0.1,0-0.3,0.1c-0.2,0-0.4,0.1-0.8,0.2c-0.7,0.1-1.7,0.2-2.9,0.2c-0.6,0-1.3-0.1-2-0.3
				c-0.7-0.1-1.4-0.4-2.2-0.7c-0.7-0.3-1.5-0.7-2.2-1.2c-0.7-0.5-1.4-1.2-1.9-1.9c-0.5-0.6-0.9-1.3-1.4-2c-0.4-0.7-0.8-1.4-1.1-2.2
				c-0.6-1.5-0.9-3-0.8-4.2c0-1.2,0.2-2.2,0.3-2.9c0.1-0.7,0.2-1.1,0.2-1.1s0.2,0.4,0.4,1c0.2,0.7,0.4,1.6,0.8,2.7
				c0.3,1.1,0.8,2.2,1.5,3.3c0.3,0.6,0.7,1.1,1.1,1.7c0.4,0.6,0.8,1.1,1.3,1.8c0.4,0.6,0.8,1,1.3,1.4c0.5,0.4,1,0.8,1.6,1.1
				c0.6,0.3,1.1,0.6,1.7,0.9c0.6,0.3,1.1,0.5,1.6,0.7c1,0.4,2,0.7,2.6,1C204.6,237.9,204.9,238,204.9,238L204.9,238z"/>
		</g>
		<g>
			<path fill="#4858A0" d="M206.6,237.6c0,0-0.1,0-0.3,0.1c-0.2,0.1-0.4,0.2-0.8,0.2c-0.4,0.1-0.8,0.2-1.3,0.2c-0.5,0-1.1,0-1.7-0.1
				c-1.3-0.1-2.7-0.5-4.2-1.1c-0.7-0.3-1.4-0.7-2.2-1.1c-0.7-0.4-1.4-0.9-2.1-1.5c-0.7-0.6-1.2-1.2-1.7-2c-0.5-0.7-0.9-1.4-1.3-2.1
				c-0.4-0.7-0.6-1.4-0.9-2.1c-0.2-0.7-0.4-1.3-0.5-2c-0.1-0.6-0.2-1.2-0.2-1.7c0-0.5,0-1,0.1-1.3c0-0.4,0.1-0.6,0.2-0.8
				c0.1-0.2,0.1-0.3,0.1-0.3s0,0.1,0.1,0.3c0,0.2,0.1,0.4,0.2,0.8c0.1,0.3,0.3,0.7,0.5,1.1c0.1,0.2,0.2,0.4,0.3,0.7
				c0.1,0.2,0.2,0.5,0.4,0.7c0.6,1,1.2,2.1,2,3.3c0.4,0.6,0.8,1.1,1.3,1.7c0.4,0.5,0.9,1.1,1.4,1.5c1,0.9,2.2,1.8,3.4,2.6
				c0.6,0.4,1.2,0.7,1.7,1c0.6,0.3,1.1,0.6,1.6,0.8c0.5,0.2,1,0.4,1.4,0.6c0.4,0.1,0.8,0.3,1.2,0.4c0.3,0.1,0.6,0.1,0.8,0.2
				C206.5,237.6,206.6,237.6,206.6,237.6L206.6,237.6z"/>
		</g>
	</g>
	<g>
		<path fill="#354A9F" d="M196.3,207.5c0-0.1,0-0.2,0-0.3c0-3.2-2.6-5.7-5.7-5.7c-3.2,0-5.7,2.6-5.7,5.7c0,3.2,2.6,5.7,5.7,5.7
			c0.5,0,1-0.1,1.5-0.2C192.5,210.4,194.1,208.4,196.3,207.5z"/>
		<path fill="#354A9F" d="M161.2,201.5c-3.2,0-5.7,2.6-5.7,5.7c0,0.1,0,0.3,0,0.4c3.2,0,5.8,2.2,6.6,5.2c2.8-0.4,4.9-2.8,4.9-5.6
			C166.9,204.1,164.3,201.5,161.2,201.5z"/>
	</g>
	<circle fill="#FFFFFF" cx="162.8" cy="204.2" r="1.4"/>
	<circle fill="#FFFFFF" cx="191.9" cy="204.2" r="1.4"/>
	<g>
		<circle fill="#5B6CB3" cx="208.3" cy="201.5" r="11.4"/>
		<g>
			<path fill="#5367B0" d="M210,212.7c0,0-0.3,0.1-0.9,0.3c-0.6,0.1-1.5,0.3-2.6,0.2c-0.5,0-1.1-0.1-1.7-0.2
				c-0.6-0.1-1.2-0.3-1.9-0.6c-0.6-0.3-1.3-0.6-1.9-1.1c-0.6-0.4-1.2-1.1-1.7-1.7c-0.4-0.5-0.8-1.1-1.2-1.7
				c-0.3-0.6-0.7-1.2-0.9-1.9c-0.5-1.3-0.7-2.6-0.7-3.7c0.1-1.1,0.2-1.9,0.4-2.5c0.1-0.6,0.2-0.9,0.2-0.9s0.2,0.3,0.4,0.9
				c0.2,0.6,0.4,1.4,0.7,2.3c0.3,0.9,0.7,1.8,1.3,2.8c0.3,0.5,0.6,1,1,1.5c0.4,0.5,0.7,1,1.1,1.5c0.4,0.5,0.7,0.8,1.1,1.2
				c0.4,0.3,0.9,0.7,1.3,1c0.5,0.3,0.9,0.6,1.4,0.8c0.5,0.2,0.9,0.5,1.4,0.7c0.9,0.4,1.7,0.7,2.2,0.9
				C209.7,212.6,210,212.7,210,212.7L210,212.7z"/>
		</g>
		<g>
			<path fill="#4858A0" d="M211.5,212.4c0,0-0.1,0-0.2,0.1c-0.2,0.1-0.4,0.2-0.7,0.2c-0.3,0.1-0.7,0.2-1.1,0.2c-0.4,0-1,0.1-1.5,0
				c-2.2-0.2-5-1.2-7.3-3.2c-0.6-0.5-1.1-1.1-1.5-1.7c-0.4-0.6-0.8-1.2-1.1-1.8c-0.6-1.2-1-2.5-1.1-3.6c-0.1-0.5-0.1-1-0.1-1.5
				c0-0.4,0-0.8,0.1-1.2c0-0.3,0.1-0.6,0.2-0.7c0.1-0.2,0.1-0.2,0.1-0.2s0,0.1,0.1,0.2c0,0.2,0.1,0.4,0.2,0.7c0.1,0.3,0.3,0.6,0.4,1
				c0.2,0.4,0.4,0.8,0.6,1.2c0.5,0.8,1.1,1.8,1.8,2.7c0.3,0.5,0.7,1,1.1,1.4c0.4,0.4,0.8,0.9,1.2,1.3c0.9,0.8,1.9,1.5,2.9,2.2
				c0.5,0.3,1,0.6,1.5,0.9c0.5,0.3,0.9,0.5,1.4,0.7c0.4,0.2,0.8,0.4,1.2,0.5c0.4,0.1,0.7,0.3,1,0.3c0.3,0.1,0.5,0.1,0.7,0.2
				C211.4,212.4,211.5,212.4,211.5,212.4L211.5,212.4z"/>
		</g>
	</g>
	<path fill="none" stroke="#354A9F" stroke-linecap="round" stroke-linejoin="round" stroke-miterlimit="10" d="M208.7,213
		c6-0.3,10.8-5.3,10.8-11.4c0-6.3-5.1-11.4-11.4-11.4c-1.3,0-2.6,0.2-3.8,0.7c1.7-2.1,2.7-4.7,2.7-7.6c0-6.7-5.5-12.2-12.2-12.2
		c-5.6,0-10.4,3.8-11.8,9c0,0,0,0,0,0c-2-4.7-6.6-8-12.1-8c-6.7,0-12.2,5-13,11.5c-0.1,0.5-0.4,0.8-0.6,0.4
		c-1.9-3.8-5.8-6.3-10.2-6.3c-6.3,0-11.5,5.1-11.5,11.5c0,4.1,2.1,7.7,5.4,9.7c-0.1,0-0.1,0-0.2,0c-6.3,0-11.4,5.1-11.4,11.4
		c0,6.3,5.1,11.4,11.4,11.4c1.3,0,2.5-0.2,3.7-0.6c-3.3,2.4-5.5,6.3-5.5,10.7c0,7.2,5.9,13.1,13.1,13.1c0.8,0,1.5-0.1,2.3-0.2
		c0.2,7.3,6.2,13.2,13.6,13.2c7.1,0,12.9-5.5,13.5-12.4c2,5,6.9,8.6,12.6,8.6c7.5,0,13.6-6.1,13.6-13.6c0-1.1-0.1-2.1-0.4-3.2
		c5.2-1.7,8.9-6.6,8.9-12.4C216.2,219.6,213.1,215.1,208.7,213z"/>
	<g>
		<circle fill="#5B6CB3" cx="168" cy="244.2" r="13.6"/>
		<g>
			<path fill="#5367B0" d="M170.1,257.7c0,0-0.1,0-0.3,0.1c-0.2,0-0.5,0.1-0.8,0.2c-0.4,0.1-0.8,0.1-1.3,0.2c-0.5,0-1.1,0-1.7,0
				c-0.6,0-1.3-0.1-2-0.3c-0.7-0.2-1.5-0.4-2.2-0.7c-0.8-0.3-1.5-0.7-2.2-1.3c-0.7-0.5-1.4-1.2-2-2c-0.5-0.6-1-1.3-1.4-2.1
				c-0.4-0.7-0.8-1.4-1.1-2.2c-0.6-1.5-0.9-3.1-0.9-4.3c0-1.3,0.2-2.3,0.3-3c0.1-0.7,0.2-1.1,0.2-1.1s0.2,0.4,0.4,1.1
				c0.2,0.7,0.4,1.7,0.8,2.8c0.3,1.1,0.8,2.2,1.6,3.4c0.3,0.6,0.7,1.2,1.2,1.8c0.4,0.6,0.9,1.2,1.4,1.8c0.4,0.6,0.8,1,1.4,1.4
				c0.5,0.4,1.1,0.8,1.6,1.2c0.6,0.3,1.2,0.7,1.7,0.9c0.6,0.3,1.1,0.5,1.7,0.7c1.1,0.4,2,0.7,2.7,1
				C169.7,257.5,170.1,257.7,170.1,257.7L170.1,257.7z"/>
		</g>
		<g>
			<path fill="#4858A0" d="M171.9,257.3c0,0-0.1,0-0.3,0.1c-0.2,0.1-0.4,0.2-0.8,0.2c-0.4,0.1-0.8,0.2-1.4,0.2c-0.5,0-1.1,0-1.8-0.1
				c-1.3-0.1-2.8-0.5-4.3-1.2c-0.7-0.3-1.5-0.7-2.2-1.2c-0.7-0.5-1.4-1-2.1-1.6c-0.7-0.6-1.2-1.3-1.8-2c-0.5-0.7-0.9-1.4-1.3-2.2
				c-0.4-0.7-0.7-1.5-0.9-2.2c-0.2-0.7-0.4-1.4-0.5-2c-0.1-0.6-0.2-1.2-0.2-1.8c0-0.5,0-1,0.1-1.4c0-0.4,0.1-0.7,0.2-0.9
				c0.1-0.2,0.1-0.3,0.1-0.3s0,0.1,0.1,0.3c0,0.2,0.1,0.5,0.2,0.8c0.1,0.3,0.3,0.7,0.5,1.2c0.1,0.2,0.2,0.5,0.3,0.7
				c0.1,0.2,0.2,0.5,0.4,0.8c0.6,1,1.3,2.2,2.1,3.4c0.4,0.6,0.8,1.2,1.3,1.7c0.4,0.5,1,1.1,1.5,1.6c1.1,1,2.3,1.9,3.5,2.6
				c0.6,0.4,1.2,0.7,1.8,1c0.6,0.3,1.1,0.6,1.7,0.8c0.5,0.2,1,0.4,1.5,0.6c0.5,0.1,0.9,0.3,1.2,0.4c0.3,0.1,0.6,0.1,0.8,0.2
				C171.8,257.2,171.9,257.3,171.9,257.3L171.9,257.3z"/>
		</g>
	</g>
	<g>
		<circle fill="#5B6CB3" cx="167.8" cy="228.8" r="13.6"/>
		<g>
			<path fill="#5367B0" d="M169.9,242.2c0,0-0.1,0-0.3,0.1c-0.2,0-0.5,0.1-0.8,0.2c-0.4,0.1-0.8,0.1-1.3,0.2c-0.5,0-1.1,0-1.7,0
				c-0.6,0-1.3-0.1-2-0.3c-0.7-0.2-1.5-0.4-2.2-0.7c-0.8-0.3-1.5-0.7-2.2-1.3c-0.7-0.5-1.4-1.2-2-2c-0.5-0.6-1-1.3-1.4-2.1
				c-0.4-0.7-0.8-1.4-1.1-2.2c-0.6-1.5-0.9-3.1-0.9-4.3c0-1.3,0.2-2.3,0.3-3c0.1-0.7,0.2-1.1,0.2-1.1s0.2,0.4,0.4,1.1
				c0.2,0.7,0.4,1.7,0.8,2.8c0.3,1.1,0.8,2.2,1.6,3.4c0.3,0.6,0.7,1.2,1.2,1.8c0.4,0.6,0.9,1.2,1.4,1.8c0.4,0.6,0.8,1,1.4,1.4
				c0.5,0.4,1.1,0.8,1.6,1.2c0.6,0.3,1.2,0.7,1.7,0.9c0.6,0.3,1.1,0.5,1.7,0.7c1.1,0.4,2,0.7,2.7,1
				C169.5,242.1,169.9,242.2,169.9,242.2L169.9,242.2z"/>
		</g>
		<g>
			<path fill="#4858A0" d="M171.6,241.8c0,0-0.1,0-0.3,0.1c-0.2,0.1-0.4,0.2-0.8,0.2c-0.4,0.1-0.8,0.2-1.4,0.2c-0.5,0-1.1,0-1.8-0.1
				c-1.3-0.1-2.8-0.5-4.3-1.2c-0.7-0.3-1.5-0.7-2.2-1.2c-0.7-0.5-1.4-1-2.1-1.6c-0.7-0.6-1.2-1.3-1.8-2c-0.5-0.7-0.9-1.4-1.3-2.2
				c-0.4-0.7-0.7-1.5-0.9-2.2c-0.2-0.7-0.4-1.4-0.5-2c-0.1-0.6-0.2-1.2-0.2-1.8c0-0.5,0-1,0.1-1.4c0-0.4,0.1-0.7,0.2-0.9
				c0.1-0.2,0.1-0.3,0.1-0.3s0,0.1,0.1,0.3c0,0.2,0.1,0.5,0.2,0.8c0.1,0.3,0.3,0.7,0.5,1.2c0.1,0.2,0.2,0.5,0.3,0.7
				c0.1,0.2,0.2,0.5,0.4,0.8c0.6,1,1.3,2.2,2.1,3.4c0.4,0.6,0.8,1.2,1.3,1.7c0.4,0.5,1,1.1,1.5,1.6c1.1,1,2.3,1.9,3.5,2.6
				c0.6,0.4,1.2,0.7,1.8,1c0.6,0.3,1.1,0.6,1.7,0.8c0.5,0.2,1,0.4,1.5,0.6c0.5,0.1,0.9,0.3,1.2,0.4c0.3,0.1,0.6,0.1,0.8,0.2
				C171.5,241.8,171.6,241.8,171.6,241.8L171.6,241.8z"/>
		</g>
	</g>
	<path fill="none" stroke="#354A9F" stroke-linecap="round" stroke-linejoin="round" stroke-miterlimit="10" d="M181.9,222.8
		c-1.3,1.1-3,1.8-4.9,1.8c-2,0-3.8-0.8-5.1-2"/>
</g>
</svg>
