<?xml version="1.0" encoding="utf-8"?>
<!-- Generator: Adobe Illustrator 18.1.1, SVG Export Plug-In . SVG Version: 6.00 Build 0)  -->
<svg version="1.1" id="Layer_1" xmlns="http://www.w3.org/2000/svg" xmlns:xlink="http://www.w3.org/1999/xlink" x="0px" y="0px"
	 viewBox="0 0 240.1 280.2" enable-background="new 0 0 240.1 280.2" xml:space="preserve">
<ellipse fill="#8ACDE4" cx="179" cy="255.7" rx="20.4" ry="2"/>
<path fill="none" stroke="#27AAE1" stroke-width="2" stroke-linecap="round" stroke-linejoin="round" stroke-miterlimit="10" d="
	M71.3,48.8L55.6,64.5c-1.8,1.8-4.7,1.8-6.4,0L33.5,48.8v-32h37.9V48.8z"/>
<path fill="none" stroke="#27AAE1" stroke-width="2" stroke-linecap="round" stroke-linejoin="round" stroke-miterlimit="10" d="
	M52.4,70.9L40.9,82.3c-2.9,2.9,0.5,7.7,4.2,5.8l95.1-47.4c3.3-1.6,6.7,2.1,4.7,5.2l-32.4,38.6"/>
<line fill="#F7941E" stroke="#8ACDE4" stroke-linecap="round" stroke-linejoin="round" stroke-miterlimit="10" x1="35.6" y1="25" x2="68.2" y2="25"/>
<g>
	<path fill="#8ACDE4" d="M57.8,242.2c-3.2,0-5.8-2.6-5.8-5.8v-34.1c34.1-18.8,81.1,30.2,123.1,20.7v13.4c0,3.2-2.6,5.8-5.8,5.8H57.8
		z"/>
</g>
<path fill="none" stroke="#6B5C59" stroke-width="2" stroke-linecap="round" stroke-linejoin="round" stroke-miterlimit="10" d="
	M122.4,177.7c-2.1,1.8-4.7,2.8-7.7,2.8c-3.1,0-5.9-1.2-8-3.1"/>
<line fill="none" stroke="#8ACDE4" stroke-miterlimit="10" stroke-dasharray="12,1.5" x1="60.2" y1="112.6" x2="167" y2="112.6"/>
<path fill="none" stroke="#0D98C9" stroke-width="2" stroke-miterlimit="10" d="M57.8,242.2c-3.2,0-5.8-2.6-5.8-5.8V113.9
	c0-1.5,0.6-3,1.7-4.1l16.4-18.4c1.1-1.1,2.5-1.7,4.1-1.7H153c1.5,0,3,0.6,4.1,1.7l16.3,18.3c1.1,1.1,1.7,2.5,1.7,4.1v122.7
	c0,3.2-2.6,5.8-5.8,5.8L57.8,242.2z"/>
<circle fill="#FFFFFF" cx="94.4" cy="148.4" r="2.2"/>
<g>
	
		<path fill="#786555" stroke="#786555" stroke-width="2" stroke-linecap="round" stroke-linejoin="round" stroke-miterlimit="10" d="
		M89.8,144.3c-5,0-9,4-9,9c0,0.2,0,0.5,0,0.7c5,0,9.2,3.5,10.3,8.2c4.3-0.7,7.6-4.4,7.6-8.9C98.8,148.3,94.8,144.3,89.8,144.3z"/>
	
		<path fill="#786555" stroke="#786555" stroke-width="2" stroke-linecap="round" stroke-linejoin="round" stroke-miterlimit="10" d="
		M145,153.7c0-0.1,0-0.3,0-0.4c0-5-4-9-9-9c-5,0-9,4-9,9s4,9,9,9c0.8,0,1.6-0.1,2.4-0.3C139,158.2,141.5,155.1,145,153.7z"/>
</g>
<circle fill="#FFFFFF" cx="138.4" cy="148.4" r="2.2"/>
<circle fill="#FFFFFF" cx="92.4" cy="148.4" r="2.2"/>
<path fill="none" stroke="#CCC9C6" stroke-linecap="round" stroke-linejoin="round" stroke-miterlimit="10" d="M79.1,159.3
	c2,0.1,5.9,2.8,6.7,5.9"/>
<polygon fill="#27AAE1" stroke="#8ACDE4" stroke-width="2" stroke-linecap="round" stroke-linejoin="round" stroke-miterlimit="10" points="
	192.5,175.7 191.6,173.7 192.2,173.4 196.8,169.9 192.2,166.5 191.6,162 184.5,161.6 179,158.7 173.5,161.6 166.4,162 165.7,166.5 
	161.2,169.9 165.7,173.4 166.4,173.7 165.6,175.5 "/>
<circle fill="#8ACDE4" stroke="#27AAE1" stroke-width="2" stroke-linecap="round" stroke-linejoin="round" stroke-miterlimit="10" cx="179" cy="210.9" r="43.7"/>
<path fill="#8ACDE4" stroke="#27AAE1" stroke-width="2" stroke-linecap="round" stroke-linejoin="round" stroke-miterlimit="10" d="
	M186.9,224.4c-2.1,1.8-4.7,2.8-7.7,2.8c-3.1,0-5.9-1.2-8-3.1"/>
<path fill="#8ACDE4" stroke="#27AAE1" stroke-width="2" stroke-linecap="round" stroke-linejoin="round" stroke-miterlimit="10" d="
	M154.8,206.8c0-4.5,3.6-8.1,8.1-8.1c4.5,0,8.1,3.6,8.1,8.1"/>
<path fill="#8ACDE4" stroke="#27AAE1" stroke-width="2" stroke-linecap="round" stroke-linejoin="round" stroke-miterlimit="10" d="
	M186.9,206.8c0-4.5,3.6-8.1,8.1-8.1c4.5,0,8.1,3.6,8.1,8.1"/>
<g>
	<path fill="#6DC9E2" d="M181.7,252.8c0,0-0.3,0-0.8,0.1c-0.5,0-1.3,0.2-2.2,0.3c-0.5,0-1,0.1-1.6,0.1c-0.6,0-1.2,0-1.9,0
		c-1.4-0.1-2.9-0.2-4.6-0.5c-1.7-0.3-3.5-0.7-5.4-1.4c-0.9-0.3-1.9-0.7-2.8-1.1c-1-0.4-1.9-0.9-2.9-1.4c-1.9-1-3.8-2.2-5.6-3.5
		c-0.9-0.7-1.8-1.4-2.7-2.1c-0.9-0.8-1.7-1.5-2.5-2.4l-0.6-0.6l-0.6-0.7c-0.4-0.4-0.7-0.8-1.1-1.3l-1.1-1.4c-0.3-0.5-0.7-0.9-1-1.4
		c-1.3-1.9-2.4-3.8-3.3-5.7c-0.5-1-0.9-1.9-1.3-2.9c-0.4-1-0.7-1.9-1-2.8c-0.6-1.9-1-3.7-1.3-5.4c-0.1-0.8-0.2-1.7-0.3-2.4
		c-0.1-0.8-0.1-1.5-0.2-2.2c-0.1-1.4,0-2.6,0.1-3.6c0-1,0.2-1.7,0.3-2.3c0.1-0.5,0.1-0.8,0.1-0.8s0.1,0.3,0.2,0.8
		c0.1,0.5,0.3,1.2,0.5,2.2c0.2,0.9,0.6,2,0.9,3.3c0.4,1.3,0.9,2.6,1.5,4.1c0.3,0.7,0.6,1.5,1,2.3c0.3,0.8,0.7,1.6,1.1,2.4
		c0.8,1.6,1.7,3.3,2.7,5c1,1.7,2.2,3.3,3.4,5l0.9,1.2l0.9,1.1c0.3,0.4,0.7,0.8,1.1,1.2l0.5,0.6l0.5,0.6c1.4,1.5,3,2.9,4.5,4.2
		c1.6,1.3,3.2,2.5,4.8,3.6c1.6,1.1,3.3,2,4.9,2.8c0.8,0.4,1.6,0.8,2.4,1.1c0.8,0.3,1.5,0.7,2.3,1c1.5,0.6,2.9,1.1,4.1,1.4
		c0.6,0.2,1.2,0.3,1.8,0.5c0.6,0.1,1.1,0.3,1.5,0.4c0.9,0.2,1.7,0.4,2.2,0.5C181.4,252.8,181.7,252.8,181.7,252.8z"/>
</g>
<g>
	<path fill="#7FD1E7" d="M186.3,252.8c0,0-0.3,0-0.8,0.1c-0.5,0.1-1.4,0.2-2.4,0.2c-1,0-2.3,0.1-3.7-0.1c-1.4-0.1-3.1-0.4-4.8-0.8
		c-1.7-0.4-3.6-1-5.5-1.7c-1.9-0.7-3.9-1.7-5.8-2.8c-3.9-2.2-7.8-5-11.2-8.5c-0.4-0.4-0.9-0.9-1.3-1.3l-1.2-1.3
		c-0.8-0.9-1.5-1.8-2.3-2.7c-1.5-1.8-2.8-3.7-4-5.6c-1.2-1.9-2.2-3.8-3.1-5.7c-0.9-1.9-1.6-3.7-2.1-5.4c-1-3.4-1.3-6.5-1.3-8.5
		c0-1,0.1-1.8,0.2-2.4c0.1-0.5,0.1-0.8,0.1-0.8s0.1,0.3,0.2,0.8c0.1,0.5,0.3,1.3,0.6,2.3c0.3,1,0.7,2.1,1.2,3.4
		c0.5,1.3,1.2,2.7,2,4.1c0.8,1.5,1.7,3,2.7,4.6c1,1.6,2.2,3.3,3.4,4.9c1.2,1.7,2.6,3.3,4,5c0.7,0.8,1.5,1.7,2.2,2.5l1.1,1.2l1.1,1.2
		c1.5,1.6,3.2,3,4.8,4.4c1.7,1.4,3.4,2.7,5.1,3.8c3.4,2.3,6.8,4.2,9.9,5.6c1.5,0.7,3,1.3,4.3,1.7c1.3,0.4,2.5,0.8,3.4,1
		c1,0.2,1.7,0.4,2.3,0.5C186,252.8,186.3,252.8,186.3,252.8z"/>
</g>
</svg>
