<?xml version="1.0" encoding="utf-8"?>
<!-- Generator: Adobe Illustrator 18.1.1, SVG Export Plug-In . SVG Version: 6.00 Build 0)  -->
<svg version="1.1" id="Layer_1" xmlns="http://www.w3.org/2000/svg" xmlns:xlink="http://www.w3.org/1999/xlink" x="0px" y="0px"
	 viewBox="0 0 188.2 257.6" enable-background="new 0 0 188.2 257.6" xml:space="preserve">
<path fill="none" stroke="#DFD2BF" stroke-width="2" stroke-linecap="round" stroke-linejoin="round" stroke-miterlimit="10" d="
	M60.7,47.2L45,62.9c-1.8,1.8-4.7,1.8-6.4,0L22.9,47.2v-32h37.9V47.2z"/>
<path fill="none" stroke="#C2B59B" stroke-width="2" stroke-linecap="round" stroke-linejoin="round" stroke-miterlimit="10" d="
	M41.8,69.3L30.4,80.7c-2.9,2.9,0.5,7.7,4.2,5.8l95.1-47.4c3.3-1.6,6.7,2.1,4.7,5.2L102,83"/>
<line fill="none" stroke="#C2B59B" stroke-linecap="round" stroke-linejoin="round" stroke-miterlimit="10" x1="25" y1="23.4" x2="57.6" y2="23.4"/>
<g>
	<path fill="#DFD2BF" d="M47.2,240.6c-3.2,0-5.8-2.6-5.8-5.8v-34.1c34.1-18.8,81.1,30.2,123.1,20.7v13.4c0,3.2-2.6,5.8-5.8,5.8H47.2
		z"/>
</g>
<path fill="none" stroke="#6B5C59" stroke-width="2" stroke-linecap="round" stroke-linejoin="round" stroke-miterlimit="10" d="
	M111.8,176.1c-2.1,1.8-4.7,2.8-7.7,2.8c-3.1,0-5.9-1.2-8-3.1"/>
<line fill="none" stroke="#C2B59B" stroke-miterlimit="10" stroke-dasharray="12,1.5" x1="49.6" y1="111" x2="156.4" y2="111"/>
<path fill="none" stroke="#C2B59B" stroke-width="2" stroke-miterlimit="10" d="M47.2,240.6c-3.2,0-5.8-2.6-5.8-5.8V112.3
	c0-1.5,0.6-3,1.7-4.1l16.4-18.4c1.1-1.1,2.5-1.7,4.1-1.7h78.8c1.5,0,3,0.6,4.1,1.7l16.3,18.3c1.1,1.1,1.7,2.5,1.7,4.1v122.7
	c0,3.2-2.6,5.8-5.8,5.8L47.2,240.6z"/>
<circle fill="#FFFFFF" cx="83.8" cy="146.9" r="2.2"/>
<g>
	
		<path fill="#786555" stroke="#786555" stroke-width="2" stroke-linecap="round" stroke-linejoin="round" stroke-miterlimit="10" d="
		M79.2,142.7c-5,0-9,4-9,9c0,0.2,0,0.5,0,0.7c5,0,9.2,3.5,10.3,8.2c4.3-0.7,7.6-4.4,7.6-8.9C88.2,146.7,84.2,142.7,79.2,142.7z"/>
	
		<path fill="#786555" stroke="#786555" stroke-width="2" stroke-linecap="round" stroke-linejoin="round" stroke-miterlimit="10" d="
		M134.4,152.1c0-0.1,0-0.3,0-0.4c0-5-4-9-9-9c-5,0-9,4-9,9s4,9,9,9c0.8,0,1.6-0.1,2.4-0.3C128.4,156.6,130.9,153.5,134.4,152.1z"/>
</g>
<circle fill="#FFFFFF" cx="127.8" cy="146.9" r="2.2"/>
<circle fill="#FFFFFF" cx="81.8" cy="146.9" r="2.2"/>
<path fill="none" stroke="#CCC9C6" stroke-linecap="round" stroke-linejoin="round" stroke-miterlimit="10" d="M67.6,157.8
	c2,0.1,5.9,2.8,6.7,5.9"/>
</svg>
