<?xml version="1.0" encoding="utf-8"?>
<!-- Generator: Adobe Illustrator 18.1.1, SVG Export Plug-In . SVG Version: 6.00 Build 0)  -->
<svg version="1.1" id="Layer_1" xmlns="http://www.w3.org/2000/svg" xmlns:xlink="http://www.w3.org/1999/xlink" x="0px" y="0px"
	 viewBox="0 0 240.1 280.2" enable-background="new 0 0 240.1 280.2" xml:space="preserve">
<path fill="none" stroke="#FEE45C" stroke-width="2" stroke-miterlimit="10" d="M83.1,59.6L67.4,75.3c-1.8,1.8-4.7,1.8-6.4,0
	L45.2,59.6v-32h37.9V59.6z"/>
<path fill="none" stroke="#FEE45C" stroke-width="2" stroke-miterlimit="10" d="M64.1,81.7L52.7,93.1c-2.9,2.9,0.5,7.7,4.2,5.8
	L152,51.5c3.3-1.6,6.7,2.1,4.7,5.2l-32.4,38.6"/>
<line fill="none" stroke="#FDF7B5" stroke-linecap="round" stroke-linejoin="round" stroke-miterlimit="10" x1="47.4" y1="35.8" x2="79.9" y2="35.8"/>
<g>
	<path fill="#FFF18A" d="M69.5,253c-3.2,0-5.8-2.6-5.8-5.8v-34.1c34.1-18.8,81.1,30.2,123.1,20.7v13.4c0,3.2-2.6,5.8-5.8,5.8H69.5z"
		/>
</g>
<path fill="none" stroke="#6B5C59" stroke-width="2" stroke-linecap="round" stroke-linejoin="round" stroke-miterlimit="10" d="
	M134.1,188.4c-2.1,1.8-4.7,2.8-7.7,2.8c-3.1,0-5.9-1.2-8-3.1"/>
<line fill="none" stroke="#FDF7B5" stroke-miterlimit="10" stroke-dasharray="12,1.5" x1="71.9" y1="123.3" x2="178.7" y2="123.3"/>
<path fill="none" stroke="#FEE45C" stroke-width="2" stroke-miterlimit="10" d="M69.5,253c-3.2,0-5.8-2.6-5.8-5.8V124.7
	c0-1.5,0.6-3,1.7-4.1l16.4-18.4c1.1-1.1,2.5-1.7,4.1-1.7h78.8c1.5,0,3,0.6,4.1,1.7l16.3,18.3c1.1,1.1,1.7,2.5,1.7,4.1v122.7
	c0,3.2-2.6,5.8-5.8,5.8L69.5,253z"/>
<circle fill="#FFFFFF" cx="106.1" cy="159.2" r="2.2"/>
<g>
	
		<path fill="#786555" stroke="#786555" stroke-width="2" stroke-linecap="round" stroke-linejoin="round" stroke-miterlimit="10" d="
		M101.6,155.1c-5,0-9,4-9,9c0,0.2,0,0.5,0,0.7c5,0,9.2,3.5,10.3,8.2c4.3-0.7,7.6-4.4,7.6-8.9C110.6,159.1,106.5,155.1,101.6,155.1z"
		/>
	
		<path fill="#786555" stroke="#786555" stroke-width="2" stroke-linecap="round" stroke-linejoin="round" stroke-miterlimit="10" d="
		M156.7,164.5c0-0.1,0-0.3,0-0.4c0-5-4-9-9-9c-5,0-9,4-9,9s4,9,9,9c0.8,0,1.6-0.1,2.4-0.3C150.7,169,153.3,165.9,156.7,164.5z"/>
</g>
<circle fill="#FFFFFF" cx="150.1" cy="159.2" r="2.2"/>
<circle fill="#FFFFFF" cx="104.1" cy="159.2" r="2.2"/>
<path fill="none" stroke="#CCC9C6" stroke-linecap="round" stroke-linejoin="round" stroke-miterlimit="10" d="M90.4,171.1
	c2,0.1,5.9,2.8,6.7,5.9"/>
<ellipse fill="#D8D8D8" cx="185.1" cy="261.8" rx="18.1" ry="1"/>
<g>
	<path fill="#FDF7B5" d="M179.4,261.8c-12.9,0-25.6-8.3-32.4-21.2c-5.9-11.3-6.4-24.6-1.3-34.9c-1.3-2-2-4.4-2-6.8
		c0-6.9,5.6-12.5,12.5-12.5c3.4,0,6.7,1.4,9.1,3.9c2-0.4,4.1-0.6,6.1-0.6c12.9,0,25.6,8.3,32.4,21.2c5.2,10,6.3,21.3,2.9,31
		c1.6,2.1,2.5,4.8,2.5,7.5c0,6.9-5.6,12.5-12.5,12.5c-2.4,0-4.7-0.7-6.7-2C186.6,261.2,183.1,261.8,179.4,261.8z"/>
	<path fill="#FEE45C" d="M156.2,187.3c3.5,0,6.6,1.6,8.7,4c2.1-0.5,4.3-0.8,6.5-0.8c12.2,0,24.7,7.7,31.5,20.6
		c5.4,10.2,6,21.5,2.7,30.8c1.6,2,2.6,4.5,2.6,7.3c0,6.4-5.2,11.5-11.5,11.5c-2.5,0-4.8-0.8-6.6-2.1c-3.4,1.4-7,2.1-10.7,2.1
		c-12.2,0-24.7-7.7-31.5-20.6c-6.1-11.7-6.1-24.7-1-34.6c-1.4-1.9-2.2-4.2-2.2-6.8C144.7,192.5,149.9,187.3,156.2,187.3
		 M156.2,185.3c-7.5,0-13.5,6.1-13.5,13.5c0,2.5,0.6,4.8,1.9,6.9c-5.1,10.7-4.6,23.8,1.5,35.4c6.9,13.2,20,21.7,33.3,21.7
		c3.6,0,7.1-0.6,10.4-1.9c2.1,1.2,4.4,1.9,6.9,1.9c7.5,0,13.5-6.1,13.5-13.5c0-2.7-0.8-5.4-2.4-7.6c3.3-9.9,2.2-21.3-3.1-31.4
		c-6.9-13.2-20-21.7-33.3-21.7c-2,0-3.9,0.2-5.8,0.6C163.1,186.7,159.8,185.3,156.2,185.3L156.2,185.3z"/>
</g>
<path fill="#FFF2A6" d="M146.9,205.6c-5.1,9.8-3.7,22.3,2.5,34c8.8,16.8,25.8,25.3,40.7,19.1c0.9,0.6-15.6,1.5-31.5-15.8
	C142.5,225.4,146.2,204.6,146.9,205.6z"/>
<path fill="none" stroke="#FEE45C" stroke-width="2" stroke-linecap="round" stroke-linejoin="round" stroke-miterlimit="10" d="
	M158.9,223.2c-1.1-2,0.5-5.1,3.7-6.9s6.7-1.7,7.9,0.3"/>
<path fill="none" stroke="#FEE45C" stroke-width="2" stroke-linecap="round" stroke-linejoin="round" stroke-miterlimit="10" d="
	M175.7,213.6c-1.1-2,0.5-5.1,3.7-6.9c3.2-1.8,6.7-1.7,7.9,0.3"/>
<g>
	<path fill="#FEE45C" d="M186,216.2l-19.2,11c2,3.5,5.5,5.4,9.3,5.6c-0.2-1,1.5-3,4.1-4.5c2.6-1.5,5.2-2,5.9-1.3
		C187.9,223.7,188,219.6,186,216.2z"/>
	<path fill="#FEE45C" d="M186.5,215.9C186.4,215.9,186.4,215.9,186.5,215.9c-0.2-0.3-0.5-0.4-0.7-0.2l0,0l-19.2,11
		c-0.2,0.1-0.3,0.5-0.2,0.7c2.1,3.8,6.1,5.9,10.1,5.8c-0.1-0.1-0.2-0.2-0.3-0.3c0,0,0,0,0-0.1c0-0.1-0.1-0.1-0.1-0.2
		c-3.7-0.1-7.3-2.1-9.3-5.6l19.2-11c2,3.5,1.9,7.5,0.1,10.8c0.1,0.1,0.1,0.1,0.1,0.2c0,0,0,0.1,0,0.1c0.1,0.1,0.1,0.3,0.1,0.4
		C188.4,224.2,188.6,219.7,186.5,215.9z"/>
	<path fill="#FDF7B5" d="M180.1,228.3c-2.6,1.5-4.4,3.4-4.1,4.5c2,0.1,4-0.4,5.9-1.4s3.3-2.6,4.2-4.3
		C185.3,226.2,182.7,226.8,180.1,228.3z"/>
	<path fill="#FEE45C" d="M186.2,227.2C186.2,227.2,186.2,227.2,186.2,227.2c-0.1-0.1-0.1-0.2-0.2-0.2c-1,1.7-2.4,3.3-4.2,4.3
		c-1.8,1.1-3.9,1.5-5.9,1.4c0,0.1,0,0.1,0.1,0.2c0,0,0,0,0,0.1c0.1,0.1,0.2,0.2,0.3,0.3c1.9,0,3.9-0.5,5.7-1.5
		c1.8-1,3.2-2.5,4.2-4.1C186.3,227.5,186.3,227.3,186.2,227.2z"/>
</g>
<path fill="#FEEA98" d="M146.9,205.6c-5.1,9.8-5.2,22.9,1,34.6c8.8,16.8,27.3,24.7,42.2,18.5c0.9,0.6-19.8,5.2-35.7-12.2
	C138.3,229,146.2,204.6,146.9,205.6z"/>
</svg>
