<?xml version="1.0" encoding="utf-8"?>
<!-- Generator: Adobe Illustrator 18.1.1, SVG Export Plug-In . SVG Version: 6.00 Build 0)  -->
<svg version="1.1" id="Layer_1" xmlns="http://www.w3.org/2000/svg" xmlns:xlink="http://www.w3.org/1999/xlink" x="0px" y="0px"
	 viewBox="0 0 240.1 280.2" enable-background="new 0 0 240.1 280.2" xml:space="preserve">
<ellipse fill="#D8D8D8" cx="111.5" cy="255.8" rx="72.3" ry="2"/>
<path fill="none" stroke="#CE2C27" stroke-width="2" stroke-linecap="round" stroke-linejoin="round" stroke-miterlimit="10" d="
	M66.7,55L51,70.7c-1.8,1.8-4.7,1.8-6.4,0L28.8,55V23h37.9V55z"/>
<path fill="none" stroke="#CE2C27" stroke-width="2" stroke-linecap="round" stroke-linejoin="round" stroke-miterlimit="10" d="
	M47.8,77.1L36.3,88.5c-2.9,2.9,0.5,7.7,4.2,5.8l95.1-47.4c3.3-1.6,6.7,2.1,4.7,5.2l-32.4,38.6"/>
<line fill="#F7941E" stroke="#FBB040" stroke-linecap="round" stroke-linejoin="round" stroke-miterlimit="10" x1="31" y1="31.2" x2="63.5" y2="31.2"/>
<g>
	<path fill="#D88687" d="M53.1,254.4c-3.2,0-5.8-2.6-5.8-5.8v-34.1c34.1-18.8,81.1,30.2,123.1,20.7v13.4c0,3.2-2.6,5.8-5.8,5.8H53.1
		z"/>
</g>
<path fill="none" stroke="#6B5C59" stroke-width="2" stroke-linecap="round" stroke-linejoin="round" stroke-miterlimit="10" d="
	M117.8,189.9c-2.1,1.8-4.7,2.8-7.7,2.8c-3.1,0-5.9-1.2-8-3.1"/>
<line fill="none" stroke="#CE2C27" stroke-miterlimit="10" stroke-dasharray="12,1.5" x1="55.5" y1="124.8" x2="162.3" y2="124.8"/>
<path fill="none" stroke="#CE2C27" stroke-width="2" stroke-miterlimit="10" d="M53.1,254.4c-3.2,0-5.8-2.6-5.8-5.8V126.1
	c0-1.5,0.6-3,1.7-4.1l16.4-18.4c1.1-1.1,2.5-1.7,4.1-1.7h78.8c1.5,0,3,0.6,4.1,1.7l16.3,18.3c1.1,1.1,1.7,2.5,1.7,4.1v122.7
	c0,3.2-2.6,5.8-5.8,5.8L53.1,254.4z"/>
<circle fill="#FFFFFF" cx="89.7" cy="160.6" r="2.2"/>
<g>
	
		<path fill="#786555" stroke="#786555" stroke-width="2" stroke-linecap="round" stroke-linejoin="round" stroke-miterlimit="10" d="
		M85.2,156.5c-5,0-9,4-9,9c0,0.2,0,0.5,0,0.7c5,0,9.2,3.5,10.3,8.2c4.3-0.7,7.6-4.4,7.6-8.9C94.2,160.5,90.2,156.5,85.2,156.5z"/>
	
		<path fill="#786555" stroke="#786555" stroke-width="2" stroke-linecap="round" stroke-linejoin="round" stroke-miterlimit="10" d="
		M140.3,165.9c0-0.1,0-0.3,0-0.4c0-5-4-9-9-9c-5,0-9,4-9,9s4,9,9,9c0.8,0,1.6-0.1,2.4-0.3C134.3,170.4,136.9,167.3,140.3,165.9z"/>
</g>
<circle fill="#FFFFFF" cx="133.7" cy="160.6" r="2.2"/>
<circle fill="#FFFFFF" cx="87.7" cy="160.6" r="2.2"/>
<path fill="none" stroke="#CCC9C6" stroke-linecap="round" stroke-linejoin="round" stroke-miterlimit="10" d="M74,171.5
	c2,0.1,5.9,2.8,6.7,5.9"/>
<path fill="#D4767B" d="M209.2,201.5"/>
<g>
	<ellipse fill="#D8D8D8" cx="177.9" cy="262.7" rx="14.9" ry="2"/>
	<g>
		<path fill="#9ED191" stroke="#5BBA47" stroke-miterlimit="10" d="M194.4,177.6c-0.9-7.3,3.1-14,9.4-17c0.4-0.2,0.2-0.8-0.2-0.8
			c-3.5,0.1-7.2,1.4-10.7,4.1c-1.7,1.3-3,3-3.8,5c-1.5,3.7-1.8,7.2-1.2,10.4c2.5,0.5,5,1,7.3,1.6
			C194.8,179.8,194.5,178.7,194.4,177.6z"/>
		<path fill="#9ED191" stroke="#5BBA47" stroke-miterlimit="10" d="M187.9,161.2c0.2-0.3-0.1-0.7-0.4-0.5c-1.1,0.6-2.2,1.4-3.2,2.4
			c-4.2,3.9-5.9,9.7-5,15.1c2.3,0.2,4.7,0.5,7.2,0.9C183.4,173.2,184,166.2,187.9,161.2z"/>
		<path fill="#9ED191" stroke="#5BBA47" stroke-miterlimit="10" d="M170.2,165.8c0-0.3-0.5-0.4-0.6-0.1c-0.7,2.2-0.9,4.7-0.5,7.3
			c0.2,1.7,0.8,3.4,1.5,4.9c2.4-0.1,5-0.1,7.6,0.1C173.8,175.4,170.8,170.9,170.2,165.8z"/>
		<path fill="#9ED191" stroke="#5BBA47" stroke-miterlimit="10" d="M207.1,179.6c1.2-2.3,1.8-4.7,2-7c0-0.3-0.4-0.4-0.6-0.1
			c-2.3,4.7-6.7,8-11.8,8.9c2.5,0.7,4.9,1.6,7.2,2.6C205.1,182.6,206.2,181.2,207.1,179.6z"/>
		<g>
			<path fill="#D88687" d="M177,262.3c-1.4,0-2.9-0.1-4.3-0.4c-10.3-1.8-19.3-10-25.3-23.2c-5.5-11.9-7.5-25.9-5.5-37.4
				c2.7-15.4,12.3-23.6,28.7-24.4c0.9,0,1.8-0.1,2.8-0.1c1.6,0,3.2,0.1,4.9,0.2c0,0,0.8,0.1,1.1,0.1c2.3,0.2,4.7,0.5,7.3,0.9
				l0.6,0.1l0.8,0.1c2.6,0.5,5.1,1,7.4,1.6c0.5,0.1,1,0.3,1.5,0.4c2.6,0.8,5.1,1.6,7.3,2.6c14.5,6.3,20.6,17.1,18,32.2
				c-1.8,10.6-7.9,22.5-16.1,31.6C197.1,256.8,186.7,262.3,177,262.3C177,262.3,177,262.3,177,262.3z"/>
			<path fill="#CE2C27" d="M173.4,177.9c1.6,0,3.2,0.1,4.8,0.2c0.4,0,0.7,0.1,1.1,0.1c2.3,0.2,4.7,0.5,7.2,0.9
				c0.2,0,0.4,0.1,0.6,0.1c0.3,0,0.5,0.1,0.8,0.1c2.5,0.5,5,1,7.3,1.6c0.5,0.1,1,0.3,1.5,0.4c2.5,0.7,4.9,1.6,7.2,2.6
				c12.5,5.4,20.2,14.9,17.4,31.1c-3.7,21.2-23.9,46.3-44.2,46.3c-1.4,0-2.7-0.1-4.1-0.3c-21.6-3.7-34-36.9-30.1-59.5
				c2.9-16.6,13.7-22.8,27.8-23.5C171.5,177.9,172.4,177.9,173.4,177.9 M173.4,175.9c-1,0-1.9,0-2.8,0.1
				c-16.9,0.8-26.9,9.3-29.6,25.2c-2,11.7,0.1,25.9,5.6,38c6.2,13.5,15.5,22,26.1,23.8c1.4,0.2,2.9,0.4,4.4,0.4
				c21.3,0,42.3-25.8,46.2-48c2.7-15.6-3.6-26.8-18.6-33.3c-2.3-1-4.8-1.9-7.4-2.6c-0.5-0.1-1-0.3-1.5-0.4c-2.3-0.6-4.8-1.2-7.5-1.6
				l-0.3-0.1c-0.2,0-0.3-0.1-0.5-0.1c-0.1,0-0.3,0-0.4-0.1l-0.2,0c-2.6-0.4-5-0.7-7.3-0.9c-0.3,0-0.6,0-0.9-0.1l-0.2,0
				C176.6,175.9,175,175.9,173.4,175.9L173.4,175.9z"/>
		</g>
	</g>
	<path fill="#D4767B" d="M162.5,173.6"/>
	<path fill="#D4767B" d="M170.1,174.9"/>
	<path fill="#D4767B" d="M177.8,176.2"/>
	<path fill="#D4767B" d="M185.2,177.5"/>
	<path fill="#D4767B" d="M192.9,178.8"/>
	<path fill="#D4767B" d="M200.6,180.1"/>
	<g>
		<path fill="#D8878E" d="M173.4,260.9c0,0,4.9-3.1,13.3-7c4.2-2,8.8-5.5,12.4-8.9c11.3-10.3,22.4-32.5,22.4-32.5
			s-2.6,19.2-22.4,36.5C184.1,262.2,173.4,260.9,173.4,260.9z"/>
	</g>
	<g>
		<path fill="#D36E73" d="M172.8,260.8c0,0,7.6-0.4,16-4.4c4.2-2,8.8-5.5,12.4-8.9c11.3-10.3,20.1-33.8,20.1-33.8
			s-2.1,20.5-21.8,37.7C184.5,264.6,172.8,260.8,172.8,260.8z"/>
	</g>
	<g>
		<path fill="#D4767B" d="M161.1,181.9c0.7,0.1,1.4-1.1,1.9-2.8c-0.9,0.2-1.8,0.5-2.7,0.8C160.3,181,160.6,181.8,161.1,181.9z"/>
		<path fill="#D4767B" d="M168.8,183.2c0.8,0.1,1.7-1.6,2.1-3.9c0.1-0.5,0.1-0.9,0.1-1.3c-0.1,0-0.2,0-0.3,0c-0.8,0-1.7,0.1-2.5,0.2
			c0,0.2-0.1,0.4-0.1,0.7C167.7,181.1,168,183,168.8,183.2z"/>
		<path fill="#D4767B" d="M176.4,184.5c0.8,0.1,1.7-1.6,2.1-3.9c0.2-0.9,0.2-1.8,0.1-2.5c-0.2,0-0.3,0-0.5,0c-0.6,0-1.3-0.1-1.9-0.1
			c-0.2,0.6-0.5,1.3-0.6,2.1C175.3,182.4,175.6,184.4,176.4,184.5z"/>
		
			<ellipse transform="matrix(0.1701 -0.9854 0.9854 0.1701 -65.9617 310.0001)" fill="#D4767B" cx="151.1" cy="194.2" rx="4.2" ry="1.4"/>
		
			<ellipse transform="matrix(0.1701 -0.9854 0.9854 0.1701 -60.9053 318.6511)" fill="#D4767B" cx="158.7" cy="195.5" rx="4.2" ry="1.4"/>
		
			<ellipse transform="matrix(0.1701 -0.9854 0.9854 0.1701 -55.8489 327.302)" fill="#D4767B" cx="166.4" cy="196.8" rx="4.2" ry="1.4"/>
		
			<ellipse transform="matrix(0.1701 -0.9854 0.9854 0.1701 -50.7925 335.953)" fill="#D4767B" cx="174.1" cy="198.1" rx="4.2" ry="1.4"/>
		
			<ellipse transform="matrix(0.1701 -0.9854 0.9854 0.1701 -82.6868 319.7757)" fill="#D4767B" cx="148.5" cy="209" rx="4.2" ry="1.4"/>
		
			<ellipse transform="matrix(0.1701 -0.9854 0.9854 0.1701 -77.6304 328.4266)" fill="#D4767B" cx="156.2" cy="210.3" rx="4.2" ry="1.4"/>
		
			<ellipse transform="matrix(0.1701 -0.9854 0.9854 0.1701 -72.5742 337.0778)" fill="#D4767B" cx="163.8" cy="211.6" rx="4.2" ry="1.4"/>
		
			<ellipse transform="matrix(0.1701 -0.9854 0.9854 0.1701 -67.5178 345.7287)" fill="#D4767B" cx="171.5" cy="213" rx="4.2" ry="1.4"/>
		
			<ellipse transform="matrix(0.1701 -0.9854 0.9854 0.1701 -53.8574 308.535)" fill="#D4767B" cx="156.3" cy="186.2" rx="4.2" ry="1.4"/>
		
			<ellipse transform="matrix(0.1701 -0.9854 0.9854 0.1701 -48.801 317.186)" fill="#D4767B" cx="163.9" cy="187.6" rx="4.2" ry="1.4"/>
		
			<ellipse transform="matrix(0.1701 -0.9854 0.9854 0.1701 -43.7446 325.837)" fill="#D4767B" cx="171.6" cy="188.9" rx="4.2" ry="1.4"/>
		
			<ellipse transform="matrix(0.1701 -0.9854 0.9854 0.1701 -38.6883 334.488)" fill="#D4767B" cx="179.3" cy="190.2" rx="4.2" ry="1.4"/>
		
			<ellipse transform="matrix(0.1701 -0.9854 0.9854 0.1701 -78.9553 311.5981)" fill="#D4767B" cx="145.5" cy="202.7" rx="4.2" ry="1.4"/>
		
			<ellipse transform="matrix(0.1701 -0.9854 0.9854 0.1701 -73.8989 320.249)" fill="#D4767B" cx="153.2" cy="204" rx="4.2" ry="1.4"/>
		
			<ellipse transform="matrix(0.1701 -0.9854 0.9854 0.1701 -68.8425 328.9)" fill="#D4767B" cx="160.9" cy="205.3" rx="4.2" ry="1.4"/>
		
			<ellipse transform="matrix(0.1701 -0.9854 0.9854 0.1701 -63.7861 337.551)" fill="#D4767B" cx="168.5" cy="206.6" rx="4.2" ry="1.4"/>
		
			<ellipse transform="matrix(0.1701 -0.9854 0.9854 0.1701 -58.7298 346.202)" fill="#D4767B" cx="176.2" cy="208" rx="4.2" ry="1.4"/>
		<path fill="#D4767B" d="M143.7,213.4c-0.4-0.1-0.9,0.4-1.3,1.2c0.2,2.1,0.4,4.3,0.8,6.5c0.5-0.7,1-1.9,1.2-3.3
			C144.8,215.5,144.5,213.5,143.7,213.4z"/>
		
			<ellipse transform="matrix(0.1701 -0.9854 0.9854 0.1701 -90.6241 330.0246)" fill="#D4767B" cx="150.6" cy="218.8" rx="4.2" ry="1.4"/>
		
			<ellipse transform="matrix(0.1701 -0.9854 0.9854 0.1701 -85.5677 338.6756)" fill="#D4767B" cx="158.3" cy="220.1" rx="4.2" ry="1.4"/>
		
			<ellipse transform="matrix(0.1701 -0.9854 0.9854 0.1701 -80.5113 347.3266)" fill="#D4767B" cx="166" cy="221.5" rx="4.2" ry="1.4"/>
		
			<ellipse transform="matrix(0.1701 -0.9854 0.9854 0.1701 -75.4549 355.9776)" fill="#D4767B" cx="173.6" cy="222.8" rx="4.2" ry="1.4"/>
		<path fill="#D4767B" d="M183.8,185.8c0.8,0.1,1.7-1.6,2.1-3.9c0.2-1.1,0.2-2.1,0.1-2.9c-0.7-0.1-1.4-0.2-2.1-0.3
			c-0.4,0.7-0.7,1.6-0.8,2.7C182.7,183.7,183,185.6,183.8,185.8z"/>
		<path fill="#D4767B" d="M191.5,187.1c0.8,0.1,1.7-1.6,2.1-3.9c0.2-1,0.2-1.9,0.1-2.6c-0.7-0.2-1.4-0.4-2.1-0.5
			c-0.3,0.7-0.6,1.6-0.8,2.7C190.4,185,190.7,187,191.5,187.1z"/>
		<path fill="#D4767B" d="M199.1,188.4c0.8,0.1,1.7-1.6,2.1-3.9c0.1-0.6,0.2-1.1,0.2-1.6c-0.8-0.3-1.6-0.6-2.4-0.9
			c-0.2,0.6-0.4,1.2-0.5,2C198.1,186.3,198.4,188.3,199.1,188.4z"/>
		<path fill="#D4767B" d="M206.8,189.7c0.7,0.1,1.6-1.3,2-3.3c-0.8-0.5-1.7-1-2.6-1.4c0,0.1-0.1,0.2-0.1,0.4
			C205.7,187.7,206,189.6,206.8,189.7z"/>
		
			<ellipse transform="matrix(0.1701 -0.9854 0.9854 0.1701 -45.9149 344.2979)" fill="#D4767B" cx="181.5" cy="199.4" rx="4.2" ry="1.4"/>
		
			<ellipse transform="matrix(0.1701 -0.9854 0.9854 0.1701 -40.8585 352.9489)" fill="#D4767B" cx="189.1" cy="200.7" rx="4.2" ry="1.4"/>
		
			<ellipse transform="matrix(0.1701 -0.9854 0.9854 0.1701 -35.8022 361.5999)" fill="#D4767B" cx="196.8" cy="202.1" rx="4.2" ry="1.4"/>
		
			<ellipse transform="matrix(-0.1701 0.9854 -0.9854 -0.1701 439.6575 36.5093)" fill="#D4767B" cx="204.5" cy="203.4" rx="4.2" ry="1.4"/>
		
			<ellipse transform="matrix(-0.1701 0.9854 -0.9854 -0.1701 449.9301 30.5051)" fill="#D4767B" cx="212.1" cy="204.7" rx="4.2" ry="1.4"/>
		<path fill="#D4767B" d="M221.1,202.7c0.1,0.2,0.1,0.5,0.2,0.8C221.3,203.2,221.2,202.9,221.1,202.7z"/>
		<path fill="#D4767B" d="M220.5,201.9c-0.8-0.1-1.7,1.6-2.1,3.9c-0.4,2.3-0.1,4.2,0.7,4.4c0.8,0.1,1.7-1.6,2.1-3.9
			c0.2-1.1,0.2-2.1,0.1-2.8c0-0.3-0.1-0.5-0.2-0.8C221,202.2,220.8,202,220.5,201.9z"/>
		
			<ellipse transform="matrix(0.1701 -0.9854 0.9854 0.1701 -62.6402 354.0736)" fill="#D4767B" cx="178.9" cy="214.2" rx="4.2" ry="1.4"/>
		
			<ellipse transform="matrix(0.1701 -0.9854 0.9854 0.1701 -57.5838 362.7246)" fill="#D4767B" cx="186.6" cy="215.6" rx="4.2" ry="1.4"/>
		
			<ellipse transform="matrix(0.1701 -0.9854 0.9854 0.1701 -52.5274 371.3756)" fill="#D4767B" cx="194.2" cy="216.9" rx="4.2" ry="1.4"/>
		
			<ellipse transform="matrix(-0.1701 0.9854 -0.9854 -0.1701 451.2657 56.3699)" fill="#D4767B" cx="201.9" cy="218.2" rx="4.2" ry="1.4"/>
		
			<ellipse transform="matrix(-0.1701 0.9854 -0.9854 -0.1701 461.5384 50.3656)" fill="#D4767B" cx="209.6" cy="219.5" rx="4.2" ry="1.4"/>
		
			<ellipse transform="matrix(-0.1701 0.9854 -0.9854 -0.1701 471.811 44.3614)" fill="#D4767B" cx="217.2" cy="220.8" rx="4.2" ry="1.4"/>
		
			<ellipse transform="matrix(0.1701 -0.9854 0.9854 0.1701 -33.8108 342.833)" fill="#D4767B" cx="186.6" cy="191.5" rx="4.2" ry="1.4"/>
		
			<ellipse transform="matrix(0.1701 -0.9854 0.9854 0.1701 -28.7544 351.484)" fill="#D4767B" cx="194.3" cy="192.8" rx="4.2" ry="1.4"/>
		
			<ellipse transform="matrix(0.1701 -0.9854 0.9854 0.1701 -23.698 360.1349)" fill="#D4767B" cx="202" cy="194.1" rx="4.2" ry="1.4"/>
		
			<ellipse transform="matrix(-0.1701 0.9854 -0.9854 -0.1701 437.9179 22.1361)" fill="#D4767B" cx="209.6" cy="195.5" rx="4.2" ry="1.4"/>
		<path fill="#D4767B" d="M216.6,200.9c0.8,0.1,1.7-1.6,2.1-3.9c0-0.2,0.1-0.4,0.1-0.6c-0.6-1-1.2-2-1.9-2.9c-0.4,0.7-0.8,1.8-1,3
			C215.5,198.8,215.8,200.8,216.6,200.9z"/>
		
			<ellipse transform="matrix(0.1701 -0.9854 0.9854 0.1701 -53.8523 354.547)" fill="#D4767B" cx="183.6" cy="209.2" rx="4.2" ry="1.4"/>
		
			<ellipse transform="matrix(0.1701 -0.9854 0.9854 0.1701 -48.7959 363.198)" fill="#D4767B" cx="191.2" cy="210.6" rx="4.2" ry="1.4"/>
		
			<ellipse transform="matrix(0.1701 -0.9854 0.9854 0.1701 -43.7395 371.849)" fill="#D4767B" cx="198.9" cy="211.9" rx="4.2" ry="1.4"/>
		
			<ellipse transform="matrix(-0.1701 0.9854 -0.9854 -0.1701 451.8278 45.9346)" fill="#D4767B" cx="206.6" cy="213.2" rx="4.2" ry="1.4"/>
		
			<ellipse transform="matrix(-0.1701 0.9854 -0.9854 -0.1701 462.1005 39.9303)" fill="#D4767B" cx="214.2" cy="214.5" rx="4.2" ry="1.4"/>
		<path fill="#D4767B" d="M220.4,218.6c0.3-1.2,0.6-2.4,0.8-3.7c0.1-0.8,0.2-1.6,0.3-2.4c-0.4,0.7-0.8,1.8-1,3
			C220.3,216.8,220.3,217.8,220.4,218.6z"/>
		
			<ellipse transform="matrix(0.1701 -0.9854 0.9854 0.1701 -70.5774 364.3226)" fill="#D4767B" cx="181" cy="224.1" rx="4.2" ry="1.4"/>
		
			<ellipse transform="matrix(0.1701 -0.9854 0.9854 0.1701 -65.521 372.9736)" fill="#D4767B" cx="188.7" cy="225.4" rx="4.2" ry="1.4"/>
		
			<ellipse transform="matrix(0.1701 -0.9854 0.9854 0.1701 -60.4646 381.6245)" fill="#D4767B" cx="196.3" cy="226.7" rx="4.2" ry="1.4"/>
		
			<ellipse transform="matrix(-0.1701 0.9854 -0.9854 -0.1701 463.4359 65.795)" fill="#D4767B" cx="204" cy="228" rx="4.2" ry="1.4"/>
		
			<ellipse transform="matrix(-0.1701 0.9854 -0.9854 -0.1701 473.7086 59.7907)" fill="#D4767B" cx="211.7" cy="229.4" rx="4.2" ry="1.4"/>
		<path fill="#D4767B" d="M145.4,230.3c0.6-0.5,1.2-1.9,1.5-3.7c0.4-2.3,0.1-4.2-0.7-4.4c-0.7-0.1-1.6,1.5-2.1,3.6"/>
		
			<ellipse transform="matrix(0.1701 -0.9854 0.9854 0.1701 -97.3214 339.9358)" fill="#D4767B" cx="153.2" cy="227.8" rx="4.2" ry="1.4"/>
		
			<ellipse transform="matrix(0.1701 -0.9854 0.9854 0.1701 -92.265 348.5868)" fill="#D4767B" cx="160.8" cy="229.1" rx="4.2" ry="1.4"/>
		
			<ellipse transform="matrix(0.1701 -0.9854 0.9854 0.1701 -87.2087 357.2377)" fill="#D4767B" cx="168.5" cy="230.4" rx="4.2" ry="1.4"/>
		<path fill="#D4767B" d="M150.8,241.4c-0.2,0-0.5,0.1-0.7,0.3c0.5,0.9,1,1.8,1.5,2.7C151.7,242.7,151.4,241.5,150.8,241.4z"/>
		
			<ellipse transform="matrix(0.1701 -0.9854 0.9854 0.1701 -112.3066 360.3008)" fill="#D4767B" cx="157.8" cy="246.8" rx="4.2" ry="1.4"/>
		
			<ellipse transform="matrix(0.1701 -0.9854 0.9854 0.1701 -107.2502 368.9518)" fill="#D4767B" cx="165.4" cy="248.2" rx="4.2" ry="1.4"/>
		<path fill="#D4767B" d="M148.3,232.1c-0.5-0.1-1.2,0.7-1.6,2c0.6,1.5,1.2,2.9,1.8,4.3c0.2-0.6,0.4-1.2,0.5-2
			C149.4,234.2,149.1,232.3,148.3,232.1z"/>
		
			<ellipse transform="matrix(0.1701 -0.9854 0.9854 0.1701 -105.2587 350.1847)" fill="#D4767B" cx="155.3" cy="237.6" rx="4.2" ry="1.4"/>
		
			<ellipse transform="matrix(0.1701 -0.9854 0.9854 0.1701 -100.2023 358.8357)" fill="#D4767B" cx="163" cy="238.9" rx="4.2" ry="1.4"/>
		
			<ellipse transform="matrix(0.1701 -0.9854 0.9854 0.1701 -95.146 367.4868)" fill="#D4767B" cx="170.6" cy="240.2" rx="4.2" ry="1.4"/>
		<path fill="#D4767B" d="M160.6,252.5c-0.4-0.1-0.9,0.4-1.3,1.3c0.7,0.6,1.4,1.2,2.1,1.8C161.5,253.9,161.2,252.7,160.6,252.5z"/>
		<path fill="#D4767B" d="M168.3,253.9c-0.8-0.1-1.7,1.6-2.1,3.9c0,0.3-0.1,0.5-0.1,0.8c0.8,0.4,1.7,0.8,2.6,1.1
			c0.1-0.4,0.3-0.9,0.3-1.5C169.3,256,169,254,168.3,253.9z"/>
		
			<ellipse transform="matrix(0.1701 -0.9854 0.9854 0.1701 -82.3312 365.5828)" fill="#D4767B" cx="175.9" cy="231.7" rx="4.2" ry="1.4"/>
		
			<ellipse transform="matrix(0.1701 -0.9854 0.9854 0.1701 -77.2748 374.2338)" fill="#D4767B" cx="183.6" cy="233" rx="4.2" ry="1.4"/>
		
			<ellipse transform="matrix(0.1701 -0.9854 0.9854 0.1701 -72.2184 382.8847)" fill="#D4767B" cx="191.2" cy="234.3" rx="4.2" ry="1.4"/>
		
			<ellipse transform="matrix(-0.1701 0.9854 -0.9854 -0.1701 464.9323 79.7521)" fill="#D4767B" cx="198.9" cy="235.6" rx="4.2" ry="1.4"/>
		
			<ellipse transform="matrix(-0.1701 0.9854 -0.9854 -0.1701 475.205 73.7479)" fill="#D4767B" cx="206.5" cy="237" rx="4.2" ry="1.4"/>
		
			<ellipse transform="matrix(0.1701 -0.9854 0.9854 0.1701 -102.3727 377.2968)" fill="#D4767B" cx="172.8" cy="249.4" rx="4.2" ry="1.4"/>
		
			<ellipse transform="matrix(0.1701 -0.9854 0.9854 0.1701 -97.3163 385.9477)" fill="#D4767B" cx="180.5" cy="250.8" rx="4.2" ry="1.4"/>
		
			<ellipse transform="matrix(0.1701 -0.9854 0.9854 0.1701 -92.2599 394.5987)" fill="#D4767B" cx="188.2" cy="252.1" rx="4.2" ry="1.4"/>
		<path fill="#D4767B" d="M197.2,253.5c0.4-2.2,0.1-4.1-0.7-4.3c-0.8-0.1-1.7,1.6-2.1,3.9c-0.2,0.9-0.2,1.8-0.1,2.5
			C195.3,255,196.3,254.3,197.2,253.5z"/>
		
			<ellipse transform="matrix(0.1701 -0.9854 0.9854 0.1701 -90.2684 375.8317)" fill="#D4767B" cx="178" cy="241.5" rx="4.2" ry="1.4"/>
		
			<ellipse transform="matrix(0.1701 -0.9854 0.9854 0.1701 -85.212 384.4827)" fill="#D4767B" cx="185.7" cy="242.8" rx="4.2" ry="1.4"/>
		
			<ellipse transform="matrix(0.1701 -0.9854 0.9854 0.1701 -80.1556 393.1337)" fill="#D4767B" cx="193.3" cy="244.2" rx="4.2" ry="1.4"/>
		
			<ellipse transform="matrix(-0.1701 0.9854 -0.9854 -0.1701 477.1025 89.1772)" fill="#D4767B" cx="201" cy="245.5" rx="4.2" ry="1.4"/>
		<path fill="#D4767B" d="M175.7,255.1c-0.8-0.1-1.7,1.6-2.1,3.9c-0.1,0.7-0.2,1.3-0.2,1.9c0.8,0.1,1.7,0.2,2.6,0.2
			c0.2-0.5,0.3-1.1,0.4-1.7C176.7,257.2,176.4,255.3,175.7,255.1z"/>
		<path fill="#D4767B" d="M183.3,256.5c-0.8-0.1-1.7,1.6-2.1,3.9c0,0.2-0.1,0.4-0.1,0.6c1-0.2,2-0.4,3-0.7
			C184.3,258.2,184,256.6,183.3,256.5z"/>
	</g>
	<path fill="none" stroke="#CE2C27" stroke-width="2" stroke-linecap="round" stroke-linejoin="round" stroke-miterlimit="10" d="
		M160.3,200.8c3.8,0.9,14,5.6,13.3,8.4c-0.6,2.8-11.9,2.5-15.7,1.6"/>
	<path fill="none" stroke="#CE2C27" stroke-width="2" stroke-linecap="round" stroke-linejoin="round" stroke-miterlimit="10" d="
		M204.3,221.7c-3.8-0.9-14-5.6-13.3-8.4c0.6-2.8,11.9-2.5,15.7-1.6"/>
	
		<line fill="none" stroke="#CE2C27" stroke-width="1.5" stroke-linecap="round" stroke-linejoin="round" stroke-miterlimit="10" x1="173.6" y1="209.2" x2="160.7" y2="206.2"/>
	
		<line fill="none" stroke="#CE2C27" stroke-width="1.5" stroke-linecap="round" stroke-linejoin="round" stroke-miterlimit="10" x1="203.9" y1="216.3" x2="191" y2="213.3"/>
	<g>
		<path fill="#CE2C27" d="M195.9,228.3l-33-7.7c-1.4,5.9,0.5,11.9,4.6,15.9c0.8-1.4,4.8-1.7,9.3-0.7s7.9,3.1,8,4.7
			C190.2,238.7,194.5,234.2,195.9,228.3z"/>
		<path fill="#D14646" d="M196.1,227.5L196.1,227.5l-33-7.7c-0.4-0.1-0.8,0.2-0.9,0.6c-1.5,6.5,0.7,12.9,5.3,17.1
			c-0.1-0.2-0.1-0.4-0.1-0.6c-4.2-4.1-6.3-10.3-4.8-16.4c0-0.2,0.3-0.3,0.5-0.3l33,7.7c0.2,0,0.3,0.3,0.3,0.5
			c-1.4,6.1-6,10.8-11.6,12.6c-0.1,0.2-0.2,0.4-0.3,0.5c5.9-1.7,10.8-6.5,12.3-12.9c0,0,0,0,0-0.1
			C196.8,228,196.5,227.6,196.1,227.5z"/>
		<path fill="#D14646" d="M167.5,236.4c-4-4-6-9.9-4.6-15.9l33,7.7l0,0l0,0c-1.4,5.9-5.8,10.4-11.2,12.2c0,0.1,0,0.2,0,0.3
			c0,0,0,0.1,0,0.1c5.6-1.8,10.2-6.4,11.6-12.6c0-0.2-0.1-0.4-0.3-0.5l-33-7.7c-0.2,0-0.4,0.1-0.5,0.3c-1.4,6.1,0.6,12.3,4.8,16.4
			c0,0,0-0.1,0-0.1C167.4,236.6,167.5,236.5,167.5,236.4z"/>
		<path fill="#D88687" d="M176.8,235.7c-4.5-1-8.5-0.7-9.3,0.7c2.2,2.1,4.9,3.7,8.1,4.5c3.2,0.7,6.3,0.5,9.2-0.4
			C184.7,238.8,181.3,236.8,176.8,235.7z"/>
		<path fill="#D14646" d="M175.5,241.3c-3.2-0.7-5.9-2.3-8.1-4.4c0,0.2,0,0.4,0.1,0.6c2.2,2,4.9,3.5,7.9,4.2c3.1,0.7,6.1,0.6,9-0.2
			c0.2-0.2,0.3-0.3,0.3-0.5C181.8,241.8,178.7,242,175.5,241.3z"/>
		<path fill="#D14646" d="M184.7,240.9c0,0,0-0.1,0-0.1c0-0.1,0-0.2,0-0.3c-2.9,1-6,1.2-9.2,0.4c-3.2-0.7-5.9-2.3-8.1-4.5
			c-0.1,0.1-0.1,0.2-0.1,0.3c0,0,0,0.1,0,0.1c2.2,2.1,4.9,3.7,8.1,4.4C178.7,242,181.8,241.8,184.7,240.9z"/>
	</g>
</g>
</svg>
