<?xml version="1.0" encoding="utf-8"?>
<!-- Generator: Adobe Illustrator 18.1.1, SVG Export Plug-In . SVG Version: 6.00 Build 0)  -->
<svg version="1.1" id="Layer_1" xmlns="http://www.w3.org/2000/svg" xmlns:xlink="http://www.w3.org/1999/xlink" x="0px" y="0px"
	 viewBox="0 0 841.9 595.3" enable-background="new 0 0 841.9 595.3" xml:space="preserve">
<g>
	<path fill="#FFFFFF" d="M419.1,337.4c-11,0-20.3-3.9-26.2-11c-2.3-2.8-1.9-6.9,0.8-9.2c2.8-2.3,6.9-1.9,9.2,0.8
		c6.2,7.4,21.3,9.3,32.3,0.1c2.8-2.3,6.9-1.9,9.2,0.8c2.3,2.8,1.9,6.9-0.8,9.2C436.2,334.3,427.9,337.4,419.1,337.4z"/>
</g>
<g>
	<path fill="#FFFFFF" d="M559.9,152h-1.7c-2.4,0-4.3-1.9-4.3-4.3s1.9-4.3,4.3-4.3h1.7c2.4,0,4.3,1.9,4.3,4.3S562.3,152,559.9,152z
		 M523.5,152h-60.8c-2.4,0-4.3-1.9-4.3-4.3s1.9-4.3,4.3-4.3h60.8c2.4,0,4.3,1.9,4.3,4.3S525.9,152,523.5,152z M427.9,152h-60.8
		c-2.4,0-4.3-1.9-4.3-4.3s1.9-4.3,4.3-4.3h60.8c2.4,0,4.3,1.9,4.3,4.3S430.3,152,427.9,152z M332.3,152h-60.8
		c-2.4,0-4.3-1.9-4.3-4.3s1.9-4.3,4.3-4.3h60.8c2.4,0,4.3,1.9,4.3,4.3S334.7,152,332.3,152z"/>
</g>
<g>
	<path fill="none" d="M573.4,447.3V150.5c0-1.3-0.9-3.1-2.3-4.5l-44.7-49.5c-1.1-1.1-2.8-2-4.2-2H309.1c-1.3,0-3.1,0.9-4.5,2.3
		l-44,49.8c-1.7,1.8-2.6,3.5-2.6,4.9v234.1C347.3,348.6,465.4,464.6,573.4,447.3z"/>
	<path fill="#FFFFFF" d="M583.7,134.1L539,84.6c-4.7-4.7-10.8-7.4-16.8-7.4H309.1c-6,0-12.1,2.7-17.1,7.8l-44,49.8
		c-4.7,4.7-7.4,10.8-7.4,16.8v330.9c0,13.5,10.6,24.1,24.1,24.1h301.9c13.5,0,24.1-10.6,24.1-24.1V150.5
		C590.8,144.5,588.1,138.4,583.7,134.1z M258,151.5c0-1.3,0.9-3.1,2.6-4.9l44-49.8c1.4-1.4,3.1-2.3,4.5-2.3h213.2
		c1.3,0,3.1,0.9,4.2,2l44.7,49.5c1.4,1.4,2.3,3.1,2.3,4.5v296.8c-108,17.2-226.1-98.8-315.4-61.8V151.5z"/>
</g>
<g>
	<path fill="#786555" d="M359.4,247.5c-0.1-0.5-0.2-1-0.2-1.5c0-0.6,0.1-1.2,0.2-1.7c-0.4-0.2-0.8-0.4-1.2-0.6c0,0.1,0,0.3,0,0.4
		C358.3,245.4,358.7,246.5,359.4,247.5z"/>
	<path fill="#FFFFFF" d="M351.5,224.8c-18.4,0-32.8,14.4-32.8,32.8v1.9c0,4.8,3.9,8.7,8.7,8.7c9.2,0,17.4,6.5,19.5,15.5
		c0.9,4,4.5,6.7,8.5,6.7c0.5,0,1,0,1.4-0.1c16.2-2.7,27.5-16.1,27.5-32.7C384.4,239.2,369.9,224.8,351.5,224.8z M366.2,252.7
		c-0.1,0-0.1,0-0.2,0c-3.2,0-5.9-2.2-6.6-5.2c-0.7-1-1.1-2.1-1.1-3.4c0-0.1,0-0.3,0-0.4c0.4,0.2,0.8,0.4,1.2,0.6
		c0.8-2.9,3.4-5.1,6.5-5.1c0.5,0,1,0.1,1.5,0.2c0,0,0,0,0.1,0c3,0.7,5.2,3.3,5.2,6.5c0,0,0,0,0,0
		C372.8,249.7,369.9,252.6,366.2,252.7z"/>
	<path fill="#FFFFFF" d="M476.9,224.8c-18.4,0-32.8,14.4-32.8,32.8c0,18.1,14.3,32.8,31.8,32.8c2.6,0,6.9,0,10.6-1.9
		c2.4-1.2,4.1-3.4,4.6-6.1c1.4-7.1,6.4-13.2,13-15.8c3.3-1.3,5.5-4.5,5.5-8.1v-1C509.8,239.2,495.3,224.8,476.9,224.8z M498.2,246
		C498.2,246,498.2,246,498.2,246c0,3.7-2.9,6.7-6.5,6.8c-0.1,0-0.1,0-0.2,0c-3.7,0-6.8-3-6.8-6.8c0-0.6,0.1-1.2,0.2-1.7
		c0.8-2.9,3.4-5.1,6.5-5.1c0.5,0,1.1,0.1,1.6,0.2C495.9,240.1,498.1,242.8,498.2,246z"/>
	<path fill="#FFFFFF" d="M368,239.8c-0.1-0.1-0.3-0.2-0.4-0.4c0,0,0,0-0.1,0C367.7,239.5,367.8,239.7,368,239.8z"/>
</g>
<g>
	<path fill="#FFFFFF" d="M339,303.4c-1.9,0-3.7-1.3-4.2-3.3c-1.4-5.7-10.3-12.1-14.1-12.1c-2.4,0-4.3-1.9-4.3-4.3
		c0-2.4,1.9-4.3,4.3-4.3c7.8,0,20.1,9.1,22.5,18.7c0.6,2.3-0.8,4.7-3.2,5.3C339.7,303.3,339.4,303.4,339,303.4z"/>
</g>
</svg>
