<?xml version="1.0" encoding="utf-8"?>
<!-- Generator: Adobe Illustrator 18.1.1, SVG Export Plug-In . SVG Version: 6.00 Build 0)  -->
<svg version="1.1" id="Layer_1" xmlns="http://www.w3.org/2000/svg" xmlns:xlink="http://www.w3.org/1999/xlink" x="0px" y="0px"
	 viewBox="0 0 841.9 595.3" enable-background="new 0 0 841.9 595.3" xml:space="preserve">
<g>
	<g>
		<path fill="#DFD2BF" d="M264.7,497.8c-8.7,0-15.4-6.8-15.4-15.4v-92.6c92.6-50.2,219,82,332.8,55.9v36.7c0,8.7-6.8,15.4-15.4,15.4
			L264.7,497.8L264.7,497.8z"/>
	</g>
</g>
<g>
	<path fill="#6B5C59" d="M419.1,337.4c-11,0-20.3-3.9-26.2-11c-2.3-2.8-1.9-6.9,0.8-9.2c2.8-2.3,6.9-1.9,9.2,0.8
		c6.2,7.4,21.3,9.3,32.3,0.1c2.8-2.3,6.9-1.9,9.2,0.8c2.3,2.8,1.9,6.9-0.8,9.2C436.2,334.3,427.9,337.4,419.1,337.4z"/>
</g>
<g>
	<path fill="#C2B59B" d="M559.9,152h-1.7c-2.4,0-4.3-1.9-4.3-4.3s1.9-4.3,4.3-4.3h1.7c2.4,0,4.3,1.9,4.3,4.3S562.3,152,559.9,152z
		 M523.5,152h-60.8c-2.4,0-4.3-1.9-4.3-4.3s1.9-4.3,4.3-4.3h60.8c2.4,0,4.3,1.9,4.3,4.3S525.9,152,523.5,152z M427.9,152h-60.8
		c-2.4,0-4.3-1.9-4.3-4.3s1.9-4.3,4.3-4.3h60.8c2.4,0,4.3,1.9,4.3,4.3S430.3,152,427.9,152z M332.3,152h-60.8
		c-2.4,0-4.3-1.9-4.3-4.3s1.9-4.3,4.3-4.3h60.8c2.4,0,4.3,1.9,4.3,4.3S334.7,152,332.3,152z"/>
</g>
<g>
	<path fill="#C2B59B" d="M566.7,506.4H264.7c-13.5,0-24.1-10.6-24.1-24.1V151.5c0-6,2.7-12.1,7.4-16.8l44-49.8
		c5-5.1,11.2-7.8,17.1-7.8h213.2c6,0,12.1,2.7,16.8,7.4l44.7,49.5c4.4,4.4,7.1,10.5,7.1,16.4v331.8
		C590.8,495.9,580.2,506.4,566.7,506.4z M309.1,94.6c-1.3,0-3.1,0.9-4.5,2.3l-44,49.8c-1.7,1.8-2.6,3.5-2.6,4.9v330.9
		c0,3.9,2.8,6.7,6.7,6.7h301.9c3.9,0,6.7-2.8,6.7-6.7V150.5c0-1.3-0.9-3.1-2.3-4.5l-44.7-49.5c-1.1-1.1-2.8-2-4.2-2H309.1z"/>
</g>
<g>
	<circle fill="#FFFFFF" cx="364.1" cy="244.1" r="5.8"/>
</g>
<g>
	<g>
		<path fill="#786555" d="M351.5,233.5c-13.5,0-24.1,10.6-24.1,24.1c0,1,0,1,0,1.9c13.5,0,25.1,9.6,28,22.2
			c11.6-1.9,20.3-11.6,20.3-24.1C375.7,244.1,365.1,233.5,351.5,233.5z"/>
		<path fill="#786555" d="M355.4,290.4c-4,0-7.5-2.7-8.5-6.7c-2.1-9-10.3-15.5-19.5-15.5c-4.8,0-8.7-3.9-8.7-8.7v-1.9
			c0-18.4,14.4-32.8,32.8-32.8c18.4,0,32.8,14.4,32.8,32.8c0,16.5-11.3,30-27.5,32.7C356.3,290.3,355.9,290.4,355.4,290.4z
			 M337.1,252.1c9.9,2.7,18.4,9.4,23.3,18.5c4.1-2.8,6.6-7.5,6.6-13c0-8.7-6.8-15.4-15.4-15.4C344.8,242.1,339.3,246.2,337.1,252.1z
			"/>
	</g>
	<g>
		<path fill="#786555" d="M501.1,258.5v-1c0-13.5-10.6-24.1-24.1-24.1c-13.5,0-24.1,10.6-24.1,24.1c0,13.5,10.6,24.1,23.2,24.1
			c1.9,0,4.8,0,6.8-1C484.7,271.1,491.4,262.4,501.1,258.5z"/>
		<path fill="#786555" d="M476,290.4c-17.6,0-31.8-14.7-31.8-32.8c0-18.4,14.4-32.8,32.8-32.8c18.4,0,32.8,14.4,32.8,32.8v1
			c0,3.6-2.2,6.8-5.5,8.1c-6.6,2.6-11.6,8.7-13,15.8c-0.5,2.6-2.2,4.9-4.6,6.1C482.9,290.4,478.6,290.4,476,290.4z M476.9,242.1
			c-8.6,0-15.4,6.8-15.4,15.4c0,8.5,6.5,15.4,14.4,15.4c3-8,8.7-15,15.9-19.5C490.1,246.9,484.2,242.1,476.9,242.1z"/>
	</g>
</g>
<g>
	<circle fill="#FFFFFF" cx="491.4" cy="246" r="6.8"/>
</g>
<g>
	<circle fill="#FFFFFF" cx="366" cy="246" r="6.8"/>
</g>
<g>
	<path fill="#CCC9C6" d="M339,303.4c-1.9,0-3.7-1.3-4.2-3.3c-1.4-5.7-10.3-12.1-14.1-12.1c-2.4,0-4.3-1.9-4.3-4.3
		c0-2.4,1.9-4.3,4.3-4.3c7.8,0,20.1,9.1,22.5,18.7c0.6,2.3-0.8,4.7-3.2,5.3C339.7,303.3,339.4,303.4,339,303.4z"/>
</g>
</svg>
