<?xml version="1.0" encoding="utf-8"?>
<!-- Generator: Adobe Illustrator 18.1.1, SVG Export Plug-In . SVG Version: 6.00 Build 0)  -->
<svg version="1.1" id="Layer_1" xmlns="http://www.w3.org/2000/svg" xmlns:xlink="http://www.w3.org/1999/xlink" x="0px" y="0px"
	 viewBox="0 0 292.2 277.8" enable-background="new 0 0 292.2 277.8" xml:space="preserve">
<ellipse fill="#D8D8D8" cx="163.9" cy="244.7" rx="95.5" ry="2"/>
<path fill="none" stroke="#C2B59B" stroke-width="2" stroke-miterlimit="10" d="M49.2,139.9c-13.9-19.8-9.2-47.1,10.6-61
	s47.1-9.2,61,10.6l3.4,4.8l1.5,2.2"/>
<g>
	<path fill="#FFFFFF" stroke="#C2B59B" stroke-width="2" stroke-miterlimit="10" d="M140.7,177.4c-1.4,0.8-3.2,0.3-4-1.1l-31.2-53.6
		c-0.4-0.7-0.5-1.5-0.3-2.2l2.5-12.2c0.2-0.7,0.7-1.4,1.4-1.8l34.5-20c0.7-0.4,1.5-0.5,2.2-0.3l11.8,3.9c0.7,0.2,1.4,0.7,1.8,1.4
		l31.2,53.7c0.8,1.4,0.3,3.2-1.1,4L140.7,177.4z"/>
	<g>
		<path fill="#DFD2BF" d="M140.7,177.4c-1.4,0.8-3.2,0.3-4-1.1l-8.7-14.9c10.2-16.9,43.2-7.4,59.1-22.2l3.4,5.9
			c0.8,1.4,0.3,3.2-1.1,4L140.7,177.4z"/>
	</g>
	<path fill="none" stroke="#6B5C59" stroke-width="2" stroke-linecap="round" stroke-linejoin="round" stroke-miterlimit="10" d="
		M149.5,127.4c-0.5,1.3-1.4,2.4-2.6,3.2c-1.4,0.8-2.9,1-4.3,0.7"/>
	<line fill="none" stroke="#C2B59B" stroke-miterlimit="10" stroke-dasharray="12,1.5" x1="108.8" y1="120" x2="155.5" y2="92.9"/>
	<path fill="none" stroke="#6B5C59" stroke-width="2" stroke-linecap="round" stroke-linejoin="round" stroke-miterlimit="10" d="
		M131,127.9c-1.1-2-0.5-4.5,1.5-5.6c2-1.1,4.5-0.5,5.6,1.5"/>
	<path fill="none" stroke="#6B5C59" stroke-width="2" stroke-linecap="round" stroke-linejoin="round" stroke-miterlimit="10" d="
		M145.1,119.8c-1.1-2-0.5-4.5,1.5-5.6c2-1.1,4.5-0.5,5.6,1.5"/>
</g>
<g>
	<path fill="#968B85" d="M188.2,35c0,0,0.1,0.3,0.4,0.8c0.3,0.6,0.7,1.3,1.2,2.3c0.5,1,1.2,2.2,2,3.6c0.8,1.4,1.6,3,2.5,4.8
		c0.9,1.8,1.7,3.8,2.3,6.1c0.6,2.3,1,4.8,1,7.4c-0.1,2.6-0.6,5.4-1.8,8.1c-0.1,0.3-0.3,0.6-0.5,1l-0.1,0.2l0,0.1l-0.1,0.1l-0.1,0.1
		l-0.3,0.4c-0.2,0.3-0.3,0.5-0.5,0.8l-0.7,0.9c-0.9,1.2-1.8,2.2-2.8,3.1c-1.9,1.9-3.9,3.5-5.6,5.2c-1.7,1.7-3.1,3.4-3.8,5.3
		c-0.2,0.5-0.3,1-0.4,1.4l-0.1,0.4l-0.1,0.3c0,0.2-0.1,0.5-0.1,0.7c-0.1,1-0.1,2,0.1,3c0.3,2,0.9,3.9,1.6,5.6c0.7,1.8,1.4,3.4,2,4.9
		c0.6,1.5,1.1,2.8,1.4,4c0.3,1.1,0.5,2,0.6,2.7c0.1,0.6,0.1,1,0.1,1l-1,0.2c0,0-0.1-0.3-0.3-0.9c-0.2-0.6-0.5-1.4-1-2.4
		c-0.5-1-1.1-2.2-1.9-3.5c-0.8-1.3-1.7-2.9-2.6-4.7c-0.9-1.8-1.8-3.8-2.4-6.2c-0.3-1.2-0.4-2.5-0.4-3.8c0-0.3,0-0.7,0.1-1.1l0.1-0.5
		l0.1-0.4c0.1-0.7,0.3-1.4,0.5-2.1c1-2.7,2.7-5,4.6-6.9c1.9-1.9,3.8-3.7,5.6-5.4c0.9-0.8,1.7-1.7,2.4-2.6l0.5-0.6
		c0.2-0.2,0.4-0.5,0.5-0.8l0.3-0.4l0.1-0.1l0,0c-0.1,0.1,0,0,0,0.1l0,0l0.1-0.2c0.1-0.2,0.3-0.5,0.4-0.7c1-2,1.5-4.2,1.7-6.4
		c0.1-2.2,0-4.4-0.4-6.5c-0.4-2-1-4-1.6-5.8c-0.6-1.8-1.3-3.4-1.8-4.9c-0.6-1.5-1-2.8-1.4-3.9c-0.4-1.1-0.6-2-0.8-2.6
		c-0.2-0.6-0.2-0.9-0.2-0.9L188.2,35z"/>
</g>
<g>
	<path fill="#968B85" d="M215.9,59.6c0,0,0.1,0.3,0.4,0.8c0.3,0.6,0.7,1.3,1.2,2.3c0.5,1,1.2,2.2,2,3.6c0.8,1.4,1.6,3,2.5,4.8
		c0.9,1.8,1.7,3.8,2.3,6.1c0.6,2.3,1,4.8,1,7.4c-0.1,2.6-0.6,5.4-1.8,8.1c-0.1,0.3-0.3,0.6-0.5,1l-0.1,0.2l0,0.1l-0.1,0.1l-0.1,0.1
		l-0.3,0.4c-0.2,0.3-0.3,0.5-0.5,0.8l-0.7,0.9c-0.9,1.2-1.8,2.2-2.8,3.1c-1.9,1.9-3.9,3.5-5.6,5.2c-1.7,1.7-3.1,3.4-3.8,5.3
		c-0.2,0.5-0.3,1-0.4,1.4l-0.1,0.4l-0.1,0.3c0,0.2-0.1,0.5-0.1,0.7c-0.1,1-0.1,2,0.1,3c0.3,2,0.9,3.9,1.6,5.6c0.7,1.8,1.4,3.4,2,4.9
		c0.6,1.5,1.1,2.8,1.4,4c0.3,1.1,0.5,2,0.6,2.7c0.1,0.6,0.1,1,0.1,1l-1,0.2c0,0-0.1-0.3-0.3-0.9c-0.2-0.6-0.5-1.4-1-2.4
		c-0.5-1-1.1-2.2-1.9-3.5c-0.8-1.3-1.7-2.9-2.6-4.7c-0.9-1.8-1.8-3.8-2.4-6.2c-0.3-1.2-0.4-2.5-0.4-3.8c0-0.3,0-0.7,0.1-1.1l0.1-0.5
		l0.1-0.4c0.1-0.7,0.3-1.4,0.5-2.1c1-2.7,2.7-5,4.6-6.9c1.9-1.9,3.8-3.7,5.6-5.4c0.9-0.8,1.7-1.7,2.4-2.6l0.5-0.6
		c0.2-0.2,0.4-0.5,0.5-0.8l0.3-0.4l0.1-0.1l0,0c-0.1,0.1,0,0,0,0.1l0,0l0.1-0.2c0.1-0.2,0.3-0.5,0.4-0.7c1-2,1.5-4.2,1.7-6.4
		c0.1-2.2,0-4.4-0.4-6.5c-0.4-2-1-4-1.6-5.8c-0.6-1.8-1.3-3.4-1.8-4.9c-0.6-1.5-1-2.8-1.4-3.9c-0.4-1.1-0.6-2-0.8-2.6
		c-0.2-0.6-0.2-0.9-0.2-0.9L215.9,59.6z"/>
</g>
<g>
	<path fill="#968B85" d="M87.4,49.6c0,0,0.1,0.3,0.4,0.8c0.3,0.6,0.7,1.3,1.2,2.3c0.5,1,1.2,2.2,2,3.6c0.8,1.4,1.6,3,2.5,4.8
		c0.9,1.8,1.7,3.8,2.3,6.1c0.6,2.3,1,4.8,1,7.4c-0.1,2.6-0.6,5.4-1.8,8.1c-0.1,0.3-0.3,0.6-0.5,1L94.4,84l0,0.1l-0.1,0.1l-0.1,0.1
		l-0.3,0.4c-0.2,0.3-0.3,0.5-0.5,0.8l-0.7,0.9c-0.9,1.2-1.8,2.2-2.8,3.1c-1.9,1.9-3.9,3.5-5.6,5.2c-1.7,1.7-3.1,3.4-3.8,5.3
		c-0.2,0.5-0.3,1-0.4,1.4l-0.1,0.4l-0.1,0.3c0,0.2-0.1,0.5-0.1,0.7c-0.1,1-0.1,2,0.1,3c0.3,2,0.9,3.9,1.6,5.6c0.7,1.8,1.4,3.4,2,4.9
		c0.6,1.5,1.1,2.8,1.4,4c0.3,1.1,0.5,2,0.6,2.7c0.1,0.6,0.1,1,0.1,1l-1,0.2c0,0-0.1-0.3-0.3-0.9c-0.2-0.6-0.5-1.4-1-2.4
		c-0.5-1-1.1-2.2-1.9-3.5c-0.8-1.3-1.7-2.9-2.6-4.7c-0.9-1.8-1.8-3.8-2.4-6.2c-0.3-1.2-0.4-2.5-0.4-3.8c0-0.3,0-0.7,0.1-1.1l0.1-0.5
		l0.1-0.4c0.1-0.7,0.3-1.4,0.5-2.1c1-2.7,2.7-5,4.6-6.9c1.9-1.9,3.8-3.7,5.6-5.4c0.9-0.8,1.7-1.7,2.4-2.6l0.5-0.6
		c0.2-0.2,0.4-0.5,0.5-0.8l0.3-0.4l0.1-0.1l0,0c-0.1,0.1,0,0,0,0.1l0,0l0.1-0.2c0.1-0.2,0.3-0.5,0.4-0.7c1-2,1.5-4.2,1.7-6.4
		c0.1-2.2,0-4.4-0.4-6.5c-0.4-2-1-4-1.6-5.8c-0.6-1.8-1.3-3.4-1.8-4.9c-0.6-1.5-1-2.8-1.4-3.9c-0.4-1.1-0.6-2-0.8-2.6
		c-0.2-0.6-0.2-0.9-0.2-0.9L87.4,49.6z"/>
</g>
<g>
	<path fill="#FFFFFF" d="M233.6,134.5"/>
	<path fill="#FFFFFF" d="M226.6,139.4c4,0,7.1,3.4,6.7,7.4c-1.6,16.6-3.7,33.3-10.6,48.7c-12.9,28.6-38.2,49.1-70.5,49.1
		c-17.7,0-35.1-6.5-48.5-18c-16.4-14.2-23.3-33.9-27.1-54.7c-1.5-8.2-2.6-16.5-3.5-24.8c-0.4-4,2.7-7.5,6.7-7.5L226.6,139.4z"/>
</g>
<g>
	<path fill="#D1D3D4" d="M150.8,244.2c-17.7,0-35.1-6.5-48.5-18C85.8,212,79,192.2,75.1,171.5c-0.8-4.1,6.8,30.6,32,50
		c18,13.9,58.2,18.7,62.7,20.7C171.4,242.9,154.9,244.2,150.8,244.2z"/>
</g>
<g>
	<path fill="#EFEFF0" d="M169.8,242.2c-9.5,0.4-30.2-2.5-38.5-6.5c-9.8-4.6-19.2-10-27.4-16.9c-6.5-5.5-12.2-12-16.3-19.4
		c-4.7-8.3-8.3-17.1-12.5-25.7c-1.8-3.7,14.1,23.2,37.1,42.2c13.6,11.2,31.9,16.8,48.2,23.4C161,239.6,169.2,242,169.8,242.2z"/>
</g>
<g>
	<path fill="none" stroke="#938985" stroke-width="3" stroke-miterlimit="10" d="M232.9,134.5"/>
	<path fill="none" stroke="#938985" stroke-width="3" stroke-miterlimit="10" d="M225.9,139.4c4,0,7.1,3.4,6.7,7.4
		c-1.6,16.6-3.7,33.3-10.6,48.7c-12.9,28.6-38.2,49.1-70.5,49.1c-17.7,0-35.1-6.5-48.5-18c-16.4-14.2-23.3-33.9-27.1-54.7
		c-1.5-8.2-2.6-16.5-3.5-24.8c-0.4-4,2.7-7.5,6.7-7.5L225.9,139.4z"/>
</g>
<path fill="#FFFFFF" stroke="#938985" stroke-width="3" stroke-miterlimit="10" d="M221.9,195.5c12.7,0,23.1-10.3,23.1-23.1v-1v-7.6
	c0-2.1-1.7-3.9-3.9-3.9h-8.9l0.4-12.6h20c3.7,0,6.7,3,6.7,6.7v13.2v0.4c0,22.1-17.9,40-40,40h-3.1L221.9,195.5z"/>
<path fill="none" stroke="#6B5C59" stroke-width="2" stroke-linecap="round" stroke-linejoin="round" stroke-miterlimit="10" d="
	M163.2,200.4c-2.8,2.4-6.4,3.8-10.3,3.8c-4.2,0-8-1.6-10.8-4.2"/>
<path fill="none" stroke="#6B5C59" stroke-width="2" stroke-linecap="round" stroke-linejoin="round" stroke-miterlimit="10" d="
	M120,176.8c0-6,4.9-10.9,10.9-10.9c6,0,10.9,4.9,10.9,10.9"/>
<path fill="none" stroke="#6B5C59" stroke-width="2" stroke-linecap="round" stroke-linejoin="round" stroke-miterlimit="10" d="
	M163.2,176.8c0-6,4.9-10.9,10.9-10.9c6,0,10.9,4.9,10.9,10.9"/>
<path fill="#FFFFFF" stroke="#968B85" stroke-width="3" stroke-miterlimit="10" d="M40.4,154.3l4-15.7c0.8-3,3.8-4.8,6.7-4l15.7,4
	c0.4,0.1,0.8,0.4,1.1,0.8l12.5,21c0.5,0.8,0.2,1.9-0.6,2.4l-24.4,14.5c-0.8,0.5-1.9,0.2-2.4-0.6l-12.5-21
	C40.3,155.3,40.3,154.8,40.4,154.3z"/>
<line fill="none" stroke="#C2B59B" stroke-width="2" stroke-miterlimit="10" x1="72.2" y1="157.1" x2="53.2" y2="168.4"/>
</svg>
