<?xml version="1.0" encoding="utf-8"?>
<!-- Generator: Adobe Illustrator 19.0.0, SVG Export Plug-In . SVG Version: 6.00 Build 0)  -->
<svg version="1.1" id="Layer_1" xmlns="http://www.w3.org/2000/svg" xmlns:xlink="http://www.w3.org/1999/xlink" x="0px" y="0px"
	 viewBox="0 0 229.3 278" style="enable-background:new 0 0 229.3 278;" xml:space="preserve">
<style type="text/css">
	.st0{fill:none;stroke:#00A651;stroke-width:2;stroke-linecap:round;stroke-linejoin:round;stroke-miterlimit:10;}
	.st1{fill:none;stroke:#00A651;stroke-linecap:round;stroke-linejoin:round;stroke-miterlimit:10;}
	.st2{fill:none;stroke:#00A651;stroke-linecap:round;stroke-miterlimit:10;stroke-dasharray:12,1.5;}
	.st3{fill:#00A651;}
	.st4{fill:#FFFFFF;stroke:#00A651;stroke-miterlimit:10;}
</style>
<path id="XMLID_16_" class="st0" d="M-294.7,61l-15.7,15.7c-1.8,1.8-4.7,1.8-6.4,0L-332.5,61V29h37.9V61z"/>
<path id="XMLID_15_" class="st0" d="M-313.6,83.1L-325,94.6c-2.9,2.9,0.5,7.7,4.2,5.8l95.1-47.4c3.3-1.6,6.7,2.1,4.7,5.2l-32.4,38.6
	"/>
<line id="XMLID_14_" class="st1" x1="-330.4" y1="37.3" x2="-297.8" y2="37.3"/>
<path id="XMLID_11_" class="st0" d="M-243.6,189.9c-2.1,1.8-4.7,2.8-7.7,2.8c-3.1,0-5.9-1.2-8-3.1"/>
<line id="XMLID_10_" class="st2" x1="-305.8" y1="124.8" x2="-199" y2="124.8"/>
<path id="XMLID_63_" class="st3" d="M-191.8,121.3l-16.4-18.4c-1.3-1.3-3-2-4.8-2h-78.8c-1.8,0-3.5,0.7-4.8,2l-16.4,18.4
	c-1.3,1.3-2,3-2,4.8v122.6c0,3.7,3,6.8,6.8,6.8h111.6c3.7,0,6.8-3,6.8-6.8V126C-189.9,124.3-190.6,122.5-191.8,121.3z M-311.6,122.7
	l16.4-18.4c0.9-0.9,2.1-1.4,3.4-1.4h78.8c1.3,0,2.5,0.5,3.3,1.4l16.4,18.4c0.9,0.9,1.4,2.1,1.4,3.4v109.5
	c-41.4,8.4-87.4-38.6-121.1-21.4v-87.9C-313,124.9-312.5,123.7-311.6,122.7z"/>
<g id="XMLID_5_">
	<path id="XMLID_7_" class="st3" d="M-276.1,156.5c-5,0-9,4-9,9c0,0.2,0,0.5,0,0.7c5,0,9.2,3.5,10.3,8.2c4.3-0.7,7.6-4.4,7.6-8.9
		C-267.2,160.6-271.2,156.5-276.1,156.5z"/>
	<path id="XMLID_6_" class="st3" d="M-221,166c0-0.1,0-0.3,0-0.4c0-5-4-9-9-9c-5,0-9,4-9,9s4,9,9,9c0.8,0,1.6-0.1,2.4-0.3
		C-227,170.4-224.5,167.3-221,166z"/>
</g>
<circle id="XMLID_4_" class="st4" cx="-227.6" cy="160.7" r="2.2"/>
<circle id="XMLID_3_" class="st4" cx="-273.6" cy="160.7" r="2.2"/>
<path id="XMLID_70_" class="st0" d="M66.3,65.3L52.5,91.1c-1.6,2.9-5.2,4-8.1,2.5L18.6,79.8L6.4,39.5L54,25L66.3,65.3z"/>
<path id="XMLID_69_" class="st0" d="M50.9,100.4l-10,18.8c-2.6,4.8,3.6,9.4,7.5,5.7L150,28.8c3.5-3.3,9.2,0.1,7.9,4.7l-26,61"/>
<line id="XMLID_68_" class="st1" x1="12.2" y1="49" x2="53.2" y2="36.6"/>
<path id="XMLID_67_" class="st0" d="M179.9,208c-1.9,3-4.9,5.4-8.6,6.5c-3.9,1.2-7.9,0.8-11.3-0.9"/>
<line id="XMLID_66_" class="st2" x1="76.6" y1="149.9" x2="211.1" y2="109"/>
<path id="XMLID_60_" class="st3" d="M218.8,101.8L191.2,85c-2.1-1.1-4.5-1.4-6.8-0.7l-99.3,30.2c-2.3,0.7-4.1,2.2-5.3,4.4
	l-13.6,29.4c-1.1,2.1-1.4,4.5-0.7,6.8L103,278h126.3l0-150.6l-6.2-20.3C222.4,104.8,220.8,102.9,218.8,101.8z M229.3,254.6
	c-45.4,3.6-99-17-127.5,10.4L68.1,154.3c-0.5-1.6-0.3-3.3,0.5-4.8L82.2,120c0.8-1.5,2.1-2.6,3.7-3l99.3-30.2
	c1.6-0.5,3.3-0.3,4.7,0.4l27.6,16.9c1.5,0.8,2.6,2.1,3,3.7l8.7,28.6"/>
<g id="XMLID_57_">
	<path id="XMLID_59_" class="st3" d="M126.1,178.5c-6.2,1.9-9.8,8.5-7.9,14.7c0.1,0.3,0.2,0.6,0.3,0.9c6.3-1.9,12.9,0.9,16.1,6.4
		c5.2-2.5,7.9-8.4,6.2-14.1C139,180.1,132.4,176.6,126.1,178.5z"/>
	<path id="XMLID_58_" class="st3" d="M199.1,169.2c0-0.2-0.1-0.4-0.1-0.6c-1.9-6.2-8.5-9.8-14.7-7.9c-6.2,1.9-9.8,8.5-7.9,14.7
		c1.9,6.2,8.5,9.8,14.7,7.9c1-0.3,2-0.8,2.9-1.3C193.3,177.1,195.3,172.3,199.1,169.2z"/>
</g>
<circle id="XMLID_13_" class="st4" cx="188.8" cy="165.1" r="2.9"/>
<circle id="XMLID_12_" class="st4" cx="130.9" cy="182.7" r="2.9"/>
</svg>
