<?xml version="1.0" encoding="utf-8"?>
<!-- Generator: Adobe Illustrator 18.1.1, SVG Export Plug-In . SVG Version: 6.00 Build 0)  -->
<svg version="1.1" id="Layer_1" xmlns="http://www.w3.org/2000/svg" xmlns:xlink="http://www.w3.org/1999/xlink" x="0px" y="0px"
	 viewBox="0 0 400 250" enable-background="new 0 0 400 250" xml:space="preserve">
<path fill="#9ED090" stroke="#5BB947" stroke-miterlimit="10" d="M321,96.2c-10-22.3-5.6-46.6,9.3-60.8c1-0.9-0.1-2.7-1.4-2.3
	c-9.9,3.1-19.1,9.8-26.3,21c-3.5,5.4-5.5,11.8-5.7,18.7c-0.5,12.7,2.2,24.1,7.1,33.7c7.7-0.5,15.2-0.6,22.6-0.4
	C324.4,103,322.5,99.7,321,96.2z"/>
<path fill="#9ED090" stroke="#5BB947" stroke-miterlimit="10" d="M260,89.3c10-22.3,5.6-46.6-9.3-60.8c-1-0.9,0.1-2.7,1.4-2.3
	c9.9,3.1,19.1,9.8,26.3,21c3.5,5.4,5.5,11.8,5.7,18.7c0.5,12.7-2.2,24.1-7.1,33.7c-7.7-0.5-15.2-0.6-22.6-0.4
	C256.5,96,258.4,92.8,260,89.3z"/>
<path fill="#9ED090" stroke="#5BB947" stroke-miterlimit="10" d="M297.6,27.6c0.3-1.1-1-2.1-1.8-1.3c-2.6,2.9-4.9,6.2-6.9,9.9
	c-8,15.4-7.1,35,1.2,51.4c6.9-1.1,14.1-1.9,21.5-2.5C297,69.1,291.7,46.5,297.6,27.6z"/>
<path fill="#9ED090" stroke="#5BB947" stroke-miterlimit="10" d="M251.7,55.5c-0.4-1-1.8-0.8-1.7,0.3c0.4,7.5,2.3,15.4,6,23.4
	c2.5,5.3,5.6,10.1,9.4,14.4c6.8-2.2,14.1-4,21.7-5.3C271.9,83.2,258.7,71.1,251.7,55.5z"/>
<path fill="#9ED090" stroke="#5BB947" stroke-miterlimit="10" d="M332.2,71.2c1.1-8.3,0.4-16.3-1.6-23.7c-0.3-1-1.6-1-1.8,0
	C327,64,317.7,77.7,304.1,84.6c8,0.4,15.8,1.3,23.2,2.6C329.8,82.3,331.5,76.9,332.2,71.2z"/>
<circle fill="#344A9E" cx="303.3" cy="132.2" r="58.2"/>
<g>
	<circle fill="#344A9E" cx="303.3" cy="129.6" r="22.4"/>
</g>
<path fill="#5B6DB2" d="M359.7,123.1c0-19.2-15.6-34.8-34.8-34.8c-10.6,0-20,4.7-26.4,12.2c-5.6-3.6-12.3-5.6-19.4-5.6
	c-20.1,0-36.4,16.3-36.4,36.4s16.3,36.4,36.4,36.4c4.1,0,8-0.7,11.7-1.9c4.8,7.5,13.3,12.5,22.8,12.5c13.9,0,25.3-10.4,27-23.8
	C351.9,148.5,359.7,136.7,359.7,123.1z"/>
<g>
	<circle fill="#5B6DB2" cx="234.9" cy="135.1" r="22.4"/>
	<g>
		<path fill="#5367AF" d="M238.4,157.1c0,0-0.2,0-0.5,0.1c-0.3,0-0.8,0.1-1.3,0.2c-0.6,0.1-1.3,0.1-2.1,0.1c-0.8,0-1.7-0.1-2.7-0.2
			c-0.5-0.1-1-0.2-1.6-0.2c-0.5-0.1-1.1-0.2-1.7-0.4c-1.1-0.3-2.3-0.7-3.5-1.2c-1.2-0.5-2.4-1.2-3.5-2c-1.1-0.8-2.2-1.9-3-3
			c-0.4-0.5-0.8-1-1.2-1.6c-0.4-0.6-0.8-1.1-1.1-1.7c-0.7-1.1-1.3-2.3-1.8-3.5c-0.5-1.2-0.9-2.4-1.2-3.5c-0.3-1.2-0.4-2.3-0.4-3.3
			c-0.1-2,0.1-3.7,0.2-4.8c0.1-1.2,0.2-1.8,0.2-1.8s0.2,0.6,0.4,1.8c0.2,1.1,0.5,2.8,0.9,4.6c0.2,0.9,0.5,1.9,0.9,2.9
			c0.4,1,0.9,2,1.4,3c0.6,1,1.2,2,1.9,3.1c0.7,1,1.4,2,2.2,3.1c0.7,1,1.5,1.8,2.4,2.5c0.9,0.7,1.9,1.4,2.9,1.9c1,0.5,2,1.1,3,1.5
			c1,0.4,2,0.8,2.9,1.1c0.9,0.3,1.8,0.5,2.5,0.7c0.8,0.2,1.4,0.4,2,0.5C237.8,157,238.4,157.1,238.4,157.1L238.4,157.1z"/>
	</g>
	<g>
		<path fill="#4858A0" d="M241.3,156.5c0,0-0.2,0-0.5,0.1c-0.3,0.1-0.8,0.2-1.4,0.3c-1.2,0.2-2.9,0.2-5-0.1c-1-0.2-2.1-0.4-3.3-0.8
			c-1.1-0.4-2.3-0.8-3.5-1.4c-2.4-1.1-4.7-2.6-6.8-4.5c-1.1-1-2-2-2.8-3.2c-0.8-1.1-1.5-2.3-2.1-3.4c-0.6-1.1-1.1-2.3-1.5-3.4
			c-0.4-1.1-0.8-2.2-1-3.2c-0.3-1-0.4-1.9-0.5-2.8c-0.1-0.8-0.1-1.6-0.1-2.2c0-0.6,0.1-1.1,0.2-1.4c0.1-0.3,0.1-0.5,0.1-0.5
			s0,0.2,0.1,0.5c0,0.3,0.1,0.8,0.3,1.3c0.1,0.3,0.2,0.6,0.3,0.9c0.1,0.3,0.2,0.7,0.3,1.1c0.1,0.4,0.3,0.8,0.5,1.2
			c0.2,0.4,0.3,0.8,0.5,1.3c0.4,0.9,0.9,1.8,1.4,2.8c0.6,1,1.1,2,1.8,3c0.7,1,1.4,2,2.1,3c0.8,0.9,1.6,1.9,2.5,2.7
			c1.8,1.7,4,3.1,6,4.4c1,0.6,2.1,1.2,3.1,1.6c1,0.5,2,0.9,2.9,1.2c1.8,0.7,3.4,1,4.6,1.2c0.6,0.1,1,0.1,1.3,0.2
			C241.1,156.5,241.3,156.5,241.3,156.5L241.3,156.5z"/>
	</g>
</g>
<g>
	<circle fill="#5B6DB2" cx="247.7" cy="93.8" r="22.6"/>
	<g>
		<path fill="#5367AF" d="M251.3,116.2c0,0-0.2,0-0.5,0.1c-0.3,0-0.8,0.1-1.4,0.2c-0.6,0.1-1.3,0.1-2.1,0.1c-0.8,0-1.8-0.1-2.8-0.2
			c-0.5-0.1-1-0.2-1.6-0.2c-0.5-0.1-1.1-0.2-1.7-0.4c-1.2-0.3-2.3-0.7-3.5-1.2c-1.2-0.6-2.4-1.2-3.5-2.1c-1.1-0.8-2.2-1.9-3-3.1
			c-0.4-0.5-0.8-1-1.2-1.6c-0.4-0.6-0.8-1.1-1.1-1.7c-0.7-1.2-1.3-2.3-1.9-3.5c-0.5-1.2-0.9-2.4-1.2-3.6c-0.3-1.2-0.4-2.3-0.5-3.3
			c-0.1-2.1,0.1-3.7,0.2-4.9c0.1-1.2,0.2-1.8,0.2-1.8s0.2,0.6,0.4,1.8c0.2,1.1,0.5,2.8,0.9,4.7c0.2,0.9,0.5,1.9,0.9,2.9
			c0.4,1,0.9,2,1.5,3.1c0.6,1,1.2,2.1,1.9,3.1c0.7,1,1.4,2,2.3,3.1c0.7,1,1.5,1.8,2.4,2.6c0.9,0.7,1.9,1.4,2.9,2
			c1,0.5,2,1.1,3.1,1.5c1,0.4,2,0.8,2.9,1.1c0.9,0.3,1.8,0.5,2.5,0.7c0.8,0.2,1.5,0.4,2,0.5C250.6,116,251.3,116.2,251.3,116.2
			L251.3,116.2z"/>
	</g>
	<g>
		<path fill="#4858A0" d="M254.2,115.5c0,0-0.2,0-0.5,0.1c-0.3,0.1-0.8,0.2-1.4,0.3c-1.2,0.2-3,0.2-5-0.2c-1-0.2-2.1-0.4-3.3-0.8
			c-1.1-0.4-2.3-0.8-3.5-1.4c-2.4-1.1-4.8-2.6-6.9-4.5c-1.1-1-2-2-2.9-3.2c-0.8-1.1-1.5-2.3-2.2-3.4c-0.6-1.2-1.1-2.3-1.6-3.4
			c-0.4-1.1-0.8-2.2-1-3.2c-0.3-1-0.4-2-0.5-2.8c-0.1-0.8-0.1-1.6-0.1-2.2c0-0.6,0.1-1.1,0.2-1.4c0.1-0.3,0.1-0.5,0.1-0.5
			s0,0.2,0.1,0.5c0,0.2,0.1,0.3,0.1,0.6c0.1,0.2,0.1,0.5,0.2,0.8c0.1,0.3,0.2,0.6,0.3,0.9c0.1,0.3,0.2,0.7,0.3,1.1
			c0.1,0.4,0.3,0.8,0.5,1.2c0.2,0.4,0.3,0.9,0.5,1.3c0.4,0.9,0.9,1.8,1.4,2.8c0.6,1,1.1,2,1.8,3c0.7,1,1.4,2,2.2,3
			c0.8,0.9,1.6,1.9,2.5,2.8c1.9,1.7,4,3.2,6.1,4.4c1.1,0.6,2.1,1.2,3.1,1.7c1,0.5,2,0.9,2.9,1.2c1.8,0.7,3.5,1.1,4.6,1.2
			c0.6,0.1,1,0.1,1.4,0.2C254,115.5,254.2,115.5,254.2,115.5L254.2,115.5z"/>
	</g>
</g>
<g>
	<circle fill="#5B6DB2" cx="287" cy="156.6" r="22.4"/>
</g>
<g>
	<circle fill="#5B6DB2" cx="293.7" cy="85.6" r="25.7"/>
	<g>
		<path fill="#5367AF" d="M297.7,111c0,0-0.2,0-0.5,0.1c-0.4,0-0.9,0.1-1.5,0.2c-0.7,0.1-1.5,0.1-2.4,0.1c-0.5,0-1,0-1.5-0.1
			c-0.5,0-1.1-0.1-1.6-0.2c-0.6-0.1-1.2-0.2-1.8-0.3c-0.6-0.1-1.2-0.3-1.9-0.5c-1.3-0.3-2.6-0.8-4-1.4c-1.3-0.6-2.7-1.4-4-2.3
			c-1.3-0.9-2.5-2.2-3.4-3.5c-0.4-0.6-0.9-1.2-1.3-1.8c-0.4-0.7-0.9-1.3-1.3-1.9c-0.8-1.3-1.5-2.6-2.1-4c-0.6-1.3-1-2.7-1.4-4
			c-0.3-1.3-0.5-2.6-0.5-3.8c-0.1-2.3,0.1-4.2,0.1-5.5c0.1-1.3,0.1-2.1,0.1-2.1s0.2,0.7,0.4,2c0.3,1.3,0.5,3.2,1,5.3
			c0.2,1.1,0.6,2.2,1,3.3c0.4,1.1,1,2.3,1.6,3.5c0.6,1.2,1.4,2.4,2.2,3.6c0.8,1.2,1.6,2.3,2.6,3.5c0.9,1.1,1.7,2.1,2.8,2.9
			c1.1,0.8,2.2,1.6,3.4,2.3c1.2,0.6,2.4,1.2,3.5,1.7c1.2,0.5,2.3,0.8,3.3,1.2c1.1,0.3,2,0.6,2.9,0.8c0.9,0.2,1.7,0.4,2.3,0.5
			c0.6,0.1,1.2,0.2,1.5,0.3C297.6,110.9,297.7,111,297.7,111L297.7,111z"/>
	</g>
	<g>
		<path fill="#4858A0" d="M301,110.2c0,0-0.2,0-0.5,0.1c-0.3,0.1-0.9,0.2-1.6,0.3c-1.4,0.2-3.4,0.2-5.7-0.2
			c-1.2-0.2-2.4-0.5-3.7-0.9c-1.3-0.4-2.6-0.9-4-1.6c-2.7-1.3-5.4-2.9-7.8-5.1c-1.2-1.1-2.3-2.3-3.2-3.6c-1-1.3-1.7-2.6-2.4-3.9
			c-0.7-1.3-1.3-2.6-1.8-3.9c-0.5-1.3-0.9-2.5-1.2-3.6c-0.3-1.1-0.5-2.2-0.6-3.2c-0.1-0.5-0.1-0.9-0.1-1.3c0-0.4,0-0.8,0-1.1
			c0-0.7,0.1-1.2,0.2-1.6c0.1-0.4,0.1-0.5,0.1-0.5s0,0.2,0.1,0.6c0,0.2,0.1,0.4,0.1,0.7c0.1,0.3,0.1,0.5,0.2,0.9
			c0.1,0.3,0.2,0.7,0.3,1.1c0.1,0.4,0.2,0.8,0.4,1.2c0.1,0.4,0.3,0.9,0.5,1.4c0.2,0.5,0.4,1,0.6,1.5c0.4,1,1,2.1,1.6,3.3
			c0.6,1.1,1.3,2.3,2,3.5c0.8,1.2,1.6,2.3,2.5,3.5c0.9,1.1,1.9,2.2,2.9,3.2c1.1,1,2.2,1.9,3.4,2.7c1.2,0.8,2.4,1.6,3.6,2.3
			c1.2,0.7,2.4,1.3,3.6,1.9c1.2,0.5,2.3,1,3.3,1.4c2.1,0.7,3.9,1.1,5.3,1.3c0.7,0.1,1.2,0.1,1.5,0.1
			C300.8,110.2,301,110.2,301,110.2L301,110.2z"/>
	</g>
</g>
<g>
	<circle fill="#5B6DB2" cx="340.8" cy="82.3" r="23.7"/>
	<g>
		<path fill="#5367AF" d="M344.5,105.7c0,0-0.2,0-0.5,0.1c-0.3,0-0.8,0.1-1.4,0.2c-0.6,0.1-1.4,0.1-2.2,0.1c-0.9,0-1.8-0.1-2.9-0.2
			c-0.5-0.1-1.1-0.2-1.7-0.3c-0.6-0.1-1.2-0.2-1.8-0.4c-1.2-0.3-2.4-0.7-3.7-1.3c-1.2-0.6-2.5-1.3-3.7-2.2c-1.2-0.9-2.3-2-3.2-3.2
			c-0.4-0.6-0.8-1.1-1.2-1.7c-0.4-0.6-0.8-1.2-1.2-1.8c-0.7-1.2-1.4-2.4-1.9-3.7c-0.6-1.2-0.9-2.5-1.3-3.7c-0.3-1.2-0.4-2.4-0.5-3.5
			c-0.1-2.2,0.1-3.9,0.2-5.1c0.1-1.2,0.2-1.9,0.2-1.9s0.2,0.7,0.4,1.9c0.3,1.2,0.5,2.9,0.9,4.9c0.2,1,0.6,2,0.9,3.1
			c0.4,1.1,0.9,2.1,1.5,3.2c0.6,1.1,1.3,2.2,2,3.3c0.7,1.1,1.5,2.1,2.4,3.3c0.8,1,1.6,1.9,2.6,2.7c1,0.8,2,1.5,3.1,2.1
			c1.1,0.6,2.2,1.1,3.2,1.5c1.1,0.4,2.1,0.8,3.1,1.1c1,0.3,1.9,0.5,2.7,0.8c0.8,0.2,1.5,0.4,2.1,0.5
			C343.8,105.6,344.5,105.7,344.5,105.7L344.5,105.7z"/>
	</g>
	<g>
		<path fill="#4858A0" d="M347.6,105c0,0-0.2,0-0.5,0.1c-0.3,0.1-0.8,0.2-1.4,0.3c-1.3,0.2-3.1,0.2-5.3-0.2
			c-1.1-0.2-2.3-0.5-3.4-0.9c-1.2-0.4-2.5-0.8-3.7-1.5c-2.5-1.2-5-2.7-7.3-4.7c-1.1-1-2.1-2.1-3-3.3c-0.9-1.2-1.6-2.4-2.3-3.6
			c-0.7-1.2-1.2-2.4-1.7-3.6c-0.4-1.2-0.8-2.3-1.1-3.4c-0.3-1.1-0.4-2.1-0.5-2.9c-0.1-0.9-0.1-1.7-0.1-2.3c0-0.6,0.1-1.1,0.2-1.5
			c0.1-0.3,0.1-0.5,0.1-0.5s0,0.2,0.1,0.5c0,0.2,0.1,0.4,0.1,0.6c0.1,0.2,0.1,0.5,0.2,0.8c0.1,0.3,0.2,0.6,0.3,1
			c0.1,0.4,0.2,0.7,0.4,1.1c0.1,0.4,0.3,0.8,0.5,1.3c0.2,0.4,0.4,0.9,0.6,1.4c0.4,0.9,0.9,1.9,1.5,3c0.6,1,1.2,2.1,1.9,3.2
			c0.7,1.1,1.5,2.1,2.3,3.2c0.8,1,1.7,2,2.7,2.9c1,0.9,2,1.7,3.1,2.5c1.1,0.8,2.2,1.5,3.3,2.1c1.1,0.6,2.2,1.2,3.3,1.7
			c1.1,0.5,2.1,0.9,3.1,1.3c1.9,0.7,3.6,1.1,4.9,1.2c0.6,0.1,1.1,0.1,1.4,0.2C347.4,105,347.6,105,347.6,105L347.6,105z"/>
	</g>
</g>
<g>
	<circle fill="#5B6DB2" cx="339.7" cy="194.2" r="26.3"/>
	<g>
		<path fill="#5367AF" d="M343.8,220.2c0,0-0.2,0-0.6,0.1c-0.4,0-0.9,0.1-1.6,0.2c-0.7,0.1-1.5,0.1-2.5,0.1c-0.5,0-1,0-1.5-0.1
			c-0.5,0-1.1-0.1-1.7-0.2c-0.6-0.1-1.2-0.2-1.8-0.3c-0.6-0.2-1.3-0.3-1.9-0.5c-1.3-0.3-2.7-0.8-4.1-1.5c-1.4-0.6-2.8-1.4-4.1-2.4
			c-1.3-0.9-2.5-2.2-3.5-3.5c-0.5-0.6-0.9-1.2-1.4-1.9c-0.4-0.7-0.9-1.3-1.3-2c-0.8-1.3-1.5-2.7-2.2-4.1c-0.7-1.4-1.1-2.8-1.4-4.1
			c-0.3-1.3-0.5-2.7-0.6-3.8c-0.1-2.4,0.1-4.3,0.1-5.7c0.1-1.4,0.1-2.1,0.1-2.1s0.2,0.8,0.4,2.1c0.3,1.3,0.5,3.3,1,5.5
			c0.2,1.1,0.6,2.2,1,3.4c0.4,1.2,1,2.4,1.7,3.6c0.6,1.2,1.4,2.4,2.2,3.6c0.8,1.2,1.7,2.4,2.6,3.6c0.9,1.2,1.8,2.1,2.9,3
			c1.1,0.9,2.3,1.6,3.5,2.3c1.2,0.6,2.4,1.2,3.6,1.7c1.2,0.5,2.3,0.9,3.4,1.2c1.1,0.3,2.1,0.6,3,0.8c0.9,0.2,1.7,0.4,2.4,0.5
			c0.7,0.1,1.2,0.2,1.5,0.3C343.6,220.2,343.8,220.2,343.8,220.2L343.8,220.2z"/>
	</g>
	<g>
		<path fill="#4858A0" d="M347.1,219.5c0,0-0.2,0-0.6,0.1c-0.4,0.1-0.9,0.2-1.6,0.3c-1.4,0.2-3.4,0.2-5.8-0.3
			c-1.2-0.2-2.5-0.5-3.8-1c-1.3-0.4-2.7-1-4.1-1.6c-2.7-1.3-5.5-3-8-5.2c-1.3-1.1-2.3-2.4-3.3-3.7c-1-1.3-1.8-2.7-2.5-4
			c-0.8-1.3-1.3-2.7-1.8-4c-0.5-1.3-0.9-2.5-1.2-3.7c-0.3-1.2-0.5-2.3-0.6-3.3c-0.1-0.5-0.1-0.9-0.1-1.4c0-0.4,0-0.8,0-1.2
			c0-0.4,0-0.7,0.1-0.9c0-0.3,0.1-0.5,0.1-0.7c0.1-0.4,0.1-0.6,0.1-0.6s0,0.2,0.1,0.6c0,0.2,0.1,0.4,0.1,0.7
			c0.1,0.3,0.1,0.6,0.2,0.9c0.1,0.3,0.2,0.7,0.3,1.1c0.1,0.4,0.2,0.8,0.4,1.3c0.1,0.4,0.3,0.9,0.5,1.4c0.2,0.5,0.4,1,0.6,1.5
			c0.5,1.1,1,2.2,1.6,3.3c0.6,1.1,1.3,2.4,2.1,3.5c0.8,1.2,1.6,2.4,2.5,3.6c0.9,1.1,1.9,2.3,3,3.2c1.1,1,2.3,1.9,3.5,2.8
			c1.2,0.9,2.4,1.7,3.7,2.4c1.2,0.7,2.5,1.4,3.6,1.9c1.2,0.5,2.3,1,3.4,1.4c2.2,0.8,4.1,1.2,5.4,1.3c0.7,0.1,1.2,0.1,1.6,0.1
			C347,219.5,347.1,219.5,347.1,219.5L347.1,219.5z"/>
	</g>
</g>
<g>
	<circle fill="#5B6DB2" cx="257.3" cy="177.1" r="26"/>
	<g>
		<path fill="#5367AF" d="M261.3,202.8c0,0-0.2,0-0.5,0.1c-0.4,0-0.9,0.1-1.6,0.2c-0.7,0.1-1.5,0.1-2.4,0.1c-0.5,0-1,0-1.5-0.1
			c-0.5,0-1.1-0.1-1.7-0.2c-0.6-0.1-1.2-0.2-1.8-0.3c-0.6-0.1-1.3-0.3-1.9-0.5c-1.3-0.3-2.7-0.8-4-1.4c-1.4-0.6-2.7-1.4-4-2.4
			c-1.3-0.9-2.5-2.2-3.5-3.5c-0.5-0.6-0.9-1.2-1.4-1.8c-0.4-0.7-0.9-1.3-1.3-2c-0.8-1.3-1.5-2.7-2.1-4c-0.6-1.3-1-2.7-1.4-4.1
			c-0.3-1.3-0.5-2.6-0.6-3.8c-0.1-2.4,0.1-4.3,0.1-5.6c0.1-1.3,0.1-2.1,0.1-2.1s0.2,0.7,0.4,2.1c0.3,1.3,0.5,3.2,1,5.4
			c0.2,1.1,0.6,2.2,1,3.4c0.4,1.2,1,2.4,1.6,3.6c0.6,1.2,1.4,2.4,2.2,3.6c0.8,1.2,1.7,2.4,2.6,3.6c0.9,1.2,1.8,2.1,2.9,3
			c1.1,0.9,2.2,1.6,3.4,2.3c1.2,0.6,2.4,1.2,3.6,1.7c1.2,0.5,2.3,0.9,3.4,1.2c1.1,0.3,2.1,0.6,3,0.8c0.9,0.2,1.7,0.4,2.3,0.5
			c0.6,0.1,1.2,0.2,1.5,0.3C261.2,202.7,261.3,202.8,261.3,202.8L261.3,202.8z"/>
	</g>
	<g>
		<path fill="#4858A0" d="M264.7,202c0,0-0.2,0-0.5,0.1c-0.4,0.1-0.9,0.2-1.6,0.3c-1.4,0.2-3.4,0.2-5.8-0.3c-1.2-0.2-2.5-0.5-3.8-1
			c-1.3-0.4-2.7-0.9-4-1.6c-2.7-1.3-5.5-3-7.9-5.2c-1.2-1.1-2.3-2.3-3.3-3.6c-1-1.3-1.8-2.6-2.5-3.9c-0.7-1.3-1.3-2.6-1.8-3.9
			c-0.5-1.3-0.9-2.5-1.2-3.7c-0.3-1.2-0.5-2.2-0.6-3.2c-0.1-0.5-0.1-0.9-0.1-1.4c0-0.4,0-0.8,0-1.2c0-0.7,0.1-1.2,0.2-1.6
			c0.1-0.4,0.1-0.6,0.1-0.6s0,0.2,0.1,0.6c0,0.2,0.1,0.4,0.1,0.7c0.1,0.3,0.1,0.6,0.2,0.9c0.1,0.3,0.2,0.7,0.3,1.1
			c0.1,0.4,0.2,0.8,0.4,1.2c0.1,0.4,0.3,0.9,0.5,1.4c0.2,0.5,0.4,1,0.6,1.5c0.4,1,1,2.1,1.6,3.3c0.6,1.1,1.3,2.3,2.1,3.5
			c0.8,1.2,1.6,2.4,2.5,3.5c0.9,1.1,1.9,2.2,2.9,3.2c1.1,1,2.3,1.9,3.5,2.7c1.2,0.8,2.4,1.6,3.6,2.3c1.2,0.7,2.4,1.3,3.6,1.9
			c1.2,0.5,2.3,1,3.4,1.4c2.1,0.7,4,1.2,5.3,1.3c0.7,0.1,1.2,0.1,1.6,0.1C264.5,202,264.7,202,264.7,202L264.7,202z"/>
	</g>
</g>
<g>
	<circle fill="#5B6DB2" cx="304.1" cy="167.5" r="26"/>
</g>
<g>
	<circle fill="#5B6DB2" cx="357.1" cy="163.8" r="26"/>
	<g>
		<path fill="#5367AF" d="M361.1,189.5c0,0-0.2,0-0.5,0.1c-0.4,0-0.9,0.1-1.6,0.2c-0.7,0.1-1.5,0.1-2.4,0.1c-0.5,0-1,0-1.5-0.1
			c-0.5,0-1.1-0.1-1.7-0.2c-0.6-0.1-1.2-0.2-1.8-0.3c-0.6-0.1-1.3-0.3-1.9-0.5c-1.3-0.3-2.7-0.8-4-1.4c-1.4-0.6-2.7-1.4-4-2.4
			c-1.3-0.9-2.5-2.2-3.5-3.5c-0.5-0.6-0.9-1.2-1.4-1.8c-0.4-0.7-0.9-1.3-1.3-2c-0.8-1.3-1.5-2.7-2.1-4c-0.6-1.3-1-2.7-1.4-4.1
			c-0.3-1.3-0.5-2.6-0.6-3.8c-0.1-2.4,0.1-4.3,0.1-5.6c0.1-1.3,0.1-2.1,0.1-2.1s0.2,0.7,0.4,2.1c0.3,1.3,0.5,3.2,1,5.4
			c0.2,1.1,0.6,2.2,1,3.4c0.4,1.2,1,2.4,1.6,3.6c0.6,1.2,1.4,2.4,2.2,3.6c0.8,1.2,1.7,2.4,2.6,3.6c0.9,1.2,1.8,2.1,2.9,3
			c1.1,0.9,2.2,1.6,3.4,2.3c1.2,0.6,2.4,1.2,3.6,1.7c1.2,0.5,2.3,0.9,3.4,1.2c1.1,0.3,2.1,0.6,3,0.8c0.9,0.2,1.7,0.4,2.3,0.5
			c0.6,0.1,1.2,0.2,1.5,0.3C361,189.4,361.1,189.5,361.1,189.5L361.1,189.5z"/>
	</g>
	<g>
		<path fill="#4858A0" d="M364.5,188.7c0,0-0.2,0-0.5,0.1c-0.4,0.1-0.9,0.2-1.6,0.3c-1.4,0.2-3.4,0.2-5.8-0.3
			c-1.2-0.2-2.5-0.5-3.8-1c-1.3-0.4-2.7-0.9-4-1.6c-2.7-1.3-5.5-3-7.9-5.2c-1.2-1.1-2.3-2.3-3.3-3.6c-1-1.3-1.8-2.6-2.5-3.9
			c-0.7-1.3-1.3-2.6-1.8-3.9c-0.5-1.3-0.9-2.5-1.2-3.7c-0.3-1.2-0.5-2.2-0.6-3.2c-0.1-0.5-0.1-0.9-0.1-1.4c0-0.4,0-0.8,0-1.2
			c0-0.7,0.1-1.2,0.2-1.6c0.1-0.4,0.1-0.6,0.1-0.6s0,0.2,0.1,0.6c0,0.2,0.1,0.4,0.1,0.7c0.1,0.3,0.1,0.6,0.2,0.9
			c0.1,0.3,0.2,0.7,0.3,1.1c0.1,0.4,0.2,0.8,0.4,1.2c0.1,0.4,0.3,0.9,0.5,1.4c0.2,0.5,0.4,1,0.6,1.5c0.4,1,1,2.1,1.6,3.3
			c0.6,1.1,1.3,2.3,2.1,3.5c0.8,1.2,1.6,2.4,2.5,3.5c0.9,1.1,1.9,2.2,2.9,3.2c1.1,1,2.3,1.9,3.5,2.7c1.2,0.8,2.4,1.6,3.6,2.3
			c1.2,0.7,2.4,1.3,3.6,1.9c1.2,0.5,2.3,1,3.4,1.4c2.1,0.7,4,1.2,5.3,1.3c0.7,0.1,1.2,0.1,1.6,0.1
			C364.3,188.7,364.5,188.7,364.5,188.7L364.5,188.7z"/>
	</g>
</g>
<g>
	<path fill="#344A9E" d="M344.1,129.6c0-0.2,0-0.4,0-0.5c0-6.2-5-11.2-11.2-11.2c-6.2,0-11.2,5-11.2,11.2c0,6.2,5,11.2,11.2,11.2
		c1,0,2-0.2,3-0.4C336.6,135.2,339.8,131.3,344.1,129.6z"/>
	<path fill="#344A9E" d="M275.1,117.8c-6.2,0-11.2,5-11.2,11.2c0,0.3,0,0.6,0,0.9c6.3,0,11.5,4.4,12.9,10.2
		c5.4-0.8,9.6-5.5,9.6-11.1C286.3,122.8,281.3,117.8,275.1,117.8z"/>
</g>
<circle fill="#FFFFFF" cx="278.2" cy="123" r="2.7"/>
<circle fill="#FFFFFF" cx="335.6" cy="123" r="2.7"/>
<g>
	<circle fill="#5B6DB2" cx="367.7" cy="117.7" r="22.4"/>
	<g>
		<path fill="#5367AF" d="M371.2,139.8c0,0-0.2,0-0.5,0.1c-0.3,0-0.8,0.1-1.3,0.2c-0.6,0.1-1.3,0.1-2.1,0.1c-0.8,0-1.7-0.1-2.7-0.2
			c-0.5-0.1-1-0.2-1.6-0.2c-0.5-0.1-1.1-0.2-1.7-0.4c-1.1-0.3-2.3-0.7-3.5-1.2c-1.2-0.5-2.4-1.2-3.5-2c-1.1-0.8-2.2-1.9-3-3
			c-0.4-0.5-0.8-1-1.2-1.6c-0.4-0.6-0.8-1.1-1.1-1.7c-0.7-1.1-1.3-2.3-1.8-3.5c-0.5-1.2-0.9-2.4-1.2-3.5c-0.3-1.2-0.4-2.3-0.4-3.3
			c-0.1-2,0.1-3.7,0.2-4.8c0.1-1.2,0.2-1.8,0.2-1.8s0.2,0.6,0.4,1.8c0.2,1.1,0.5,2.8,0.9,4.6c0.2,0.9,0.5,1.9,0.9,2.9
			c0.4,1,0.9,2,1.4,3c0.6,1,1.2,2,1.9,3.1c0.7,1,1.4,2,2.2,3.1c0.7,1,1.5,1.8,2.4,2.5c0.9,0.7,1.9,1.4,2.9,1.9c1,0.5,2,1.1,3,1.5
			c1,0.4,2,0.8,2.9,1.1c0.9,0.3,1.8,0.5,2.5,0.7c0.8,0.2,1.4,0.4,2,0.5C370.5,139.7,371.2,139.8,371.2,139.8L371.2,139.8z"/>
	</g>
	<g>
		<path fill="#4858A0" d="M374,139.1c0,0-0.2,0-0.5,0.1c-0.3,0.1-0.8,0.2-1.4,0.3c-1.2,0.2-2.9,0.2-5-0.1c-1-0.2-2.1-0.4-3.3-0.8
			c-1.1-0.4-2.3-0.8-3.5-1.4c-2.4-1.1-4.7-2.6-6.8-4.5c-1.1-1-2-2-2.8-3.2c-0.8-1.1-1.5-2.3-2.1-3.4c-0.6-1.1-1.1-2.3-1.5-3.4
			c-0.4-1.1-0.8-2.2-1-3.2c-0.3-1-0.4-1.9-0.5-2.8c-0.1-0.8-0.1-1.6-0.1-2.2c0-0.6,0.1-1.1,0.2-1.4c0.1-0.3,0.1-0.5,0.1-0.5
			s0,0.2,0.1,0.5c0,0.3,0.1,0.8,0.3,1.3c0.1,0.3,0.2,0.6,0.3,0.9c0.1,0.3,0.2,0.7,0.3,1.1c0.1,0.4,0.3,0.8,0.5,1.2
			c0.2,0.4,0.3,0.8,0.5,1.3c0.4,0.9,0.9,1.8,1.4,2.8c0.6,1,1.1,2,1.8,3c0.7,1,1.4,2,2.1,3c0.8,0.9,1.6,1.9,2.5,2.7
			c1.8,1.7,4,3.1,6,4.4c1,0.6,2.1,1.2,3.1,1.6c1,0.5,2,0.9,2.9,1.2c1.8,0.7,3.4,1,4.6,1.2c0.6,0.1,1,0.1,1.3,0.2
			C373.8,139.1,374,139.1,374,139.1L374,139.1z"/>
	</g>
</g>
<path fill="none" stroke="#344A9E" stroke-width="2" stroke-linecap="round" stroke-linejoin="round" stroke-miterlimit="10" d="
	M368.5,140.4c11.8-0.6,21.2-10.4,21.2-22.3c0-12.3-10-22.4-22.4-22.4c-2.6,0-5.2,0.5-7.5,1.3c3.3-4.1,5.3-9.3,5.3-15
	c0-13.2-10.7-23.9-23.9-23.9c-11.1,0-20.4,7.5-23.1,17.8c0,0,0,0,0,0c-3.9-9.3-13.1-15.8-23.8-15.8c-13.2,0-24,9.9-25.6,22.6
	c-0.1,0.9-0.9,1.5-1.2,0.9c-3.7-7.4-11.3-12.4-20.2-12.4c-12.4,0-22.5,10.1-22.5,22.5c0,8,4.2,15.1,10.5,19.1c-0.1,0-0.3,0-0.4,0
	c-12.3,0-22.4,10-22.4,22.4s10,22.4,22.4,22.4c2.5,0,4.9-0.4,7.2-1.2c-6.5,4.7-10.8,12.3-10.8,21c0,14.2,11.5,25.8,25.8,25.8
	c1.5,0,3-0.1,4.5-0.4c0.4,14.4,12.2,25.9,26.7,25.9c14,0,25.5-10.8,26.6-24.5c3.9,9.9,13.5,17,24.8,17c14.7,0,26.7-11.9,26.7-26.7
	c0-2.1-0.3-4.2-0.7-6.2c10.2-3.4,17.6-13.1,17.6-24.4C383.2,153.4,377.2,144.5,368.5,140.4z"/>
<g>
	<circle fill="#5B6DB2" cx="288.5" cy="201.7" r="26.8"/>
	<g>
		<path fill="#5367AF" d="M292.7,228.1c0,0-0.2,0-0.6,0.1c-0.4,0-0.9,0.1-1.6,0.2c-0.7,0.1-1.5,0.1-2.5,0.1c-0.5,0-1,0-1.6-0.1
			c-0.5,0-1.1-0.1-1.7-0.2c-0.6-0.1-1.2-0.2-1.9-0.3c-0.6-0.2-1.3-0.3-2-0.5c-1.4-0.3-2.7-0.9-4.1-1.5c-1.4-0.7-2.8-1.4-4.1-2.4
			c-1.3-1-2.6-2.3-3.5-3.6c-0.5-0.6-0.9-1.2-1.4-1.9c-0.4-0.7-0.9-1.3-1.3-2c-0.8-1.4-1.6-2.7-2.2-4.1c-0.7-1.4-1.1-2.8-1.4-4.2
			c-0.3-1.4-0.5-2.7-0.6-3.9c-0.1-2.4,0-4.4,0.1-5.8c0.1-1.4,0.1-2.2,0.1-2.2s0.2,0.8,0.5,2.1c0.3,1.4,0.5,3.3,1,5.6
			c0.2,1.1,0.6,2.3,1,3.5c0.5,1.2,1,2.4,1.7,3.7c0.6,1.2,1.5,2.5,2.3,3.7c0.8,1.2,1.7,2.4,2.7,3.7c0.9,1.2,1.8,2.2,2.9,3.1
			c1.1,0.9,2.3,1.7,3.5,2.4c1.2,0.6,2.5,1.2,3.7,1.7c1.2,0.5,2.4,0.9,3.5,1.2c1.1,0.3,2.1,0.6,3,0.8c0.9,0.2,1.7,0.4,2.4,0.5
			c0.7,0.1,1.2,0.2,1.6,0.3C292.5,228.1,292.7,228.1,292.7,228.1L292.7,228.1z"/>
	</g>
	<g>
		<path fill="#4858A0" d="M296.1,227.4c0,0-0.2,0-0.6,0.1c-0.4,0.1-0.9,0.2-1.6,0.3c-1.4,0.2-3.5,0.2-5.9-0.3
			c-1.2-0.2-2.5-0.5-3.9-1c-1.3-0.5-2.7-1-4.1-1.7c-2.8-1.3-5.6-3.1-8.1-5.3c-1.3-1.2-2.3-2.4-3.4-3.7c-1-1.3-1.8-2.7-2.6-4
			c-0.8-1.3-1.4-2.7-1.9-4c-0.5-1.3-0.9-2.6-1.2-3.8c-0.3-1.2-0.5-2.3-0.6-3.3c-0.1-0.5-0.1-1-0.1-1.4c0-0.4,0-0.8,0-1.2
			c0-0.4,0-0.7,0.1-1c0-0.3,0.1-0.5,0.1-0.7c0.1-0.4,0.1-0.6,0.1-0.6s0,0.2,0.1,0.6c0,0.2,0.1,0.4,0.1,0.7c0.1,0.3,0.1,0.6,0.2,0.9
			c0.1,0.3,0.2,0.7,0.3,1.1c0.1,0.4,0.2,0.8,0.4,1.3c0.1,0.5,0.3,0.9,0.5,1.4c0.2,0.5,0.4,1,0.6,1.6c0.5,1.1,1,2.2,1.6,3.4
			c0.7,1.2,1.3,2.4,2.1,3.6c0.8,1.2,1.6,2.4,2.6,3.6c0.9,1.1,1.9,2.3,3,3.3c1.1,1,2.3,2,3.6,2.8c1.2,0.9,2.5,1.7,3.8,2.4
			c1.3,0.7,2.5,1.4,3.7,1.9c1.2,0.5,2.4,1,3.5,1.4c2.2,0.8,4.1,1.2,5.5,1.3c0.7,0.1,1.2,0.1,1.6,0.1
			C295.9,227.4,296.1,227.4,296.1,227.4L296.1,227.4z"/>
	</g>
</g>
<g>
	<circle fill="#5B6DB2" cx="288" cy="171.4" r="26.8"/>
	<g>
		<path fill="#5367AF" d="M292.2,197.8c0,0-0.2,0-0.6,0.1c-0.4,0-0.9,0.1-1.6,0.2c-0.7,0.1-1.5,0.1-2.5,0.1c-0.5,0-1,0-1.6-0.1
			c-0.5,0-1.1-0.1-1.7-0.2c-0.6-0.1-1.2-0.2-1.9-0.3c-0.6-0.2-1.3-0.3-2-0.5c-1.4-0.3-2.7-0.9-4.1-1.5c-1.4-0.7-2.8-1.4-4.1-2.4
			c-1.3-1-2.6-2.3-3.5-3.6c-0.5-0.6-0.9-1.2-1.4-1.9c-0.4-0.7-0.9-1.3-1.3-2c-0.8-1.4-1.6-2.7-2.2-4.1c-0.7-1.4-1.1-2.8-1.4-4.2
			c-0.3-1.4-0.5-2.7-0.6-3.9c-0.1-2.4,0-4.4,0.1-5.8c0.1-1.4,0.1-2.2,0.1-2.2s0.2,0.8,0.5,2.1c0.3,1.4,0.5,3.3,1,5.6
			c0.2,1.1,0.6,2.3,1,3.5c0.5,1.2,1,2.4,1.7,3.7c0.6,1.2,1.5,2.5,2.3,3.7c0.8,1.2,1.7,2.4,2.7,3.7c0.9,1.2,1.8,2.2,2.9,3.1
			c1.1,0.9,2.3,1.7,3.5,2.4c1.2,0.6,2.5,1.2,3.7,1.7c1.2,0.5,2.4,0.9,3.5,1.2c1.1,0.3,2.1,0.6,3,0.8c0.9,0.2,1.7,0.4,2.4,0.5
			c0.7,0.1,1.2,0.2,1.6,0.3C292,197.8,292.2,197.8,292.2,197.8L292.2,197.8z"/>
	</g>
	<g>
		<path fill="#4858A0" d="M295.6,197c0,0-0.2,0-0.6,0.1c-0.4,0.1-0.9,0.2-1.6,0.3c-1.4,0.2-3.5,0.2-5.9-0.3c-1.2-0.2-2.5-0.5-3.9-1
			c-1.3-0.5-2.7-1-4.1-1.7c-2.8-1.3-5.6-3.1-8.1-5.3c-1.3-1.2-2.3-2.4-3.4-3.7c-1-1.3-1.8-2.7-2.6-4c-0.8-1.3-1.4-2.7-1.9-4
			c-0.5-1.3-0.9-2.6-1.2-3.8c-0.3-1.2-0.5-2.3-0.6-3.3c-0.1-0.5-0.1-1-0.1-1.4c0-0.4,0-0.8,0-1.2c0-0.4,0-0.7,0.1-1
			c0-0.3,0.1-0.5,0.1-0.7c0.1-0.4,0.1-0.6,0.1-0.6s0,0.2,0.1,0.6c0,0.2,0.1,0.4,0.1,0.7c0.1,0.3,0.1,0.6,0.2,0.9
			c0.1,0.3,0.2,0.7,0.3,1.1c0.1,0.4,0.2,0.8,0.4,1.3c0.1,0.5,0.3,0.9,0.5,1.4c0.2,0.5,0.4,1,0.6,1.6c0.5,1.1,1,2.2,1.6,3.4
			c0.7,1.2,1.3,2.4,2.1,3.6c0.8,1.2,1.6,2.4,2.6,3.6c0.9,1.1,1.9,2.3,3,3.3c1.1,1,2.3,2,3.6,2.8c1.2,0.9,2.5,1.7,3.8,2.4
			c1.3,0.7,2.5,1.4,3.7,1.9c1.2,0.5,2.4,1,3.5,1.4c2.2,0.8,4.1,1.2,5.5,1.3c0.7,0.1,1.2,0.1,1.6,0.1C295.4,197,295.6,197,295.6,197
			L295.6,197z"/>
	</g>
</g>
<path fill="none" stroke="#344A9E" stroke-linecap="round" stroke-linejoin="round" stroke-miterlimit="10" d="M315.8,159.6
	c-2.6,2.2-5.9,3.5-9.6,3.5c-3.9,0-7.4-1.5-10-3.9"/>
</svg>
