<?xml version="1.0" encoding="utf-8"?>
<!-- Generator: Adobe Illustrator 18.1.1, SVG Export Plug-In . SVG Version: 6.00 Build 0)  -->
<svg version="1.1" id="Layer_1" xmlns="http://www.w3.org/2000/svg" xmlns:xlink="http://www.w3.org/1999/xlink" x="0px" y="0px"
	 viewBox="0 0 400 250" enable-background="new 0 0 400 250" xml:space="preserve">
<ellipse fill="#FDE35B" cx="305.1" cy="232.6" rx="51.8" ry="2.9"/>
<g>
	<path fill="#FDF6B5" d="M288.9,230.7c-36.4,0-72.3-23.5-91.4-59.8c-16.9-32.3-18.1-70.4-3.1-99.6c-4-5.7-6.1-12.5-6.1-19.5
		c0-18.8,15.3-34.1,34.1-34.1c9.7,0,19,4.2,25.4,11.4c5.9-1.4,12.1-2,18.2-2c36.4,0,72.3,23.5,91.4,59.8c15,28.5,17.8,60.7,7.9,88.6
		c4.7,6,7.3,13.5,7.3,21.1c0,18.8-15.3,34.1-34.1,34.1c-6.9,0-13.5-2-19.2-5.9C309.8,228.7,299.5,230.7,288.9,230.7z"/>
	<path fill="#FDE35B" d="M222.4,18.7c10,0,19,4.5,25.1,11.5c6.1-1.4,12.3-2.2,18.6-2.2c35,0,70.9,22,90.5,59.3
		c15.4,29.4,17.3,61.8,7.6,88.3c4.7,5.7,7.4,13,7.4,20.9c0,18.3-14.8,33.1-33.1,33.1c-7.1,0-13.7-2.2-19-6c-9.8,4.1-20.2,6-30.6,6
		c-35,0-70.9-22-90.5-59.3c-17.6-33.6-17.5-71-2.8-99.2c-4-5.5-6.3-12.2-6.3-19.4C189.3,33.5,204.1,18.7,222.4,18.7 M222.4,16.7
		c-19.4,0-35.1,15.7-35.1,35.1c0,7,2.1,13.8,6,19.6c-7.1,14.1-10.7,30.5-10.4,47.5c0.4,17.9,5.1,36,13.8,52.5
		c9.6,18.3,23.5,33.6,40.1,44.4c16.3,10.5,34.3,16,52.1,16c10.6,0,20.8-1.9,30.4-5.8c5.7,3.8,12.4,5.8,19.3,5.8
		c19.4,0,35.1-15.7,35.1-35.1c0-7.7-2.5-15.2-7.2-21.3c9.8-28,6.9-60.3-8.1-88.9c-9.6-18.3-23.5-33.7-40.1-44.4
		c-16.3-10.5-34.3-16-52.1-16c-6.1,0-12.1,0.7-17.9,1.9C241.5,20.8,232.2,16.7,222.4,16.7L222.4,16.7z"/>
</g>
<path fill="#FFF2A6" d="M195.6,71.2c-14.7,28.2-10.6,64.1,7,97.6c25.4,48.3,74.1,72.6,116.9,54.8c2.6,1.8-44.8,4.3-90.5-45.5
	C183.1,128,193.5,68.4,195.6,71.2z"/>
<path fill="none" stroke="#FDE35B" stroke-width="2" stroke-linecap="round" stroke-linejoin="round" stroke-miterlimit="10" d="
	M230.1,121.6c-3.3-5.8,1.5-14.7,10.7-19.9c9.2-5.2,19.3-4.8,22.6,1"/>
<path fill="none" stroke="#FDE35B" stroke-width="2" stroke-linecap="round" stroke-linejoin="round" stroke-miterlimit="10" d="
	M278.1,94.2c-3.3-5.8,1.5-14.7,10.7-19.9c9.2-5.2,19.3-4.8,22.6,1"/>
<g>
	<path fill="#FDE35B" d="M307.8,101.5L252.5,133c5.7,10,15.9,15.6,26.6,16c-0.7-3,4.4-8.5,11.9-12.8s14.8-5.8,17-3.7
		C313.1,123.2,313.5,111.5,307.8,101.5z"/>
	<path fill="#FDE35B" d="M309.1,100.9C309.1,100.8,309.1,100.8,309.1,100.9c-0.5-0.8-1.4-1.1-2.1-0.7l0,0l-55.3,31.5
		c-0.7,0.4-1,1.3-0.6,2c6.2,10.8,17.5,16.8,29.1,16.8c-0.4-0.2-0.7-0.4-0.9-0.7c0-0.1-0.1-0.1-0.1-0.2c-0.1-0.2-0.2-0.4-0.2-0.6
		c-10.7-0.4-20.9-6-26.6-16l55.3-31.5c5.7,10,5.4,21.7,0.2,31c0.2,0.1,0.3,0.3,0.4,0.5c0,0.1,0.1,0.1,0.1,0.2
		c0.1,0.3,0.2,0.7,0.2,1.1C314.6,124.4,315.2,111.7,309.1,100.9z"/>
	<path fill="#FDF6B5" d="M291,136.2c-7.5,4.3-12.5,9.8-11.9,12.8c5.7,0.2,11.5-1.1,16.8-4.1c5.3-3,9.4-7.4,12.1-12.4
		C305.8,130.4,298.5,131.9,291,136.2z"/>
	<path fill="#FDE35B" d="M308.5,133.2c0-0.1,0-0.1-0.1-0.2c-0.1-0.2-0.2-0.3-0.4-0.5c-2.7,5-6.8,9.3-12.1,12.4
		c-5.3,3-11.1,4.3-16.8,4.1c0,0.2,0.1,0.4,0.2,0.6c0,0.1,0.1,0.1,0.1,0.2c0.2,0.3,0.5,0.6,0.9,0.7c5.5,0,11.1-1.4,16.3-4.4
		c5.1-2.9,9.2-7,12-11.8C308.7,134,308.7,133.6,308.5,133.2z"/>
</g>
<path fill="#FFEB98" d="M195.6,71.2c-14.7,28.2-14.8,65.7,2.8,99.2c25.4,48.3,78.4,71,121.1,53.2c2.6,1.8-56.9,14.8-102.5-35
	C171,138.5,193.5,68.4,195.6,71.2z"/>
</svg>
