<?xml version="1.0" encoding="utf-8"?>
<!-- Generator: Adobe Illustrator 18.1.1, SVG Export Plug-In . SVG Version: 6.00 Build 0)  -->
<svg version="1.1" id="Layer_1" xmlns="http://www.w3.org/2000/svg" xmlns:xlink="http://www.w3.org/1999/xlink" x="0px" y="0px"
	 viewBox="0 0 400 250" enable-background="new 0 0 400 250" xml:space="preserve">
<rect y="0" fill="#92CC23" width="400" height="250"/>
<ellipse fill="#9CCE7C" cx="317.8" cy="234.4" rx="11.5" ry="2.1"/>
<path fill="#9DCD83" stroke="#29B473" stroke-width="2" stroke-miterlimit="10" d="M378.9,154.9c-1.3,14.3-5.7,28.2-15.3,39
	c-12.5,14.2-31.3,18.3-49.6,16.1c-20.1-2.5-38.4-12.7-46.2-32.1c-10.7-26.5-1.1-52.9,10.9-76.8c11.8-23.4,26.1-46.4,43-66.4
	c3.9-4.6,8-9.2,12.8-13c1.6-1.3,4-1,5.3,0.7c10.3,13.3,16.3,30.8,21.9,46.4c7.1,20.1,13.9,41.5,16.5,62.7
	C379.3,139.1,379.6,147.1,378.9,154.9z"/>
<path fill="none" stroke="#29B473" stroke-width="3" stroke-linecap="round" stroke-linejoin="round" stroke-miterlimit="10" d="
	M311.4,209.9c0.3,11.3-0.2,17.4,6.8,24.4"/>
<path fill="none" stroke="#29B473" stroke-width="2" stroke-linecap="round" stroke-linejoin="round" stroke-miterlimit="10" d="
	M331.5,171c-3.5,2.3-7.8,3.4-12.3,2.9c-4.8-0.6-8.9-3-11.7-6.3"/>
<path fill="none" stroke="#29B473" stroke-width="2" stroke-linecap="round" stroke-linejoin="round" stroke-miterlimit="10" d="
	M285.3,137.9c0.9-6.9,7.1-11.8,14.1-11s11.8,7.1,11,14.1"/>
<path fill="none" stroke="#29B473" stroke-width="2" stroke-linecap="round" stroke-linejoin="round" stroke-miterlimit="10" d="
	M334.8,144c0.9-6.9,7.1-11.8,14.1-11c6.9,0.9,11.8,7.1,11,14.1"/>
<path fill="#93CA67" d="M315.8,208.7c-20.1-2.5-38.6-11.2-46.4-30.6c-10.7-26.5-1.1-52.9,10.9-76.8c0,0-14.3,38.4-6,60.6
	c3.5,9.2,8.3,22.2,15.2,30.3C299.3,203.7,315.8,208.7,315.8,208.7z"/>
<path fill="#9CCE7C" d="M312.4,208.3c-20.1-2.5-30.7-14.1-38.5-33.4c-10.7-26.5-2-56.2,10.1-80.2c0,0-16.8,44.8-8.4,67
	c4.2,11.2,9.9,23.7,18.1,32.7C301.6,203.1,312.4,208.3,312.4,208.3z"/>
</svg>
