<?xml version="1.0" encoding="utf-8"?>
<!-- Generator: Adobe Illustrator 18.1.1, SVG Export Plug-In . SVG Version: 6.00 Build 0)  -->
<svg version="1.1" id="Layer_1" xmlns="http://www.w3.org/2000/svg" xmlns:xlink="http://www.w3.org/1999/xlink" x="0px" y="0px"
	 viewBox="0 0 400 250" enable-background="new 0 0 400 250" xml:space="preserve">
<rect y="-1" fill="#E54141" width="400" height="250"/>
<ellipse fill="#E1BFC1" cx="291.1" cy="228.9" rx="31.8" ry="4.2"/>
<g>
	<path fill="#9ED090" stroke="#5BB947" stroke-miterlimit="10" d="M326.4,46.6c-1.9-15.6,6.6-30.1,20.1-36.5
		c0.9-0.4,0.5-1.7-0.4-1.7c-7.5,0.3-15.4,3-22.8,8.8c-3.6,2.8-6.4,6.5-8.1,10.7c-3.2,7.9-3.9,15.4-2.7,22.2c5.4,1,10.6,2.1,15.7,3.5
		C327.3,51.4,326.7,49,326.4,46.6z"/>
	<path fill="#9ED090" stroke="#5BB947" stroke-miterlimit="10" d="M312.6,11.3c0.5-0.6-0.2-1.5-0.9-1.1c-2.4,1.4-4.8,3.1-6.9,5.1
		c-9,8.3-12.7,20.7-10.7,32.4c5,0.4,10.1,1.1,15.4,2C302.8,37.2,304.2,22.2,312.6,11.3z"/>
	<path fill="#9ED090" stroke="#5BB947" stroke-miterlimit="10" d="M274.6,21.2c-0.1-0.7-1-0.8-1.2-0.1c-1.4,4.8-1.9,10-1.1,15.6
		c0.5,3.7,1.6,7.3,3.2,10.5c5.2-0.3,10.6-0.2,16.2,0.2C282.3,41.9,276,32.2,274.6,21.2z"/>
	<path fill="#9ED090" stroke="#5BB947" stroke-miterlimit="10" d="M353.6,50.8c2.6-5,3.9-10.1,4.2-15.1c0-0.7-0.9-0.9-1.2-0.3
		c-5,10-14.5,17.1-25.4,19.1c5.4,1.6,10.6,3.4,15.4,5.5C349.4,57.3,351.8,54.2,353.6,50.8z"/>
	<g>
		<path fill="#D88686" d="M289.2,226.9c-3,0-6-0.3-8.9-0.8c-21.7-3.7-40.7-21.2-53.5-49.2c-11.6-25.3-16-55-11.8-79.5
			c5.6-32.3,25.9-49.5,60.4-51.2c1.9-0.1,3.9-0.1,5.9-0.1c3.3,0,6.8,0.1,10.4,0.4l0.6,0c0.6,0,1.2,0.1,1.8,0.1
			c4.8,0.4,10,1.1,15.4,2c0,0,1.1,0.2,1.3,0.2c0.3,0.1,1.7,0.3,1.7,0.3c5.6,1,10.9,2.2,15.7,3.5c1.1,0.3,2.1,0.6,3.2,0.9
			c5.6,1.6,10.8,3.5,15.5,5.5c30.6,13.3,43.3,36.1,37.9,67.8c-3.9,22.6-16.7,47.7-34.2,67.1C331.6,215.2,309.7,226.9,289.2,226.9
			C289.2,226.9,289.2,226.9,289.2,226.9z"/>
		<path fill="#CD2C27" d="M281.4,47.1c3.4,0,6.8,0.1,10.3,0.4c0.8,0.1,1.5,0.1,2.3,0.2c5,0.4,10.1,1.1,15.4,2
			c0.4,0.1,0.9,0.1,1.3,0.2c0.6,0.1,1.1,0.2,1.6,0.3c5.4,1,10.6,2.1,15.7,3.5c1.1,0.3,2.1,0.6,3.2,0.9c5.4,1.6,10.6,3.4,15.4,5.5
			c26.9,11.7,43.3,32,37.3,66.7c-7.8,45.4-51.1,99.2-94.7,99.2c-2.9,0-5.8-0.2-8.8-0.7c-46.4-8-72.8-79.1-64.4-127.5
			c6.1-35.5,29.3-48.9,59.5-50.4C277.5,47.2,279.4,47.1,281.4,47.1 M281.4,45.1c-2,0-4,0-6,0.1c-35.1,1.7-55.7,19.2-61.4,52.1
			c-4.3,24.6,0.2,54.5,11.8,80c6,13.1,13.7,24.4,22.4,32.7c9.7,9.3,20.4,15,31.8,17c3,0.5,6,0.8,9.1,0.8c20.8,0,42.9-11.8,62.2-33.3
			c17.6-19.6,30.5-44.8,34.4-67.6c5.6-32.2-7.4-55.4-38.5-68.9c-4.7-2.1-10-3.9-15.6-5.6c-1-0.3-2.1-0.6-3.2-0.9
			c-4.9-1.3-10.2-2.5-15.8-3.5l-0.6-0.1c-0.3-0.1-0.7-0.1-1-0.2c-0.3,0-0.5-0.1-0.8-0.1l-0.5-0.1c-5.4-0.9-10.7-1.6-15.5-2
			c-0.6-0.1-1.3-0.1-1.9-0.1l-0.5,0C288.3,45.2,284.8,45.1,281.4,45.1L281.4,45.1z"/>
	</g>
</g>
<path fill="#D3767C" d="M258,37.9"/>
<path fill="#D3767C" d="M274.5,40.7"/>
<path fill="#D3767C" d="M290.9,43.6"/>
<path fill="#D3767C" d="M306.8,46.3"/>
<path fill="#D3767C" d="M323.2,49.1"/>
<path fill="#D3767C" d="M339.7,52"/>
<g>
	<path fill="#D8858D" d="M281.4,225.2c0,0,10.4-6.5,28.5-15c9-4.2,18.8-11.9,26.7-19.1c24.3-22.1,48-69.6,48-69.6
		s-5.6,41.1-47.9,78.1C304.5,227.8,281.4,225.2,281.4,225.2z"/>
</g>
<g>
	<path fill="#D26E73" d="M280.2,224.9c0,0,16.3-0.9,34.4-9.3c9-4.2,18.8-11.9,26.7-19.1c24.3-22.1,43.1-72.5,43.1-72.5
		s-4.5,43.8-46.8,80.9C305.4,233.1,280.2,224.9,280.2,224.9z"/>
</g>
<g>
	<path fill="#D3767C" d="M255.1,55.7c1.4,0.2,3-2.4,4-6.1c-2,0.5-4,1.1-5.9,1.7C253.4,53.8,254.1,55.5,255.1,55.7z"/>
	<path fill="#D3767C" d="M271.5,58.5c1.7,0.3,3.7-3.4,4.5-8.3c0.2-1,0.3-1.9,0.3-2.9c-0.2,0-0.5,0-0.7,0c-1.8,0.1-3.6,0.2-5.3,0.4
		c-0.1,0.5-0.2,0.9-0.3,1.4C269.2,54,269.9,58.2,271.5,58.5z"/>
	<path fill="#D3767C" d="M288,61.4c1.7,0.3,3.7-3.4,4.5-8.3c0.3-2,0.4-3.8,0.3-5.4c-0.3,0-0.7-0.1-1-0.1c-1.4-0.1-2.7-0.1-4.1-0.2
		c-0.5,1.3-1,2.9-1.3,4.6C285.6,56.9,286.3,61.1,288,61.4z"/>
	
		<ellipse transform="matrix(0.1701 -0.9854 0.9854 0.1701 113.0253 298.3315)" fill="#D3767C" cx="233.6" cy="82.1" rx="9" ry="3.1"/>
	
		<ellipse transform="matrix(0.1701 -0.9854 0.9854 0.1701 123.8598 316.8685)" fill="#D3767C" cx="250.1" cy="84.9" rx="9" ry="3.1"/>
	
		<ellipse transform="matrix(0.1701 -0.9854 0.9854 0.1701 134.6945 335.4055)" fill="#D3767C" cx="266.5" cy="87.7" rx="9" ry="3.1"/>
	
		<ellipse transform="matrix(0.1701 -0.9854 0.9854 0.1701 145.529 353.9424)" fill="#D3767C" cx="282.9" cy="90.6" rx="9" ry="3.1"/>
	
		<ellipse transform="matrix(0.1701 -0.9854 0.9854 0.1701 77.1871 319.2785)" fill="#D3767C" cx="228.2" cy="113.8" rx="9" ry="3.1"/>
	
		<ellipse transform="matrix(0.1701 -0.9854 0.9854 0.1701 88.0217 337.8154)" fill="#D3767C" cx="244.6" cy="116.6" rx="9" ry="3.1"/>
	<ellipse transform="matrix(0.1701 -0.9854 0.9854 0.1701 98.8563 356.3524)" fill="#D3767C" cx="261" cy="119.5" rx="9" ry="3.1"/>
	
		<ellipse transform="matrix(0.1701 -0.9854 0.9854 0.1701 109.6909 374.8893)" fill="#D3767C" cx="277.4" cy="122.3" rx="9" ry="3.1"/>
	
		<ellipse transform="matrix(0.1701 -0.9854 0.9854 0.1701 138.9617 295.1924)" fill="#D3767C" cx="244.7" cy="65.1" rx="9" ry="3.1"/>
	
		<ellipse transform="matrix(0.1701 -0.9854 0.9854 0.1701 149.7963 313.7293)" fill="#D3767C" cx="261.2" cy="67.9" rx="9" ry="3.1"/>
	
		<ellipse transform="matrix(0.1701 -0.9854 0.9854 0.1701 160.6308 332.2663)" fill="#D3767C" cx="277.6" cy="70.8" rx="9" ry="3.1"/>
	<ellipse transform="matrix(0.1701 -0.9854 0.9854 0.1701 171.4655 350.8033)" fill="#D3767C" cx="294" cy="73.6" rx="9" ry="3.1"/>
	
		<ellipse transform="matrix(0.1701 -0.9854 0.9854 0.1701 85.183 301.7557)" fill="#D3767C" cx="221.8" cy="100.3" rx="9" ry="3.1"/>
	
		<ellipse transform="matrix(0.1701 -0.9854 0.9854 0.1701 96.0176 320.2926)" fill="#D3767C" cx="238.2" cy="103.1" rx="9" ry="3.1"/>
	
		<ellipse transform="matrix(0.1701 -0.9854 0.9854 0.1701 106.8522 338.8296)" fill="#D3767C" cx="254.6" cy="106" rx="9" ry="3.1"/>
	
		<ellipse transform="matrix(0.1701 -0.9854 0.9854 0.1701 117.6868 357.3665)" fill="#D3767C" cx="271" cy="108.8" rx="9" ry="3.1"/>
	
		<ellipse transform="matrix(0.1701 -0.9854 0.9854 0.1701 128.5213 375.9035)" fill="#D3767C" cx="287.4" cy="111.6" rx="9" ry="3.1"/>
	<path fill="#D3767C" d="M217.8,123.2c-0.9-0.2-1.9,0.9-2.8,2.6c0.3,4.6,0.9,9.2,1.7,13.8c1.1-1.5,2.1-4,2.6-7.1
		C220.1,127.7,219.5,123.5,217.8,123.2z"/>
	
		<ellipse transform="matrix(0.1701 -0.9854 0.9854 0.1701 60.1796 341.2394)" fill="#D3767C" cx="232.7" cy="134.9" rx="9" ry="3.1"/>
	
		<ellipse transform="matrix(0.1701 -0.9854 0.9854 0.1701 71.0142 359.7764)" fill="#D3767C" cx="249.1" cy="137.7" rx="9" ry="3.1"/>
	
		<ellipse transform="matrix(0.1701 -0.9854 0.9854 0.1701 81.8487 378.3134)" fill="#D3767C" cx="265.5" cy="140.6" rx="9" ry="3.1"/>
	<ellipse transform="matrix(0.1701 -0.9854 0.9854 0.1701 92.6833 396.8503)" fill="#D3767C" cx="282" cy="143.4" rx="9" ry="3.1"/>
	<path fill="#D3767C" d="M303.8,64.1c1.7,0.3,3.7-3.4,4.5-8.3c0.4-2.3,0.5-4.5,0.2-6.2c-1.5-0.2-3-0.5-4.4-0.7
		c-0.8,1.5-1.4,3.5-1.8,5.8C301.5,59.6,302.1,63.8,303.8,64.1z"/>
	<path fill="#D3767C" d="M320.2,66.9c1.7,0.3,3.7-3.4,4.5-8.3c0.4-2.1,0.4-4,0.3-5.6c-1.5-0.4-3-0.8-4.5-1.1
		c-0.7,1.5-1.4,3.5-1.8,5.7C317.9,62.5,318.6,66.6,320.2,66.9z"/>
	<path fill="#D3767C" d="M336.6,69.8c1.7,0.3,3.7-3.4,4.5-8.3c0.2-1.2,0.3-2.4,0.4-3.4c-1.7-0.6-3.5-1.3-5.2-1.8
		c-0.5,1.2-0.9,2.7-1.1,4.2C334.3,65.3,335,69.5,336.6,69.8z"/>
	<path fill="#D3767C" d="M353.1,72.6c1.5,0.3,3.3-2.8,4.3-7c-1.8-1.1-3.7-2.1-5.6-3.1c-0.1,0.3-0.1,0.5-0.2,0.8
		C350.7,68.1,351.4,72.3,353.1,72.6z"/>
	
		<ellipse transform="matrix(0.1701 -0.9854 0.9854 0.1701 155.9804 371.8237)" fill="#D3767C" cx="298.8" cy="93.3" rx="9" ry="3.1"/>
	
		<ellipse transform="matrix(0.1701 -0.9854 0.9854 0.1701 166.815 390.3606)" fill="#D3767C" cx="315.2" cy="96.1" rx="9" ry="3.1"/>
	<ellipse transform="matrix(0.1701 -0.9854 0.9854 0.1701 177.6496 408.8976)" fill="#D3767C" cx="331.6" cy="99" rx="9" ry="3.1"/>
	
		<ellipse transform="matrix(-0.1701 0.9854 -0.9854 -0.1701 507.5606 -223.8171)" fill="#D3767C" cx="348" cy="101.8" rx="9" ry="3.1"/>
	
		<ellipse transform="matrix(-0.1701 0.9854 -0.9854 -0.1701 529.5725 -236.6827)" fill="#D3767C" cx="364.4" cy="104.6" rx="9" ry="3.1"/>
	<path fill="#D3767C" d="M383.8,100.3c0.1,0.5,0.2,1.1,0.3,1.6C384,101.4,383.9,100.8,383.8,100.3z"/>
	<path fill="#D3767C" d="M382.4,98.6c-1.7-0.3-3.7,3.4-4.5,8.3c-0.8,4.9-0.2,9.1,1.5,9.4c1.7,0.3,3.7-3.4,4.5-8.3
		c0.4-2.3,0.4-4.4,0.2-6c-0.1-0.5-0.2-1.1-0.3-1.6C383.5,99.4,383,98.7,382.4,98.6z"/>
	
		<ellipse transform="matrix(0.1701 -0.9854 0.9854 0.1701 120.1422 392.7707)" fill="#D3767C" cx="293.3" cy="125.1" rx="9" ry="3.1"/>
	
		<ellipse transform="matrix(0.1701 -0.9854 0.9854 0.1701 130.9768 411.3076)" fill="#D3767C" cx="309.7" cy="127.9" rx="9" ry="3.1"/>
	
		<ellipse transform="matrix(0.1701 -0.9854 0.9854 0.1701 141.8114 429.8445)" fill="#D3767C" cx="326.1" cy="130.7" rx="9" ry="3.1"/>
	
		<ellipse transform="matrix(-0.1701 0.9854 -0.9854 -0.1701 532.4343 -181.2608)" fill="#D3767C" cx="342.5" cy="133.6" rx="9" ry="3.1"/>
	
		<ellipse transform="matrix(-0.1701 0.9854 -0.9854 -0.1701 554.4461 -194.1263)" fill="#D3767C" cx="359" cy="136.4" rx="9" ry="3.1"/>
	
		<ellipse transform="matrix(-0.1701 0.9854 -0.9854 -0.1701 576.4579 -206.992)" fill="#D3767C" cx="375.4" cy="139.2" rx="9" ry="3.1"/>
	
		<ellipse transform="matrix(0.1701 -0.9854 0.9854 0.1701 181.9168 368.6845)" fill="#D3767C" cx="309.9" cy="76.3" rx="9" ry="3.1"/>
	
		<ellipse transform="matrix(0.1701 -0.9854 0.9854 0.1701 192.7514 387.2215)" fill="#D3767C" cx="326.3" cy="79.2" rx="9" ry="3.1"/>
	<ellipse transform="matrix(0.1701 -0.9854 0.9854 0.1701 203.586 405.7585)" fill="#D3767C" cx="342.7" cy="82" rx="9" ry="3.1"/>
	
		<ellipse transform="matrix(-0.1701 0.9854 -0.9854 -0.1701 503.833 -254.6155)" fill="#D3767C" cx="359.1" cy="84.8" rx="9" ry="3.1"/>
	<path fill="#D3767C" d="M374,96.5c1.7,0.3,3.7-3.4,4.5-8.3c0.1-0.5,0.1-0.9,0.2-1.4c-1.2-2.2-2.5-4.2-4-6.2
		c-0.9,1.5-1.8,3.8-2.2,6.5C371.7,92,372.4,96.2,374,96.5z"/>
	
		<ellipse transform="matrix(0.1701 -0.9854 0.9854 0.1701 138.9727 393.7848)" fill="#D3767C" cx="303.3" cy="114.4" rx="9" ry="3.1"/>
	
		<ellipse transform="matrix(0.1701 -0.9854 0.9854 0.1701 149.8074 412.3217)" fill="#D3767C" cx="319.7" cy="117.2" rx="9" ry="3.1"/>
	
		<ellipse transform="matrix(0.1701 -0.9854 0.9854 0.1701 160.6419 430.8587)" fill="#D3767C" cx="336.1" cy="120.1" rx="9" ry="3.1"/>
	
		<ellipse transform="matrix(-0.1701 0.9854 -0.9854 -0.1701 533.6385 -203.6212)" fill="#D3767C" cx="352.6" cy="122.9" rx="9" ry="3.1"/>
	
		<ellipse transform="matrix(-0.1701 0.9854 -0.9854 -0.1701 555.6504 -216.4868)" fill="#D3767C" cx="369" cy="125.7" rx="9" ry="3.1"/>
	<path fill="#D3767C" d="M382.2,134.5c0.7-2.6,1.3-5.2,1.7-7.8c0.3-1.8,0.5-3.4,0.7-5.1c-0.9,1.5-1.8,3.8-2.2,6.5
		C382,130.5,381.9,132.8,382.2,134.5z"/>
	
		<ellipse transform="matrix(0.1701 -0.9854 0.9854 0.1701 103.1348 414.7316)" fill="#D3767C" cx="297.8" cy="146.1" rx="9" ry="3.1"/>
	
		<ellipse transform="matrix(0.1701 -0.9854 0.9854 0.1701 113.9693 433.2686)" fill="#D3767C" cx="314.2" cy="149" rx="9" ry="3.1"/>
	
		<ellipse transform="matrix(0.1701 -0.9854 0.9854 0.1701 124.8039 451.8055)" fill="#D3767C" cx="330.7" cy="151.8" rx="9" ry="3.1"/>
	
		<ellipse transform="matrix(-0.1701 0.9854 -0.9854 -0.1701 558.512 -161.065)" fill="#D3767C" cx="347.1" cy="154.6" rx="9" ry="3.1"/>
	
		<ellipse transform="matrix(-0.1701 0.9854 -0.9854 -0.1701 580.5239 -173.9307)" fill="#D3767C" cx="363.5" cy="157.5" rx="9" ry="3.1"/>
	<path fill="#D3767C" d="M221.5,159.5c1.3-1.1,2.6-4.2,3.3-7.8c0.8-4.9,0.2-9.1-1.5-9.4c-1.6-0.3-3.5,3.1-4.4,7.7"/>
	<ellipse transform="matrix(0.1701 -0.9854 0.9854 0.1701 45.8288 362.4766)" fill="#D3767C" cx="238.1" cy="154" rx="9" ry="3.1"/>
	
		<ellipse transform="matrix(0.1701 -0.9854 0.9854 0.1701 56.6633 381.0136)" fill="#D3767C" cx="254.6" cy="156.9" rx="9" ry="3.1"/>
	<ellipse transform="matrix(0.1701 -0.9854 0.9854 0.1701 67.498 399.5505)" fill="#D3767C" cx="271" cy="159.7" rx="9" ry="3.1"/>
	<path fill="#D3767C" d="M233.1,183.2c-0.5-0.1-1,0.2-1.5,0.7c1.1,2,2.1,3.9,3.3,5.7C235.1,186.2,234.4,183.5,233.1,183.2z"/>
	<ellipse transform="matrix(0.1701 -0.9854 0.9854 0.1701 13.7193 406.1138)" fill="#D3767C" cx="248" cy="194.9" rx="9" ry="3.1"/>
	
		<ellipse transform="matrix(0.1701 -0.9854 0.9854 0.1701 24.5538 424.6508)" fill="#D3767C" cx="264.4" cy="197.7" rx="9" ry="3.1"/>
	<path fill="#D3767C" d="M227.8,163.4c-1.2-0.2-2.5,1.6-3.5,4.3c1.2,3.1,2.5,6.2,3.9,9.2c0.5-1.2,0.9-2.6,1.1-4.2
		C230.1,167.9,229.4,163.7,227.8,163.4z"/>
	
		<ellipse transform="matrix(0.1701 -0.9854 0.9854 0.1701 28.8211 384.4377)" fill="#D3767C" cx="242.7" cy="175.1" rx="9" ry="3.1"/>
	
		<ellipse transform="matrix(0.1701 -0.9854 0.9854 0.1701 39.6557 402.9747)" fill="#D3767C" cx="259.1" cy="177.9" rx="9" ry="3.1"/>
	
		<ellipse transform="matrix(0.1701 -0.9854 0.9854 0.1701 50.4903 421.5116)" fill="#D3767C" cx="275.5" cy="180.8" rx="9" ry="3.1"/>
	<path fill="#D3767C" d="M254,207.2c-0.9-0.2-1.9,0.9-2.8,2.7c1.5,1.4,3,2.7,4.6,3.9C256.1,210.2,255.4,207.4,254,207.2z"/>
	<path fill="#D3767C" d="M270.5,210c-1.7-0.3-3.7,3.4-4.5,8.3c-0.1,0.6-0.2,1.2-0.2,1.7c1.8,0.9,3.6,1.7,5.5,2.4
		c0.3-1,0.6-2,0.7-3.1C272.8,214.5,272.1,210.3,270.5,210z"/>
	
		<ellipse transform="matrix(0.1701 -0.9854 0.9854 0.1701 77.9493 417.4319)" fill="#D3767C" cx="286.8" cy="162.4" rx="9" ry="3.1"/>
	
		<ellipse transform="matrix(0.1701 -0.9854 0.9854 0.1701 88.7839 435.9688)" fill="#D3767C" cx="303.2" cy="165.3" rx="9" ry="3.1"/>
	
		<ellipse transform="matrix(0.1701 -0.9854 0.9854 0.1701 99.6184 454.5057)" fill="#D3767C" cx="319.7" cy="168.1" rx="9" ry="3.1"/>
	
		<ellipse transform="matrix(-0.1701 0.9854 -0.9854 -0.1701 561.7184 -131.1584)" fill="#D3767C" cx="336.1" cy="170.9" rx="9" ry="3.1"/>
	
		<ellipse transform="matrix(-0.1701 0.9854 -0.9854 -0.1701 583.7303 -144.024)" fill="#D3767C" cx="352.5" cy="173.8" rx="9" ry="3.1"/>
	
		<ellipse transform="matrix(0.1701 -0.9854 0.9854 0.1701 35.0052 442.5321)" fill="#D3767C" cx="280.2" cy="200.5" rx="9" ry="3.1"/>
	
		<ellipse transform="matrix(0.1701 -0.9854 0.9854 0.1701 45.8398 461.069)" fill="#D3767C" cx="296.7" cy="203.3" rx="9" ry="3.1"/>
	
		<ellipse transform="matrix(0.1701 -0.9854 0.9854 0.1701 56.6744 479.606)" fill="#D3767C" cx="313.1" cy="206.2" rx="9" ry="3.1"/>
	<path fill="#D3767C" d="M332.6,209.3c0.8-4.8,0.1-8.9-1.5-9.2c-1.7-0.3-3.7,3.4-4.5,8.3c-0.3,1.9-0.4,3.8-0.3,5.3
		C328.3,212.4,330.5,210.9,332.6,209.3z"/>
	
		<ellipse transform="matrix(0.1701 -0.9854 0.9854 0.1701 60.9417 439.3929)" fill="#D3767C" cx="291.4" cy="183.5" rx="9" ry="3.1"/>
	
		<ellipse transform="matrix(0.1701 -0.9854 0.9854 0.1701 71.7762 457.9299)" fill="#D3767C" cx="307.8" cy="186.3" rx="9" ry="3.1"/>
	
		<ellipse transform="matrix(0.1701 -0.9854 0.9854 0.1701 82.6109 476.4668)" fill="#D3767C" cx="324.2" cy="189.2" rx="9" ry="3.1"/>
	
		<ellipse transform="matrix(-0.1701 0.9854 -0.9854 -0.1701 587.7963 -110.9625)" fill="#D3767C" cx="340.6" cy="192" rx="9" ry="3.1"/>
	<path fill="#D3767C" d="M286.3,212.7c-1.7-0.3-3.7,3.4-4.5,8.3c-0.3,1.5-0.4,2.9-0.3,4.1c1.8,0.3,3.6,0.4,5.5,0.5
		c0.4-1.1,0.7-2.3,0.9-3.6C288.6,217.2,288,213,286.3,212.7z"/>
	<path fill="#D3767C" d="M302.7,215.6c-1.7-0.3-3.7,3.4-4.5,8.3c-0.1,0.4-0.1,0.8-0.2,1.2c2.1-0.3,4.2-0.8,6.4-1.4
		C304.9,219.3,304.3,215.8,302.7,215.6z"/>
</g>
<path fill="none" stroke="#CD2C27" stroke-width="2" stroke-linecap="round" stroke-linejoin="round" stroke-miterlimit="10" d="
	M253.4,96.3c8,1.9,29.9,12.1,28.5,18c-1.4,5.9-25.5,5.3-33.5,3.4"/>
<path fill="none" stroke="#CD2C27" stroke-width="2" stroke-linecap="round" stroke-linejoin="round" stroke-miterlimit="10" d="
	M347.7,141c-8-1.9-29.9-12.1-28.5-18c1.4-5.9,25.5-5.3,33.5-3.4"/>
<line fill="none" stroke="#CD2C27" stroke-width="1.5" stroke-linecap="round" stroke-linejoin="round" stroke-miterlimit="10" x1="281.9" y1="114.3" x2="254.2" y2="107.8"/>
<line fill="none" stroke="#CD2C27" stroke-width="1.5" stroke-linecap="round" stroke-linejoin="round" stroke-miterlimit="10" x1="346.9" y1="129.5" x2="319.1" y2="123"/>
<g>
	<path fill="#CD2C27" d="M329.8,155.1L259,138.6c-3,12.7,1.2,25.5,9.8,34c1.8-3,10.3-3.7,19.9-1.5c9.6,2.2,16.9,6.6,17.1,10.2
		C317.4,177.4,326.8,167.9,329.8,155.1z"/>
	<path fill="#D04646" d="M330.2,153.5L330.2,153.5l-70.7-16.6c-0.9-0.2-1.8,0.4-2,1.3c-3.2,13.8,1.6,27.7,11.3,36.7
		c-0.2-0.5-0.2-0.9-0.2-1.3c-9.1-8.8-13.4-22-10.3-35.2c0.1-0.5,0.6-0.7,1-0.6l70.7,16.6c0.5,0.1,0.7,0.6,0.6,1
		c-3.1,13.2-12.9,23.1-24.9,26.9c-0.1,0.4-0.4,0.8-0.7,1.1c12.7-3.7,23.1-13.9,26.4-27.7c0,0,0-0.1,0-0.1
		C331.6,154.6,331.1,153.7,330.2,153.5z"/>
	<path fill="#D04646" d="M268.9,172.6c-8.6-8.6-12.8-21.3-9.8-34l70.7,16.6l0,0l0,0c-3,12.7-12.3,22.3-23.9,26.2
		c0,0.2,0,0.5-0.1,0.7c0,0.1-0.1,0.2-0.1,0.2c12-3.9,21.8-13.8,24.9-26.9c0.1-0.5-0.2-0.9-0.6-1l-70.7-16.6c-0.5-0.1-0.9,0.2-1,0.6
		c-3.1,13.2,1.3,26.4,10.3,35.2c0-0.1,0-0.2,0-0.3C268.6,173,268.7,172.8,268.9,172.6z"/>
	<path fill="#D88686" d="M288.7,171.1c-9.6-2.2-18.1-1.5-19.9,1.5c4.6,4.6,10.5,8,17.3,9.6c6.8,1.6,13.6,1.1,19.7-0.9
		C305.6,177.8,298.3,173.4,288.7,171.1z"/>
	<path fill="#D04646" d="M285.9,183c-6.8-1.6-12.7-5-17.4-9.5c-0.1,0.4,0,0.9,0.2,1.3c4.7,4.3,10.4,7.5,17,9
		c6.6,1.5,13.2,1.3,19.2-0.5c0.3-0.3,0.6-0.7,0.7-1.1C299.5,184.2,292.7,184.6,285.9,183z"/>
	<path fill="#D04646" d="M305.7,182.2c0-0.1,0.1-0.2,0.1-0.2c0.1-0.2,0.1-0.5,0.1-0.7c-6.2,2.1-12.9,2.5-19.7,0.9
		c-6.8-1.6-12.7-5-17.3-9.6c-0.1,0.2-0.2,0.4-0.3,0.7c0,0.1,0,0.2,0,0.3c4.7,4.5,10.6,7.9,17.4,9.5
		C292.7,184.6,299.5,184.2,305.7,182.2z"/>
</g>
</svg>
