<?xml version="1.0" encoding="utf-8"?>
<!-- Generator: Adobe Illustrator 18.1.1, SVG Export Plug-In . SVG Version: 6.00 Build 0)  -->
<svg version="1.1" id="Layer_1" xmlns="http://www.w3.org/2000/svg" xmlns:xlink="http://www.w3.org/1999/xlink" x="0px" y="0px"
	 viewBox="0 0 400 250" enable-background="new 0 0 400 250" xml:space="preserve">
<ellipse fill="#89CDE3" cx="292.7" cy="233" rx="46" ry="4.4"/>
<polygon fill="#26A9E0" stroke="#89CDE3" stroke-width="2" stroke-linecap="round" stroke-linejoin="round" stroke-miterlimit="10" points="
	323.1,52.8 321.1,48.3 322.6,47.6 332.8,39.8 322.6,32 321.1,21.9 305.1,20.9 292.7,14.5 280.3,20.9 264.3,21.9 262.8,32 
	252.5,39.8 262.8,47.6 264.3,48.3 262.6,52.3 "/>
<circle fill="#89CDE3" stroke="#26A9E0" stroke-width="2" stroke-linecap="round" stroke-linejoin="round" stroke-miterlimit="10" cx="292.7" cy="132.2" r="98.5"/>
<path fill="#89CDE3" stroke="#26A9E0" stroke-width="2" stroke-linecap="round" stroke-linejoin="round" stroke-miterlimit="10" d="
	M310.6,162.5c-4.6,4-10.7,6.4-17.3,6.4c-7,0-13.3-2.7-18-7.1"/>
<path fill="#89CDE3" stroke="#26A9E0" stroke-width="2" stroke-linecap="round" stroke-linejoin="round" stroke-miterlimit="10" d="
	M238.2,122.9c0-10.1,8.2-18.3,18.3-18.3s18.3,8.2,18.3,18.3"/>
<path fill="#89CDE3" stroke="#26A9E0" stroke-width="2" stroke-linecap="round" stroke-linejoin="round" stroke-miterlimit="10" d="
	M310.6,122.9c0-10.1,8.2-18.3,18.3-18.3s18.3,8.2,18.3,18.3"/>
<g>
	<path fill="#6DC9E2" d="M298.7,226.6c0,0-0.6,0-1.8,0.1c-0.6,0-1.3,0.1-2.1,0.1c-0.8,0-1.8,0.1-2.9,0c-2.2,0-4.8-0.1-7.8-0.4
		c-3-0.3-6.4-0.8-10.1-1.7c-3.7-0.9-7.6-2-11.6-3.5c-4-1.6-8.2-3.4-12.3-5.7c-4.1-2.3-8.3-4.9-12.2-8c-3.9-3-7.7-6.4-11.3-10
		c-1.8-1.8-3.4-3.7-5.1-5.6c-1.6-1.9-3.1-3.9-4.6-6c-2.9-4-5.4-8.3-7.5-12.5c-1.1-2.1-2.1-4.2-3-6.3c-0.9-2.1-1.7-4.2-2.4-6.2
		c-1.5-4-2.6-8-3.4-11.6c-1.7-7.3-2.2-13.6-2.2-17.9c0-2.2,0.1-3.9,0.1-5c0.1-1.2,0.1-1.8,0.1-1.8s0.1,0.6,0.2,1.8
		c0.1,1.2,0.3,2.8,0.7,5c0.3,2.1,0.8,4.7,1.5,7.6c0.7,2.9,1.6,6.1,2.7,9.6c0.6,1.7,1.2,3.5,1.9,5.4c0.7,1.8,1.4,3.7,2.3,5.6
		c1.7,3.8,3.6,7.7,5.9,11.7c2.2,3.9,4.8,7.9,7.6,11.7c1.4,1.9,2.9,3.8,4.4,5.6c1.5,1.8,3.2,3.6,4.8,5.3c3.3,3.5,6.9,6.7,10.6,9.6
		c3.7,2.9,7.5,5.7,11.4,8c3.9,2.3,7.7,4.4,11.5,6.1c3.8,1.7,7.5,3.1,10.9,4.3c3.5,1.1,6.7,2,9.6,2.6c2.9,0.6,5.5,1.1,7.6,1.4
		c2.1,0.3,3.8,0.5,5,0.6C298.1,226.5,298.7,226.6,298.7,226.6z"/>
</g>
<g>
	<path fill="#7ED0E7" d="M309.2,226.6c0,0-0.6,0-1.9,0.1c-0.6,0-1.4,0.1-2.2,0.1c-0.9,0-1.9,0-3.1,0c-2.3-0.1-5.1-0.3-8.2-0.8
		c-3.2-0.5-6.7-1.2-10.5-2.3c-3.8-1.1-7.9-2.5-12-4.3c-4.1-1.8-8.5-3.9-12.7-6.5c-4.2-2.5-8.5-5.4-12.6-8.5
		c-4.1-3.2-8.1-6.7-11.9-10.4c-0.9-0.9-1.9-1.9-2.8-2.9c-0.9-0.9-1.8-1.9-2.6-2.9c-1.7-2-3.4-4-5.1-6c-3.3-4-6.3-8.1-9-12.3
		c-1.3-2.1-2.6-4.1-3.8-6.2c-1.2-2.1-2.3-4.1-3.3-6.1c-1-2-2-4-2.8-6c-0.8-2-1.6-3.9-2.2-5.7c-0.7-1.9-1.3-3.7-1.7-5.4
		c-0.5-1.7-0.9-3.4-1.2-5c-0.7-3.1-1-5.9-1.1-8.2c-0.1-2.3-0.1-4.1-0.1-5.3c0.1-1.2,0.1-1.9,0.1-1.9s0.1,0.6,0.2,1.9
		c0.1,1.2,0.4,3,0.8,5.2c0.5,2.2,1.1,4.8,2.1,7.8c1,3,2.2,6.2,3.8,9.7c1.6,3.5,3.5,7.2,5.7,10.9c1.1,1.9,2.3,3.8,3.6,5.7
		c1.2,1.9,2.6,3.9,4,5.8c2.8,3.9,5.8,7.8,9,11.7c1.6,1.9,3.3,3.8,5,5.7c0.9,0.9,1.7,1.9,2.6,2.8c0.9,0.9,1.7,1.8,2.6,2.7
		c3.6,3.6,7.4,7,11.3,10.1c3.9,3.1,7.9,6.1,11.9,8.6c4,2.6,8,4.9,11.9,6.9c3.9,2,7.7,3.7,11.3,5c3.6,1.3,6.9,2.4,10,3.2
		c3,0.8,5.7,1.3,7.9,1.7c2.2,0.4,4,0.6,5.2,0.7C308.6,226.5,309.2,226.6,309.2,226.6z"/>
</g>
</svg>
